<svg width="26" height="33" viewBox="0 0 26 33" fill="none" xmlns="http://www.w3.org/2000/svg">
<path d="M21.5283 17.3785C21.4889 13.4212 24.7554 11.5231 24.9014 11.4273C23.0656 8.74312 20.2056 8.37482 19.1877 8.33291C16.7556 8.08589 14.4398 9.76546 13.206 9.76546C11.9747 9.76546 10.0685 8.3691 8.05172 8.40466C5.39869 8.44403 2.95331 9.94771 1.58806 12.3226C-1.1672 17.1022 0.883214 24.1857 3.56799 28.0649C4.88053 29.961 6.44581 32.0946 8.49939 32.0165C10.4787 31.9384 11.2254 30.7363 13.6181 30.7363C16.0108 30.7363 16.6826 32.0165 18.7762 31.9765C20.9047 31.9377 22.2541 30.0442 23.5559 28.1404C25.0627 25.9376 25.6831 23.8047 25.7199 23.6967C25.6736 23.6751 21.5708 22.1035 21.5283 17.3785Z" fill="white"/>
<path d="M17.5948 5.7655C18.6838 4.44344 19.4217 2.60638 19.221 0.777588C17.6494 0.841088 15.7469 1.82216 14.6185 3.14296C13.6076 4.31517 12.7237 6.18143 12.9606 7.97721C14.7138 8.1131 16.5019 7.08503 17.5948 5.7655Z" fill="white"/>
</svg>
