<svg width="245" height="61" viewBox="0 0 245 61" fill="none" xmlns="http://www.w3.org/2000/svg">
<rect width="245" height="61" rx="10" fill="black"/>
<path d="M55.5807 31.7251C55.5457 28.2075 58.4492 26.5204 58.5791 26.4352C56.9472 24.0493 54.405 23.7219 53.5002 23.6846C51.3384 23.4651 49.2798 24.958 48.1831 24.958C47.0887 24.958 45.3942 23.7168 43.6015 23.7484C41.2433 23.7834 39.0696 25.12 37.8561 27.231C35.4069 31.4796 37.2295 37.776 39.616 41.2242C40.7827 42.9096 42.1741 44.8061 43.9995 44.7367C45.7588 44.6673 46.4226 43.5988 48.5495 43.5988C50.6763 43.5988 51.2735 44.7367 53.1344 44.7011C55.0264 44.6667 56.2259 42.9835 57.383 41.2913C58.7224 39.3333 59.2739 37.4373 59.3066 37.3414C59.2654 37.3222 55.6185 35.9252 55.5807 31.7251Z" fill="white"/>
<path d="M52.084 21.4027C53.052 20.2275 53.7079 18.5946 53.5295 16.969C52.1325 17.0254 50.4414 17.8975 49.4384 19.0715C48.5398 20.1135 47.7541 21.7724 47.9647 23.3687C49.5231 23.4894 51.1126 22.5756 52.084 21.4027Z" fill="white"/>
<path d="M73.9847 25V13.8H78.7047C79.8994 13.8 80.95 14.0347 81.8567 14.504C82.774 14.9733 83.4834 15.6293 83.9847 16.472C84.4967 17.3147 84.7527 18.2907 84.7527 19.4C84.7527 20.5093 84.4967 21.4853 83.9847 22.328C83.4834 23.1707 82.774 23.8267 81.8567 24.296C80.95 24.7653 79.8994 25 78.7047 25H73.9847ZM75.5847 23.608H78.6087C79.5367 23.608 80.3367 23.432 81.0087 23.08C81.6914 22.728 82.2194 22.2373 82.5927 21.608C82.966 20.968 83.1527 20.232 83.1527 19.4C83.1527 18.5573 82.966 17.8213 82.5927 17.192C82.2194 16.5627 81.6914 16.072 81.0087 15.72C80.3367 15.368 79.5367 15.192 78.6087 15.192H75.5847V23.608ZM90.6114 25.096C89.7581 25.096 89.0008 24.9093 88.3394 24.536C87.6781 24.1627 87.1554 23.6507 86.7714 23C86.3874 22.3387 86.1954 21.592 86.1954 20.76C86.1954 19.9173 86.3874 19.1707 86.7714 18.52C87.1554 17.8693 87.6781 17.3627 88.3394 17C89.0008 16.6267 89.7581 16.44 90.6114 16.44C91.4541 16.44 92.2061 16.6267 92.8674 17C93.5394 17.3627 94.0621 17.8693 94.4354 18.52C94.8194 19.16 95.0114 19.9067 95.0114 20.76C95.0114 21.6027 94.8194 22.3493 94.4354 23C94.0621 23.6507 93.5394 24.1627 92.8674 24.536C92.2061 24.9093 91.4541 25.096 90.6114 25.096ZM90.6114 23.752C91.1554 23.752 91.6408 23.6293 92.0674 23.384C92.5048 23.1387 92.8461 22.792 93.0914 22.344C93.3368 21.8853 93.4594 21.3573 93.4594 20.76C93.4594 20.152 93.3368 19.6293 93.0914 19.192C92.8461 18.744 92.5048 18.3973 92.0674 18.152C91.6408 17.9067 91.1554 17.784 90.6114 17.784C90.0674 17.784 89.5821 17.9067 89.1554 18.152C88.7288 18.3973 88.3874 18.744 88.1314 19.192C87.8754 19.6293 87.7474 20.152 87.7474 20.76C87.7474 21.3573 87.8754 21.8853 88.1314 22.344C88.3874 22.792 88.7288 23.1387 89.1554 23.384C89.5821 23.6293 90.0674 23.752 90.6114 23.752ZM98.6933 25L95.5413 16.52H96.9973L99.7973 24.2H99.1093L102.021 16.52H103.317L106.165 24.2H105.493L108.357 16.52H109.733L106.565 25H105.093L102.421 17.992H102.869L100.165 25H98.6933ZM115.82 16.44C116.513 16.44 117.121 16.5733 117.644 16.84C118.177 17.1067 118.593 17.512 118.892 18.056C119.191 18.6 119.34 19.288 119.34 20.12V25H117.804V20.296C117.804 19.4747 117.601 18.856 117.196 18.44C116.801 18.024 116.241 17.816 115.516 17.816C114.972 17.816 114.497 17.9227 114.092 18.136C113.687 18.3493 113.372 18.664 113.148 19.08C112.935 19.496 112.828 20.0133 112.828 20.632V25H111.292V16.52H112.764V18.808L112.524 18.2C112.801 17.6453 113.228 17.2133 113.804 16.904C114.38 16.5947 115.052 16.44 115.82 16.44ZM122.183 25V13.128H123.719V25H122.183ZM130.283 25.096C129.43 25.096 128.673 24.9093 128.011 24.536C127.35 24.1627 126.827 23.6507 126.443 23C126.059 22.3387 125.867 21.592 125.867 20.76C125.867 19.9173 126.059 19.1707 126.443 18.52C126.827 17.8693 127.35 17.3627 128.011 17C128.673 16.6267 129.43 16.44 130.283 16.44C131.126 16.44 131.878 16.6267 132.539 17C133.211 17.3627 133.734 17.8693 134.107 18.52C134.491 19.16 134.683 19.9067 134.683 20.76C134.683 21.6027 134.491 22.3493 134.107 23C133.734 23.6507 133.211 24.1627 132.539 24.536C131.878 24.9093 131.126 25.096 130.283 25.096ZM130.283 23.752C130.827 23.752 131.313 23.6293 131.739 23.384C132.177 23.1387 132.518 22.792 132.763 22.344C133.009 21.8853 133.131 21.3573 133.131 20.76C133.131 20.152 133.009 19.6293 132.763 19.192C132.518 18.744 132.177 18.3973 131.739 18.152C131.313 17.9067 130.827 17.784 130.283 17.784C129.739 17.784 129.254 17.9067 128.827 18.152C128.401 18.3973 128.059 18.744 127.803 19.192C127.547 19.6293 127.419 20.152 127.419 20.76C127.419 21.3573 127.547 21.8853 127.803 22.344C128.059 22.792 128.401 23.1387 128.827 23.384C129.254 23.6293 129.739 23.752 130.283 23.752ZM141.993 25V23.208L141.913 22.872V19.816C141.913 19.1653 141.721 18.664 141.337 18.312C140.964 17.9493 140.399 17.768 139.641 17.768C139.14 17.768 138.649 17.8533 138.169 18.024C137.689 18.184 137.284 18.4027 136.953 18.68L136.313 17.528C136.751 17.176 137.273 16.9093 137.881 16.728C138.5 16.536 139.145 16.44 139.817 16.44C140.98 16.44 141.876 16.7227 142.505 17.288C143.135 17.8533 143.449 18.7173 143.449 19.88V25H141.993ZM139.209 25.096C138.58 25.096 138.025 24.9893 137.545 24.776C137.076 24.5627 136.713 24.2693 136.457 23.896C136.201 23.512 136.073 23.08 136.073 22.6C136.073 22.1413 136.18 21.7253 136.393 21.352C136.617 20.9787 136.975 20.68 137.465 20.456C137.967 20.232 138.639 20.12 139.481 20.12H142.169V21.224H139.545C138.777 21.224 138.26 21.352 137.993 21.608C137.727 21.864 137.593 22.1733 137.593 22.536C137.593 22.952 137.759 23.288 138.089 23.544C138.42 23.7893 138.879 23.912 139.465 23.912C140.041 23.912 140.543 23.784 140.969 23.528C141.407 23.272 141.721 22.8987 141.913 22.408L142.217 23.464C142.015 23.9653 141.657 24.3653 141.145 24.664C140.633 24.952 139.988 25.096 139.209 25.096ZM149.796 25.096C148.975 25.096 148.239 24.9147 147.588 24.552C146.948 24.1893 146.441 23.6827 146.068 23.032C145.695 22.3813 145.508 21.624 145.508 20.76C145.508 19.896 145.695 19.144 146.068 18.504C146.441 17.8533 146.948 17.3467 147.588 16.984C148.239 16.6213 148.975 16.44 149.796 16.44C150.511 16.44 151.156 16.6 151.732 16.92C152.308 17.24 152.767 17.72 153.108 18.36C153.46 19 153.636 19.8 153.636 20.76C153.636 21.72 153.465 22.52 153.124 23.16C152.793 23.8 152.34 24.2853 151.764 24.616C151.188 24.936 150.532 25.096 149.796 25.096ZM149.924 23.752C150.457 23.752 150.937 23.6293 151.364 23.384C151.801 23.1387 152.143 22.792 152.388 22.344C152.644 21.8853 152.772 21.3573 152.772 20.76C152.772 20.152 152.644 19.6293 152.388 19.192C152.143 18.744 151.801 18.3973 151.364 18.152C150.937 17.9067 150.457 17.784 149.924 17.784C149.38 17.784 148.895 17.9067 148.468 18.152C148.041 18.3973 147.7 18.744 147.444 19.192C147.188 19.6293 147.06 20.152 147.06 20.76C147.06 21.3573 147.188 21.8853 147.444 22.344C147.7 22.792 148.041 23.1387 148.468 23.384C148.895 23.6293 149.38 23.752 149.924 23.752ZM152.82 25V22.712L152.916 20.744L152.756 18.776V13.128H154.292V25H152.82ZM165.127 25.096C164.274 25.096 163.516 24.9093 162.855 24.536C162.194 24.1627 161.671 23.6507 161.287 23C160.903 22.3387 160.711 21.592 160.711 20.76C160.711 19.9173 160.903 19.1707 161.287 18.52C161.671 17.8693 162.194 17.3627 162.855 17C163.516 16.6267 164.274 16.44 165.127 16.44C165.97 16.44 166.722 16.6267 167.383 17C168.055 17.3627 168.578 17.8693 168.951 18.52C169.335 19.16 169.527 19.9067 169.527 20.76C169.527 21.6027 169.335 22.3493 168.951 23C168.578 23.6507 168.055 24.1627 167.383 24.536C166.722 24.9093 165.97 25.096 165.127 25.096ZM165.127 23.752C165.671 23.752 166.156 23.6293 166.583 23.384C167.02 23.1387 167.362 22.792 167.607 22.344C167.852 21.8853 167.975 21.3573 167.975 20.76C167.975 20.152 167.852 19.6293 167.607 19.192C167.362 18.744 167.02 18.3973 166.583 18.152C166.156 17.9067 165.671 17.784 165.127 17.784C164.583 17.784 164.098 17.9067 163.671 18.152C163.244 18.3973 162.903 18.744 162.647 19.192C162.391 19.6293 162.263 20.152 162.263 20.76C162.263 21.3573 162.391 21.8853 162.647 22.344C162.903 22.792 163.244 23.1387 163.671 23.384C164.098 23.6293 164.583 23.752 165.127 23.752ZM176.179 16.44C176.873 16.44 177.481 16.5733 178.003 16.84C178.537 17.1067 178.953 17.512 179.251 18.056C179.55 18.6 179.699 19.288 179.699 20.12V25H178.163V20.296C178.163 19.4747 177.961 18.856 177.555 18.44C177.161 18.024 176.601 17.816 175.875 17.816C175.331 17.816 174.857 17.9227 174.451 18.136C174.046 18.3493 173.731 18.664 173.507 19.08C173.294 19.496 173.187 20.0133 173.187 20.632V25H171.651V16.52H173.123V18.808L172.883 18.2C173.161 17.6453 173.587 17.2133 174.163 16.904C174.739 16.5947 175.411 16.44 176.179 16.44ZM189.751 25.096C188.897 25.096 188.236 24.8667 187.767 24.408C187.297 23.9493 187.063 23.2933 187.063 22.44V14.664H188.599V22.376C188.599 22.8347 188.711 23.1867 188.935 23.432C189.169 23.6773 189.5 23.8 189.927 23.8C190.407 23.8 190.807 23.6667 191.127 23.4L191.607 24.504C191.372 24.7067 191.089 24.856 190.759 24.952C190.439 25.048 190.103 25.096 189.751 25.096ZM185.623 17.784V16.52H191.031V17.784H185.623ZM197.992 16.44C198.685 16.44 199.293 16.5733 199.816 16.84C200.349 17.1067 200.765 17.512 201.064 18.056C201.362 18.6 201.512 19.288 201.512 20.12V25H199.976V20.296C199.976 19.4747 199.773 18.856 199.368 18.44C198.973 18.024 198.413 17.816 197.688 17.816C197.144 17.816 196.669 17.9227 196.264 18.136C195.858 18.3493 195.544 18.664 195.32 19.08C195.106 19.496 195 20.0133 195 20.632V25H193.464V13.128H195V18.808L194.696 18.2C194.973 17.6453 195.4 17.2133 195.976 16.904C196.552 16.5947 197.224 16.44 197.992 16.44ZM208.13 25.096C207.224 25.096 206.424 24.9093 205.73 24.536C205.048 24.1627 204.514 23.6507 204.13 23C203.757 22.3493 203.57 21.6027 203.57 20.76C203.57 19.9173 203.752 19.1707 204.114 18.52C204.488 17.8693 204.994 17.3627 205.634 17C206.285 16.6267 207.016 16.44 207.826 16.44C208.648 16.44 209.373 16.6213 210.002 16.984C210.632 17.3467 211.122 17.8587 211.474 18.52C211.837 19.1707 212.018 19.9333 212.018 20.808C212.018 20.872 212.013 20.9467 212.002 21.032C212.002 21.1173 211.997 21.1973 211.986 21.272H204.77V20.168H211.186L210.562 20.552C210.573 20.008 210.461 19.5227 210.226 19.096C209.992 18.6693 209.666 18.3387 209.25 18.104C208.845 17.8587 208.37 17.736 207.826 17.736C207.293 17.736 206.818 17.8587 206.402 18.104C205.986 18.3387 205.661 18.6747 205.426 19.112C205.192 19.5387 205.074 20.0293 205.074 20.584V20.84C205.074 21.4053 205.202 21.912 205.458 22.36C205.725 22.7973 206.093 23.1387 206.562 23.384C207.032 23.6293 207.57 23.752 208.178 23.752C208.68 23.752 209.133 23.6667 209.538 23.496C209.954 23.3253 210.317 23.0693 210.626 22.728L211.474 23.72C211.09 24.168 210.61 24.5093 210.034 24.744C209.469 24.9787 208.834 25.096 208.13 25.096Z" fill="white"/>
<path d="M96.4344 46L102.104 33.4H104.408L110.096 46H107.648L102.77 34.642H103.706L98.8464 46H96.4344ZM99.0444 43.084L99.6744 41.248H106.478L107.108 43.084H99.0444ZM116.811 46.126C116.031 46.126 115.317 45.946 114.669 45.586C114.033 45.226 113.523 44.686 113.139 43.966C112.767 43.234 112.581 42.31 112.581 41.194C112.581 40.066 112.761 39.142 113.121 38.422C113.493 37.702 113.997 37.168 114.633 36.82C115.269 36.46 115.995 36.28 116.811 36.28C117.759 36.28 118.593 36.484 119.313 36.892C120.045 37.3 120.621 37.87 121.041 38.602C121.473 39.334 121.689 40.198 121.689 41.194C121.689 42.19 121.473 43.06 121.041 43.804C120.621 44.536 120.045 45.106 119.313 45.514C118.593 45.922 117.759 46.126 116.811 46.126ZM111.483 49.492V36.388H113.625V38.656L113.553 41.212L113.733 43.768V49.492H111.483ZM116.559 44.2C117.099 44.2 117.579 44.08 117.999 43.84C118.431 43.6 118.773 43.252 119.025 42.796C119.277 42.34 119.403 41.806 119.403 41.194C119.403 40.57 119.277 40.036 119.025 39.592C118.773 39.136 118.431 38.788 117.999 38.548C117.579 38.308 117.099 38.188 116.559 38.188C116.019 38.188 115.533 38.308 115.101 38.548C114.669 38.788 114.327 39.136 114.075 39.592C113.823 40.036 113.697 40.57 113.697 41.194C113.697 41.806 113.823 42.34 114.075 42.796C114.327 43.252 114.669 43.6 115.101 43.84C115.533 44.08 116.019 44.2 116.559 44.2ZM129.151 46.126C128.371 46.126 127.657 45.946 127.009 45.586C126.373 45.226 125.863 44.686 125.479 43.966C125.107 43.234 124.921 42.31 124.921 41.194C124.921 40.066 125.101 39.142 125.461 38.422C125.833 37.702 126.337 37.168 126.973 36.82C127.609 36.46 128.335 36.28 129.151 36.28C130.099 36.28 130.933 36.484 131.653 36.892C132.385 37.3 132.961 37.87 133.381 38.602C133.813 39.334 134.029 40.198 134.029 41.194C134.029 42.19 133.813 43.06 133.381 43.804C132.961 44.536 132.385 45.106 131.653 45.514C130.933 45.922 130.099 46.126 129.151 46.126ZM123.823 49.492V36.388H125.965V38.656L125.893 41.212L126.073 43.768V49.492H123.823ZM128.899 44.2C129.439 44.2 129.919 44.08 130.339 43.84C130.771 43.6 131.113 43.252 131.365 42.796C131.617 42.34 131.743 41.806 131.743 41.194C131.743 40.57 131.617 40.036 131.365 39.592C131.113 39.136 130.771 38.788 130.339 38.548C129.919 38.308 129.439 38.188 128.899 38.188C128.359 38.188 127.873 38.308 127.441 38.548C127.009 38.788 126.667 39.136 126.415 39.592C126.163 40.036 126.037 40.57 126.037 41.194C126.037 41.806 126.163 42.34 126.415 42.796C126.667 43.252 127.009 43.6 127.441 43.84C127.873 44.08 128.359 44.2 128.899 44.2ZM145.259 46.18C144.275 46.18 143.333 46.042 142.433 45.766C141.533 45.478 140.819 45.112 140.291 44.668L141.101 42.85C141.605 43.246 142.229 43.576 142.973 43.84C143.717 44.104 144.479 44.236 145.259 44.236C145.919 44.236 146.453 44.164 146.861 44.02C147.269 43.876 147.569 43.684 147.761 43.444C147.953 43.192 148.049 42.91 148.049 42.598C148.049 42.214 147.911 41.908 147.635 41.68C147.359 41.44 146.999 41.254 146.555 41.122C146.123 40.978 145.637 40.846 145.097 40.726C144.569 40.606 144.035 40.468 143.495 40.312C142.967 40.144 142.481 39.934 142.037 39.682C141.605 39.418 141.251 39.07 140.975 38.638C140.699 38.206 140.561 37.654 140.561 36.982C140.561 36.298 140.741 35.674 141.101 35.11C141.473 34.534 142.031 34.078 142.775 33.742C143.531 33.394 144.485 33.22 145.637 33.22C146.393 33.22 147.143 33.316 147.887 33.508C148.631 33.7 149.279 33.976 149.831 34.336L149.093 36.154C148.529 35.818 147.947 35.572 147.347 35.416C146.747 35.248 146.171 35.164 145.619 35.164C144.971 35.164 144.443 35.242 144.035 35.398C143.639 35.554 143.345 35.758 143.153 36.01C142.973 36.262 142.883 36.55 142.883 36.874C142.883 37.258 143.015 37.57 143.279 37.81C143.555 38.038 143.909 38.218 144.341 38.35C144.785 38.482 145.277 38.614 145.817 38.746C146.357 38.866 146.891 39.004 147.419 39.16C147.959 39.316 148.445 39.52 148.877 39.772C149.321 40.024 149.675 40.366 149.939 40.798C150.215 41.23 150.353 41.776 150.353 42.436C150.353 43.108 150.167 43.732 149.795 44.308C149.435 44.872 148.877 45.328 148.121 45.676C147.365 46.012 146.411 46.18 145.259 46.18ZM156.075 46.126C155.019 46.126 154.203 45.856 153.627 45.316C153.051 44.764 152.763 43.954 152.763 42.886V34.264H155.013V42.832C155.013 43.288 155.127 43.642 155.355 43.894C155.595 44.146 155.925 44.272 156.345 44.272C156.849 44.272 157.269 44.14 157.605 43.876L158.235 45.478C157.971 45.694 157.647 45.856 157.263 45.964C156.879 46.072 156.483 46.126 156.075 46.126ZM151.179 38.26V36.46H157.587V38.26H151.179ZM164.09 46.126C163.106 46.126 162.23 45.916 161.462 45.496C160.694 45.064 160.088 44.476 159.644 43.732C159.2 42.988 158.978 42.142 158.978 41.194C158.978 40.234 159.2 39.388 159.644 38.656C160.088 37.912 160.694 37.33 161.462 36.91C162.23 36.49 163.106 36.28 164.09 36.28C165.086 36.28 165.968 36.49 166.736 36.91C167.516 37.33 168.122 37.906 168.554 38.638C168.998 39.37 169.22 40.222 169.22 41.194C169.22 42.142 168.998 42.988 168.554 43.732C168.122 44.476 167.516 45.064 166.736 45.496C165.968 45.916 165.086 46.126 164.09 46.126ZM164.09 44.2C164.642 44.2 165.134 44.08 165.566 43.84C165.998 43.6 166.334 43.252 166.574 42.796C166.826 42.34 166.952 41.806 166.952 41.194C166.952 40.57 166.826 40.036 166.574 39.592C166.334 39.136 165.998 38.788 165.566 38.548C165.134 38.308 164.648 38.188 164.108 38.188C163.556 38.188 163.064 38.308 162.632 38.548C162.212 38.788 161.876 39.136 161.624 39.592C161.372 40.036 161.246 40.57 161.246 41.194C161.246 41.806 161.372 42.34 161.624 42.796C161.876 43.252 162.212 43.6 162.632 43.84C163.064 44.08 163.55 44.2 164.09 44.2ZM171.372 46V36.388H173.514V39.034L173.262 38.26C173.55 37.612 174 37.12 174.612 36.784C175.236 36.448 176.01 36.28 176.934 36.28V38.422C176.838 38.398 176.748 38.386 176.664 38.386C176.58 38.374 176.496 38.368 176.412 38.368C175.56 38.368 174.882 38.62 174.378 39.124C173.874 39.616 173.622 40.354 173.622 41.338V46H171.372ZM183.272 46.126C182.204 46.126 181.268 45.916 180.464 45.496C179.672 45.064 179.054 44.476 178.61 43.732C178.178 42.988 177.962 42.142 177.962 41.194C177.962 40.234 178.172 39.388 178.592 38.656C179.024 37.912 179.612 37.33 180.356 36.91C181.112 36.49 181.97 36.28 182.93 36.28C183.866 36.28 184.7 36.484 185.432 36.892C186.164 37.3 186.74 37.876 187.16 38.62C187.58 39.364 187.79 40.24 187.79 41.248C187.79 41.344 187.784 41.452 187.772 41.572C187.772 41.692 187.766 41.806 187.754 41.914H179.744V40.42H186.566L185.684 40.888C185.696 40.336 185.582 39.85 185.342 39.43C185.102 39.01 184.772 38.68 184.352 38.44C183.944 38.2 183.47 38.08 182.93 38.08C182.378 38.08 181.892 38.2 181.472 38.44C181.064 38.68 180.74 39.016 180.5 39.448C180.272 39.868 180.158 40.366 180.158 40.942V41.302C180.158 41.878 180.29 42.388 180.554 42.832C180.818 43.276 181.19 43.618 181.67 43.858C182.15 44.098 182.702 44.218 183.326 44.218C183.866 44.218 184.352 44.134 184.784 43.966C185.216 43.798 185.6 43.534 185.936 43.174L187.142 44.56C186.71 45.064 186.164 45.454 185.504 45.73C184.856 45.994 184.112 46.126 183.272 46.126Z" fill="white"/>
</svg>
