<svg width="116" height="118" viewBox="0 0 116 118" fill="none" xmlns="http://www.w3.org/2000/svg">
<g clip-path="url(#clip0_351_216)">
<path fill-rule="evenodd" clip-rule="evenodd" d="M75.2427 65.4481C74.7983 76.6194 72.4729 88.3687 66.2945 97.8278C64.0468 101.27 61.2063 104.026 58.3216 106.874C58.1196 107.074 57.8041 107.074 57.6179 106.875C57.4323 106.674 57.4463 106.349 57.6501 106.148C60.4786 103.355 63.271 100.658 65.4752 97.2828C71.5659 87.958 73.8267 76.3653 74.2513 65.3557L74.0875 65.3432C72.3078 65.2119 70.4884 63.6411 68.9472 61.34C66.7375 58.042 65.053 53.2751 64.6895 49.637C64.5265 48.0022 64.6358 46.5857 65.0478 45.5996C65.3686 44.8306 65.8706 44.2991 66.548 44.0521C67.9918 43.5269 69.4559 44.402 70.7221 46.1815C73.3712 49.9023 75.3193 57.5329 75.3253 61.0773C75.3268 62.1841 75.3124 63.3007 75.2781 64.4235C75.5901 64.4554 75.8958 64.4853 76.195 64.5005C77.0476 64.5411 77.8598 64.4584 78.7044 63.8913C80.0198 63.006 80.962 61.5861 81.6565 59.9805C82.7388 57.4741 83.2099 54.5121 83.4454 52.2684C84.756 39.7725 80.0141 30.5355 73.9429 23.5866C67.8103 16.5701 60.3229 11.8713 56.2383 8.51063C56.0278 8.33822 56.0029 8.01618 56.1802 7.7913C56.3576 7.56641 56.6726 7.52457 56.8824 7.69818C60.9936 11.0801 68.5246 15.8177 74.6971 22.882C80.9311 30.014 85.7815 39.504 84.4372 52.3312C84.1921 54.6685 83.6918 57.7506 82.5646 60.3604C81.7835 62.1668 80.702 63.7468 79.2215 64.7429C77.8926 65.6363 76.6371 65.5799 75.2427 65.4481ZM74.2854 64.3255L74.2037 64.3202C72.648 64.2056 71.124 62.7437 69.7766 60.7313C67.6532 57.5622 66.0309 52.9829 65.682 49.485C65.5617 48.2859 65.5906 47.2199 65.8152 46.3948C66.0012 45.7145 66.3142 45.2097 66.841 45.019C67.3378 44.8365 67.8278 44.9298 68.3034 45.2066C68.8625 45.5305 69.3967 46.0934 69.9087 46.8118C72.4538 50.3875 74.3231 57.7205 74.3285 61.1263C74.3294 62.1841 74.3162 63.2511 74.2854 64.3255Z" fill="#ADB5BD"/>
<path fill-rule="evenodd" clip-rule="evenodd" d="M56.3491 107.273C56.555 107.337 56.8606 107.336 57.1894 107.33C57.9726 107.317 58.8767 107.18 59.3046 107.132C59.58 107.103 59.815 107.308 59.8318 107.589C59.8479 107.872 59.6386 108.124 59.3632 108.154C58.839 108.211 57.6339 108.392 56.7426 108.351C56.2645 108.329 55.8657 108.232 55.631 108.071C55.2308 107.798 55.1663 107.298 55.5751 106.61C56.0592 105.797 57.3136 104.488 57.5665 102.94C57.6119 102.659 57.8708 102.459 58.141 102.494C58.4129 102.528 58.5957 102.784 58.5497 103.066C58.3078 104.541 57.289 105.844 56.658 106.751C56.5383 106.924 56.4183 107.142 56.3491 107.273Z" fill="#ADB5BD"/>
</g>
<defs>
<clipPath id="clip0_351_216">
<rect width="88.1078" height="83.4197" fill="white" transform="matrix(-0.491293 0.870994 0.870474 0.492214 43.2871 0)"/>
</clipPath>
</defs>
</svg>
