<svg width="163" height="167" viewBox="0 0 163 167" fill="none" xmlns="http://www.w3.org/2000/svg">
<g clip-path="url(#clip0_170_369)">
<path fill-rule="evenodd" clip-rule="evenodd" d="M66.2707 65.4714C52.1149 72.7494 37.9683 82.7247 28.2983 96.1345C24.7794 101.013 22.3769 106.22 19.8747 111.537C19.6988 111.91 19.8238 112.304 20.1542 112.417C20.4859 112.528 20.8975 112.315 21.0734 111.94C23.5278 106.726 25.8738 101.615 29.3247 96.8299C38.8574 83.6104 52.8287 73.8101 66.785 66.6541L66.8665 66.8512C67.7454 68.9951 70.4871 70.3224 74.0548 70.8628C79.1684 71.6382 85.9569 70.8736 90.7699 69.1382C92.9325 68.358 94.7063 67.369 95.8071 66.2609C96.6657 65.3974 97.1472 64.4506 97.1936 63.4558C97.2911 61.3363 95.5839 60.0341 92.7953 59.5234C86.9638 58.4537 76.3958 60.6124 71.8457 62.7378C70.425 63.402 68.9981 64.0921 67.5713 64.8105C67.4058 64.44 67.2454 64.0761 67.1065 63.7116C66.7139 62.6711 66.4958 61.6068 66.8863 60.2105C67.497 58.0347 68.9427 56.0033 70.7255 54.1695C73.5092 51.3093 77.1215 48.9384 79.9063 47.294C95.416 38.1369 109.16 38.5011 120.5 41.9028C131.95 45.3404 140.968 51.8652 146.911 54.9448C147.216 55.1039 147.639 54.9413 147.857 54.5844C148.074 54.2275 148.002 53.8089 147.696 53.6513C141.715 50.5513 132.631 43.9955 121.103 40.5367C109.463 37.0419 95.351 36.6944 79.4298 46.093C76.5289 47.8057 72.7741 50.2854 69.8756 53.264C67.8697 55.3267 66.2742 57.6284 65.5871 60.0772C64.9714 62.2747 65.545 63.809 66.2707 65.4714ZM68.0932 65.9916L68.1327 66.0905C68.9007 67.9646 71.3848 68.9886 74.5046 69.4605C79.4184 70.2056 85.9415 69.4763 90.5687 67.807C92.1553 67.2357 93.5115 66.558 94.4804 65.781C95.279 65.1392 95.8017 64.4445 95.8361 63.6717C95.8719 62.9413 95.5567 62.3854 95.0117 61.9578C94.3728 61.4545 93.4374 61.1259 92.3113 60.9188C86.7075 59.8915 76.5527 61.9696 72.1808 64.0125C70.8232 64.6479 69.4594 65.3066 68.0932 65.9916Z" fill="#ADB5BD"/>
<path fill-rule="evenodd" clip-rule="evenodd" d="M20.1503 114.241C19.9853 114.023 19.8653 113.64 19.7414 113.226C19.4451 112.24 19.2607 111.028 19.1503 110.465C19.0785 110.103 18.7214 109.933 18.3538 110.082C17.985 110.232 17.7446 110.645 17.8165 111.007C17.9526 111.696 18.2014 113.31 18.6093 114.399C18.8285 114.983 19.1118 115.423 19.4121 115.619C19.9227 115.954 20.5897 115.734 21.3091 114.809C22.1594 113.715 23.3387 111.36 25.2231 110.113C25.5651 109.888 25.7193 109.444 25.5666 109.127C25.414 108.808 25.0129 108.734 24.6696 108.961C22.8736 110.151 21.6087 112.207 20.6958 113.542C20.522 113.795 20.2902 114.076 20.1503 114.241Z" fill="#ADB5BD"/>
</g>
<defs>
<clipPath id="clip0_170_369">
<rect width="129" height="105" fill="white" transform="matrix(-0.62932 0.777146 -0.777811 -0.628498 163 66)"/>
</clipPath>
</defs>
</svg>
