<svg width="95" height="88" viewBox="0 0 95 88" fill="none" xmlns="http://www.w3.org/2000/svg">
<path fill-rule="evenodd" clip-rule="evenodd" d="M59.7794 58.7606C55.5046 67.8663 49.4323 76.4533 40.8901 81.0721C37.7821 82.753 34.4103 83.5446 30.9693 84.3892C30.7281 84.4488 30.4602 84.2813 30.3718 84.0151C30.2844 83.7484 30.4097 83.4839 30.6526 83.4248C34.027 82.5961 37.3372 81.8282 40.385 80.1797C48.8061 75.6266 54.7689 67.1362 58.9705 58.1551L58.8358 58.0573C57.3717 56.9993 56.3761 54.7163 55.8712 51.9706C55.1471 48.0351 55.381 43.1511 56.342 39.9149C56.7741 38.4608 57.361 37.3344 58.0546 36.7292C58.5951 36.257 59.2065 36.08 59.8673 36.2344C61.2756 36.5645 62.2125 38.0764 62.6659 40.2392C63.6153 44.7624 62.6059 52.1818 61.3744 55.1492C60.9895 56.0757 60.5877 57.0018 60.1669 57.9225C60.4205 58.1155 60.6694 58.3034 60.9179 58.4754C61.6271 58.9637 62.3451 59.3273 63.2596 59.303C64.6846 59.2636 65.9793 58.5781 67.1288 57.6054C68.9215 56.0859 70.3547 53.8599 71.3373 52.1089C76.8091 42.3568 76.0086 32.1053 73.282 23.0592C70.5268 13.9237 65.8135 6.00465 63.5205 1.01783C63.4021 0.761503 63.4932 0.478878 63.7222 0.385321C63.9512 0.291765 64.233 0.424584 64.3504 0.681545C66.6586 5.70039 71.3954 13.6751 74.1677 22.8718C76.9686 32.1578 77.7728 42.6787 72.1568 52.6898C71.1334 54.5139 69.6336 56.8249 67.7667 58.4069C66.4737 59.5014 65.0049 60.2466 63.4012 60.2908C61.9619 60.3298 60.9164 59.6137 59.7794 58.7606ZM59.3588 57.3117L59.2913 57.2637C58.0114 56.339 57.2284 54.3044 56.7873 51.9035C56.0914 48.1218 56.3127 43.4277 57.2371 40.3166C57.5534 39.2496 57.9499 38.3735 58.4283 37.8032C58.8234 37.3334 59.2651 37.078 59.7786 37.1991C60.2638 37.3113 60.647 37.6503 60.954 38.1352C61.3153 38.704 61.5722 39.4594 61.7559 40.333C62.6678 44.6794 61.6952 51.8079 60.5116 54.6591C60.1433 55.5442 59.7597 56.4296 59.3588 57.3117Z" fill="#ADB5BD"/>
<path fill-rule="evenodd" clip-rule="evenodd" d="M29.1564 83.6718C29.3085 83.8355 29.5684 83.997 29.8494 84.1674C30.5183 84.574 31.3333 84.9406 31.7128 85.1293C31.9568 85.2512 32.0847 85.548 32.0008 85.7922C31.9159 86.0369 31.6503 86.1366 31.4063 86.0146C30.9416 85.783 29.856 85.2923 29.1139 84.7835C28.716 84.5103 28.4113 84.2169 28.2684 83.9572C28.0242 83.5153 28.1439 83.0629 28.7308 82.7055C29.4253 82.2832 30.9464 81.8565 31.7009 80.6972C31.8373 80.4866 32.127 80.4567 32.3441 80.6298C32.5628 80.8035 32.6287 81.1147 32.4913 81.326C31.7714 82.4307 30.4525 82.9774 29.6004 83.4004C29.4386 83.481 29.2606 83.5994 29.1564 83.6718Z" fill="#ADB5BD"/>
</svg>
