<svg width="95" height="102" viewBox="0 0 95 102" fill="none" xmlns="http://www.w3.org/2000/svg">
<path fill-rule="evenodd" clip-rule="evenodd" d="M62.9698 59.7685C60.664 70.6215 56.4592 81.8112 48.9495 90.2984C46.2174 93.3867 43.0327 95.7339 39.7905 98.165C39.5633 98.3358 39.261 98.2982 39.1162 98.0808C38.9723 97.8624 39.0404 97.5466 39.2693 97.3755C42.4486 94.991 45.5772 92.6957 48.2565 89.6671C55.6597 81.3004 59.7761 70.2559 62.0357 59.5582L61.8809 59.5261C60.1984 59.1825 58.7201 57.4286 57.6312 54.9953C56.0697 51.5078 55.2585 46.6498 55.5226 43.0538C55.6417 41.4379 55.9847 40.0681 56.5453 39.1553C56.982 38.4433 57.5523 37.9851 58.2427 37.8261C59.714 37.4881 60.9691 38.5197 61.8823 40.4104C63.7935 44.364 64.3752 52.0498 63.7845 55.511C63.5996 56.5919 63.3979 57.6803 63.1761 58.7723C63.4696 58.8413 63.7574 58.9075 64.0413 58.9585C64.8511 59.1015 65.643 59.119 66.5474 58.6676C67.9564 57.9626 69.0978 56.6903 70.0332 55.2069C71.4917 52.8908 72.4414 50.056 73.0446 47.8939C76.403 35.8523 73.4157 26.2598 68.77 18.7403C64.077 11.1473 57.6961 5.65302 54.3494 1.87735C54.1768 1.68354 54.2071 1.3661 54.4149 1.16802C54.6226 0.96993 54.9313 0.967213 55.103 1.16211C58.4717 4.96183 64.8877 10.4992 69.611 18.1437C74.3817 25.8617 77.4304 35.7144 73.984 48.0752C73.3558 50.3275 72.3579 53.2761 70.839 55.6877C69.7869 57.3568 68.4851 58.7684 66.8994 59.5617C65.4762 60.2731 64.2831 60.066 62.9698 59.7685ZM62.2417 58.5565L62.1644 58.5414C60.6936 58.2412 59.4799 56.6293 58.528 54.5015C57.0276 51.1502 56.2444 46.4829 56.4989 43.0255C56.5854 41.8402 56.7926 40.8029 57.1465 40.0246C57.4392 39.3829 57.8239 38.928 58.3606 38.8055C58.8672 38.6875 59.3208 38.8379 59.7298 39.1657C60.2107 39.5497 60.6277 40.164 60.9972 40.9273C62.8332 44.7266 63.3894 52.1123 62.8214 55.4382C62.6443 56.4711 62.452 57.5113 62.2417 58.5565Z" fill="#ADB5BD"/>
<path fill-rule="evenodd" clip-rule="evenodd" d="M37.8342 98.3155C38.0206 98.4034 38.3136 98.4389 38.6295 98.4731C39.3817 98.5555 40.2708 98.5306 40.6886 98.5365C40.9574 98.5408 41.148 98.7696 41.1167 99.0463C41.0846 99.324 40.8417 99.5451 40.5729 99.5407C40.0612 99.5329 38.8765 99.5638 38.0296 99.4162C37.5754 99.3368 37.2097 99.1941 37.0119 99.0084C36.6746 98.693 36.697 98.1972 37.2044 97.5751C37.8049 96.8396 39.2268 95.713 39.7294 94.2329C39.8201 93.9644 40.1019 93.7997 40.3548 93.8665C40.6095 93.933 40.7415 94.2048 40.65 94.4745C40.1701 95.8853 38.975 97.034 38.2179 97.8439C38.0741 97.998 37.9225 98.1964 37.8342 98.3155Z" fill="#ADB5BD"/>
</svg>
