<svg width="20" height="16" viewBox="0 0 20 16" fill="none" xmlns="http://www.w3.org/2000/svg">
<path d="M0.512732 7.99473C0.512732 8.51759 0.874447 8.89902 1.39688 8.89902L14.6256 8.89902L16.765 8.81845L13.4706 11.8219L11.2206 14.1122C11.0599 14.2729 10.9793 14.5137 10.9793 14.7447C10.9793 15.247 11.3607 15.619 11.8536 15.619C12.0944 15.619 12.3053 15.5282 12.5063 15.3374L19.186 8.66845C19.3866 8.47731 19.4873 8.24631 19.4873 7.99559C19.4873 7.75431 19.3866 7.52331 19.186 7.33216L12.5063 0.662735C12.3049 0.47202 12.0944 0.381592 11.8532 0.381592C11.3612 0.381592 10.9793 0.753163 10.9793 1.24516C10.9793 1.48645 11.0599 1.72731 11.2206 1.88802L13.4706 4.16802L16.7749 7.18173L14.6256 7.10116L1.39688 7.10116C0.874447 7.10116 0.512732 7.47231 0.512732 7.99473Z" fill="#212529"/>
</svg>
