<svg width="135" height="138" viewBox="0 0 135 138" fill="none" xmlns="http://www.w3.org/2000/svg">
<g clip-path="url(#clip0_170_380)">
<path fill-rule="evenodd" clip-rule="evenodd" d="M79.8184 53.7954C91.583 59.5392 103.371 67.5079 111.503 78.3912C114.463 82.3508 116.505 86.6014 118.63 90.941C118.78 91.2451 118.681 91.5728 118.41 91.6716C118.137 91.7692 117.795 91.601 117.646 91.2947C115.561 87.0392 113.567 82.8666 110.664 78.9835C102.647 68.2547 91.006 60.4271 79.4074 54.7803L79.3423 54.9444C78.6415 56.7287 76.3941 57.8735 73.456 58.3845C69.2449 59.1175 63.6341 58.6111 59.6425 57.2678C57.849 56.6638 56.3739 55.8806 55.4529 54.9868C54.7345 54.2903 54.3264 53.5181 54.2768 52.6985C54.1722 50.9522 55.5662 49.8469 57.8616 49.3748C62.6618 48.3858 71.4075 49.973 75.1865 51.6428C76.3665 52.1646 77.5519 52.7077 78.7376 53.2741C78.8699 52.9655 78.9981 52.6624 79.1086 52.3593C79.4207 51.4939 79.5886 50.6121 79.2505 49.4676C78.7217 47.6842 77.5055 46.0352 76.0135 44.5554C73.6837 42.2472 70.6757 40.3578 68.3589 39.0524C55.4556 31.7835 44.1173 32.3353 34.7985 35.3483C25.3882 38.393 18.0206 43.9394 13.1518 46.5881C12.9017 46.7249 12.5506 46.5985 12.3669 46.3081C12.1832 46.0177 12.2379 45.6712 12.489 45.5356C17.3889 42.8694 24.8115 37.2962 34.2853 34.2326C43.8507 31.1373 55.4927 30.5926 68.7384 38.0532C71.1519 39.4127 74.2787 41.3893 76.7045 43.7929C78.3833 45.4575 79.7262 47.3267 80.321 49.3339C80.8542 51.1351 80.3983 52.411 79.8184 53.7954ZM78.3203 54.2578L78.2888 54.34C77.6763 55.8999 75.638 56.7898 73.0688 57.2361C69.0223 57.9405 63.631 57.4583 59.7934 56.1661C58.4776 55.724 57.3507 55.1898 56.5423 54.5666C55.876 54.0519 55.4367 53.4885 55.3995 52.8518C55.3616 52.25 55.6154 51.7857 56.0603 51.4231C56.5818 50.9963 57.35 50.7082 58.277 50.5167C62.8897 49.567 71.2934 51.0953 74.9245 52.7002C76.0521 53.1995 77.185 53.7178 78.3203 54.2578Z" fill="#ADB5BD"/>
<path fill-rule="evenodd" clip-rule="evenodd" d="M118.434 93.1761C118.567 92.993 118.662 92.6752 118.759 92.3313C118.993 91.5128 119.131 90.5097 119.216 90.0434C119.271 89.7437 119.564 89.5968 119.869 89.7125C120.175 89.8293 120.378 90.1658 120.323 90.4655C120.218 91.0364 120.031 92.3723 119.707 93.2779C119.533 93.7635 119.304 94.1315 119.058 94.2989C118.641 94.5849 118.088 94.4153 117.484 93.6659C116.77 92.779 115.77 90.8584 114.2 89.8642C113.915 89.6844 113.783 89.3209 113.906 89.0571C114.028 88.7912 114.358 88.7225 114.644 88.9035C116.14 89.852 117.207 91.5251 117.975 92.6091C118.122 92.8149 118.316 93.0426 118.434 93.1761Z" fill="#ADB5BD"/>
</g>
<defs>
<clipPath id="clip0_170_380">
<rect width="106" height="87" fill="white" transform="matrix(0.642788 0.766044 0.766044 -0.642788 0 56)"/>
</clipPath>
</defs>
</svg>
