<svg width="253" height="70" viewBox="0 0 253 70" fill="none" xmlns="http://www.w3.org/2000/svg">
<rect width="253" height="70" rx="10" fill="black"/>
<path d="M58.5283 36.3785C58.4889 32.4212 61.7554 30.5231 61.9014 30.4273C60.0656 27.7431 57.2056 27.3748 56.1877 27.3329C53.7556 27.0859 51.4398 28.7655 50.206 28.7655C48.9747 28.7655 47.0685 27.3691 45.0517 27.4047C42.3987 27.444 39.9533 28.9477 38.5881 31.3226C35.8328 36.1022 37.8832 43.1857 40.568 47.0649C41.8805 48.961 43.4458 51.0946 45.4994 51.0165C47.4787 50.9384 48.2254 49.7363 50.6181 49.7363C53.0108 49.7363 53.6826 51.0165 55.7762 50.9765C57.9047 50.9377 59.2541 49.0442 60.5559 47.1404C62.0627 44.9376 62.6831 42.8047 62.7199 42.6967C62.6736 42.6751 58.5708 41.1035 58.5283 36.3785Z" fill="white"/>
<path d="M54.5948 24.7655C55.6838 23.4434 56.4217 21.6064 56.221 19.7776C54.6494 19.8411 52.7469 20.8222 51.6185 22.143C50.6076 23.3152 49.7237 25.1814 49.9606 26.9772C51.7138 27.1131 53.5019 26.085 54.5948 24.7655Z" fill="white"/>
<path d="M84.0037 29V17.8H88.5637C89.7584 17.8 90.8037 18.04 91.6997 18.52C92.6064 18.9893 93.3104 19.6453 93.8117 20.488C94.313 21.3307 94.5637 22.3013 94.5637 23.4C94.5637 24.4987 94.313 25.4693 93.8117 26.312C93.3104 27.1547 92.6064 27.816 91.6997 28.296C90.8037 28.7653 89.7584 29 88.5637 29H84.0037ZM85.1877 27.976H88.4997C89.4917 27.976 90.3504 27.784 91.0757 27.4C91.8117 27.0053 92.3824 26.4667 92.7877 25.784C93.193 25.0907 93.3957 24.296 93.3957 23.4C93.3957 22.4933 93.193 21.6987 92.7877 21.016C92.3824 20.3333 91.8117 19.8 91.0757 19.416C90.3504 19.0213 89.4917 18.824 88.4997 18.824H85.1877V27.976ZM100.406 29.08C99.5958 29.08 98.8651 28.8987 98.2144 28.536C97.5744 28.1627 97.0678 27.656 96.6944 27.016C96.3211 26.3653 96.1344 25.624 96.1344 24.792C96.1344 23.9493 96.3211 23.208 96.6944 22.568C97.0678 21.928 97.5744 21.4267 98.2144 21.064C98.8544 20.7013 99.5851 20.52 100.406 20.52C101.238 20.52 101.974 20.7013 102.614 21.064C103.265 21.4267 103.772 21.928 104.134 22.568C104.508 23.208 104.694 23.9493 104.694 24.792C104.694 25.624 104.508 26.3653 104.134 27.016C103.772 27.656 103.265 28.1627 102.614 28.536C101.964 28.8987 101.228 29.08 100.406 29.08ZM100.406 28.072C101.014 28.072 101.553 27.9387 102.022 27.672C102.492 27.3947 102.86 27.0107 103.126 26.52C103.404 26.0187 103.542 25.4427 103.542 24.792C103.542 24.1307 103.404 23.5547 103.126 23.064C102.86 22.5733 102.492 22.1947 102.022 21.928C101.553 21.6507 101.02 21.512 100.422 21.512C99.8251 21.512 99.2918 21.6507 98.8224 21.928C98.3531 22.1947 97.9798 22.5733 97.7024 23.064C97.4251 23.5547 97.2864 24.1307 97.2864 24.792C97.2864 25.4427 97.4251 26.0187 97.7024 26.52C97.9798 27.0107 98.3531 27.3947 98.8224 27.672C99.2918 27.9387 99.8198 28.072 100.406 28.072ZM108.491 29L105.323 20.6H106.411L109.291 28.392H108.795L111.755 20.6H112.731L115.659 28.392H115.163L118.091 20.6H119.131L115.947 29H114.875L112.059 21.672H112.395L109.563 29H108.491ZM125.13 20.52C125.812 20.52 126.41 20.6533 126.922 20.92C127.444 21.176 127.85 21.5707 128.138 22.104C128.436 22.6373 128.586 23.3093 128.586 24.12V29H127.45V24.232C127.45 23.3467 127.226 22.68 126.778 22.232C126.34 21.7733 125.722 21.544 124.922 21.544C124.324 21.544 123.802 21.6667 123.354 21.912C122.916 22.1467 122.575 22.4933 122.33 22.952C122.095 23.4 121.978 23.944 121.978 24.584V29H120.842V20.6H121.93V22.904L121.754 22.472C122.02 21.864 122.447 21.3893 123.034 21.048C123.62 20.696 124.319 20.52 125.13 20.52ZM131.654 29V17.128H132.79V29H131.654ZM139.375 29.08C138.565 29.08 137.834 28.8987 137.183 28.536C136.543 28.1627 136.037 27.656 135.663 27.016C135.29 26.3653 135.103 25.624 135.103 24.792C135.103 23.9493 135.29 23.208 135.663 22.568C136.037 21.928 136.543 21.4267 137.183 21.064C137.823 20.7013 138.554 20.52 139.375 20.52C140.207 20.52 140.943 20.7013 141.583 21.064C142.234 21.4267 142.741 21.928 143.103 22.568C143.477 23.208 143.663 23.9493 143.663 24.792C143.663 25.624 143.477 26.3653 143.103 27.016C142.741 27.656 142.234 28.1627 141.583 28.536C140.933 28.8987 140.197 29.08 139.375 29.08ZM139.375 28.072C139.983 28.072 140.522 27.9387 140.991 27.672C141.461 27.3947 141.829 27.0107 142.095 26.52C142.373 26.0187 142.511 25.4427 142.511 24.792C142.511 24.1307 142.373 23.5547 142.095 23.064C141.829 22.5733 141.461 22.1947 140.991 21.928C140.522 21.6507 139.989 21.512 139.391 21.512C138.794 21.512 138.261 21.6507 137.791 21.928C137.322 22.1947 136.949 22.5733 136.671 23.064C136.394 23.5547 136.255 24.1307 136.255 24.792C136.255 25.4427 136.394 26.0187 136.671 26.52C136.949 27.0107 137.322 27.3947 137.791 27.672C138.261 27.9387 138.789 28.072 139.375 28.072ZM151.2 29V27.144L151.152 26.84V23.736C151.152 23.0213 150.949 22.472 150.544 22.088C150.149 21.704 149.557 21.512 148.768 21.512C148.224 21.512 147.706 21.6027 147.216 21.784C146.725 21.9653 146.309 22.2053 145.968 22.504L145.456 21.656C145.882 21.2933 146.394 21.016 146.992 20.824C147.589 20.6213 148.218 20.52 148.88 20.52C149.968 20.52 150.805 20.792 151.392 21.336C151.989 21.8693 152.288 22.6853 152.288 23.784V29H151.2ZM148.304 29.08C147.674 29.08 147.125 28.9787 146.656 28.776C146.197 28.5627 145.845 28.2747 145.6 27.912C145.354 27.5387 145.232 27.112 145.232 26.632C145.232 26.1947 145.333 25.8 145.536 25.448C145.749 25.0853 146.09 24.7973 146.56 24.584C147.04 24.36 147.68 24.248 148.48 24.248H151.376V25.096H148.512C147.701 25.096 147.136 25.24 146.816 25.528C146.506 25.816 146.352 26.1733 146.352 26.6C146.352 27.08 146.538 27.464 146.912 27.752C147.285 28.04 147.808 28.184 148.48 28.184C149.12 28.184 149.669 28.04 150.128 27.752C150.597 27.4533 150.938 27.0267 151.152 26.472L151.408 27.256C151.194 27.8107 150.821 28.2533 150.288 28.584C149.765 28.9147 149.104 29.08 148.304 29.08ZM158.717 29.08C157.917 29.08 157.197 28.8987 156.557 28.536C155.928 28.1733 155.432 27.672 155.069 27.032C154.706 26.3813 154.525 25.6347 154.525 24.792C154.525 23.9387 154.706 23.192 155.069 22.552C155.432 21.912 155.928 21.416 156.557 21.064C157.197 20.7013 157.917 20.52 158.717 20.52C159.453 20.52 160.109 20.6853 160.685 21.016C161.272 21.3467 161.736 21.832 162.077 22.472C162.429 23.1013 162.605 23.8747 162.605 24.792C162.605 25.6987 162.434 26.472 162.093 27.112C161.752 27.752 161.288 28.2427 160.701 28.584C160.125 28.9147 159.464 29.08 158.717 29.08ZM158.797 28.072C159.394 28.072 159.928 27.9387 160.397 27.672C160.877 27.3947 161.25 27.0107 161.517 26.52C161.794 26.0187 161.933 25.4427 161.933 24.792C161.933 24.1307 161.794 23.5547 161.517 23.064C161.25 22.5733 160.877 22.1947 160.397 21.928C159.928 21.6507 159.394 21.512 158.797 21.512C158.21 21.512 157.682 21.6507 157.213 21.928C156.744 22.1947 156.37 22.5733 156.093 23.064C155.816 23.5547 155.677 24.1307 155.677 24.792C155.677 25.4427 155.816 26.0187 156.093 26.52C156.37 27.0107 156.744 27.3947 157.213 27.672C157.682 27.9387 158.21 28.072 158.797 28.072ZM161.965 29V26.472L162.077 24.776L161.917 23.08V17.128H163.053V29H161.965ZM173.828 29.08C173.018 29.08 172.287 28.8987 171.636 28.536C170.996 28.1627 170.49 27.656 170.116 27.016C169.743 26.3653 169.556 25.624 169.556 24.792C169.556 23.9493 169.743 23.208 170.116 22.568C170.49 21.928 170.996 21.4267 171.636 21.064C172.276 20.7013 173.007 20.52 173.828 20.52C174.66 20.52 175.396 20.7013 176.036 21.064C176.687 21.4267 177.194 21.928 177.556 22.568C177.93 23.208 178.116 23.9493 178.116 24.792C178.116 25.624 177.93 26.3653 177.556 27.016C177.194 27.656 176.687 28.1627 176.036 28.536C175.386 28.8987 174.65 29.08 173.828 29.08ZM173.828 28.072C174.436 28.072 174.975 27.9387 175.444 27.672C175.914 27.3947 176.282 27.0107 176.548 26.52C176.826 26.0187 176.964 25.4427 176.964 24.792C176.964 24.1307 176.826 23.5547 176.548 23.064C176.282 22.5733 175.914 22.1947 175.444 21.928C174.975 21.6507 174.442 21.512 173.844 21.512C173.247 21.512 172.714 21.6507 172.244 21.928C171.775 22.1947 171.402 22.5733 171.124 23.064C170.847 23.5547 170.708 24.1307 170.708 24.792C170.708 25.4427 170.847 26.0187 171.124 26.52C171.402 27.0107 171.775 27.3947 172.244 27.672C172.714 27.9387 173.242 28.072 173.828 28.072ZM184.724 20.52C185.406 20.52 186.004 20.6533 186.516 20.92C187.038 21.176 187.444 21.5707 187.732 22.104C188.03 22.6373 188.18 23.3093 188.18 24.12V29H187.044V24.232C187.044 23.3467 186.82 22.68 186.372 22.232C185.934 21.7733 185.316 21.544 184.516 21.544C183.918 21.544 183.396 21.6667 182.948 21.912C182.51 22.1467 182.169 22.4933 181.924 22.952C181.689 23.4 181.572 23.944 181.572 24.584V29H180.436V20.6H181.524V22.904L181.348 22.472C181.614 21.864 182.041 21.3893 182.628 21.048C183.214 20.696 183.913 20.52 184.724 20.52ZM198.092 29.08C197.302 29.08 196.694 28.8667 196.268 28.44C195.841 28.0133 195.628 27.4107 195.628 26.632V18.744H196.764V26.568C196.764 27.0587 196.886 27.4373 197.132 27.704C197.388 27.9707 197.75 28.104 198.22 28.104C198.721 28.104 199.137 27.96 199.468 27.672L199.868 28.488C199.644 28.6907 199.372 28.84 199.052 28.936C198.742 29.032 198.422 29.08 198.092 29.08ZM194.124 21.544V20.6H199.324V21.544H194.124ZM206.224 20.52C206.906 20.52 207.504 20.6533 208.016 20.92C208.538 21.176 208.944 21.5707 209.232 22.104C209.53 22.6373 209.68 23.3093 209.68 24.12V29H208.544V24.232C208.544 23.3467 208.32 22.68 207.872 22.232C207.434 21.7733 206.816 21.544 206.016 21.544C205.418 21.544 204.896 21.6667 204.448 21.912C204.01 22.1467 203.669 22.4933 203.424 22.952C203.189 23.4 203.072 23.944 203.072 24.584V29H201.936V17.128H203.072V22.904L202.848 22.472C203.114 21.864 203.541 21.3893 204.128 21.048C204.714 20.696 205.413 20.52 206.224 20.52ZM216.316 29.08C215.441 29.08 214.673 28.8987 214.012 28.536C213.351 28.1627 212.833 27.656 212.46 27.016C212.087 26.3653 211.9 25.624 211.9 24.792C211.9 23.96 212.076 23.224 212.428 22.584C212.791 21.944 213.281 21.4427 213.9 21.08C214.529 20.7067 215.233 20.52 216.012 20.52C216.801 20.52 217.5 20.7013 218.108 21.064C218.727 21.416 219.212 21.9173 219.564 22.568C219.916 23.208 220.092 23.9493 220.092 24.792C220.092 24.8453 220.087 24.904 220.076 24.968C220.076 25.0213 220.076 25.08 220.076 25.144H212.764V24.296H219.468L219.02 24.632C219.02 24.024 218.887 23.4853 218.62 23.016C218.364 22.536 218.012 22.1627 217.564 21.896C217.116 21.6293 216.599 21.496 216.012 21.496C215.436 21.496 214.919 21.6293 214.46 21.896C214.001 22.1627 213.644 22.536 213.388 23.016C213.132 23.496 213.004 24.0453 213.004 24.664V24.84C213.004 25.48 213.143 26.0453 213.42 26.536C213.708 27.016 214.103 27.3947 214.604 27.672C215.116 27.9387 215.697 28.072 216.348 28.072C216.86 28.072 217.335 27.9813 217.772 27.8C218.22 27.6187 218.604 27.3413 218.924 26.968L219.564 27.704C219.191 28.152 218.721 28.4933 218.156 28.728C217.601 28.9627 216.988 29.08 216.316 29.08Z" fill="white"/>
<path d="M105.434 52L111.104 39.4H113.408L119.096 52H116.648L111.77 40.642H112.706L107.846 52H105.434ZM108.044 49.084L108.674 47.248H115.478L116.108 49.084H108.044ZM125.811 52.126C125.031 52.126 124.317 51.946 123.669 51.586C123.033 51.226 122.523 50.686 122.139 49.966C121.767 49.234 121.581 48.31 121.581 47.194C121.581 46.066 121.761 45.142 122.121 44.422C122.493 43.702 122.997 43.168 123.633 42.82C124.269 42.46 124.995 42.28 125.811 42.28C126.759 42.28 127.593 42.484 128.313 42.892C129.045 43.3 129.621 43.87 130.041 44.602C130.473 45.334 130.689 46.198 130.689 47.194C130.689 48.19 130.473 49.06 130.041 49.804C129.621 50.536 129.045 51.106 128.313 51.514C127.593 51.922 126.759 52.126 125.811 52.126ZM120.483 55.492V42.388H122.625V44.656L122.553 47.212L122.733 49.768V55.492H120.483ZM125.559 50.2C126.099 50.2 126.579 50.08 126.999 49.84C127.431 49.6 127.773 49.252 128.025 48.796C128.277 48.34 128.403 47.806 128.403 47.194C128.403 46.57 128.277 46.036 128.025 45.592C127.773 45.136 127.431 44.788 126.999 44.548C126.579 44.308 126.099 44.188 125.559 44.188C125.019 44.188 124.533 44.308 124.101 44.548C123.669 44.788 123.327 45.136 123.075 45.592C122.823 46.036 122.697 46.57 122.697 47.194C122.697 47.806 122.823 48.34 123.075 48.796C123.327 49.252 123.669 49.6 124.101 49.84C124.533 50.08 125.019 50.2 125.559 50.2ZM138.151 52.126C137.371 52.126 136.657 51.946 136.009 51.586C135.373 51.226 134.863 50.686 134.479 49.966C134.107 49.234 133.921 48.31 133.921 47.194C133.921 46.066 134.101 45.142 134.461 44.422C134.833 43.702 135.337 43.168 135.973 42.82C136.609 42.46 137.335 42.28 138.151 42.28C139.099 42.28 139.933 42.484 140.653 42.892C141.385 43.3 141.961 43.87 142.381 44.602C142.813 45.334 143.029 46.198 143.029 47.194C143.029 48.19 142.813 49.06 142.381 49.804C141.961 50.536 141.385 51.106 140.653 51.514C139.933 51.922 139.099 52.126 138.151 52.126ZM132.823 55.492V42.388H134.965V44.656L134.893 47.212L135.073 49.768V55.492H132.823ZM137.899 50.2C138.439 50.2 138.919 50.08 139.339 49.84C139.771 49.6 140.113 49.252 140.365 48.796C140.617 48.34 140.743 47.806 140.743 47.194C140.743 46.57 140.617 46.036 140.365 45.592C140.113 45.136 139.771 44.788 139.339 44.548C138.919 44.308 138.439 44.188 137.899 44.188C137.359 44.188 136.873 44.308 136.441 44.548C136.009 44.788 135.667 45.136 135.415 45.592C135.163 46.036 135.037 46.57 135.037 47.194C135.037 47.806 135.163 48.34 135.415 48.796C135.667 49.252 136.009 49.6 136.441 49.84C136.873 50.08 137.359 50.2 137.899 50.2ZM154.259 52.18C153.275 52.18 152.333 52.042 151.433 51.766C150.533 51.478 149.819 51.112 149.291 50.668L150.101 48.85C150.605 49.246 151.229 49.576 151.973 49.84C152.717 50.104 153.479 50.236 154.259 50.236C154.919 50.236 155.453 50.164 155.861 50.02C156.269 49.876 156.569 49.684 156.761 49.444C156.953 49.192 157.049 48.91 157.049 48.598C157.049 48.214 156.911 47.908 156.635 47.68C156.359 47.44 155.999 47.254 155.555 47.122C155.123 46.978 154.637 46.846 154.097 46.726C153.569 46.606 153.035 46.468 152.495 46.312C151.967 46.144 151.481 45.934 151.037 45.682C150.605 45.418 150.251 45.07 149.975 44.638C149.699 44.206 149.561 43.654 149.561 42.982C149.561 42.298 149.741 41.674 150.101 41.11C150.473 40.534 151.031 40.078 151.775 39.742C152.531 39.394 153.485 39.22 154.637 39.22C155.393 39.22 156.143 39.316 156.887 39.508C157.631 39.7 158.279 39.976 158.831 40.336L158.093 42.154C157.529 41.818 156.947 41.572 156.347 41.416C155.747 41.248 155.171 41.164 154.619 41.164C153.971 41.164 153.443 41.242 153.035 41.398C152.639 41.554 152.345 41.758 152.153 42.01C151.973 42.262 151.883 42.55 151.883 42.874C151.883 43.258 152.015 43.57 152.279 43.81C152.555 44.038 152.909 44.218 153.341 44.35C153.785 44.482 154.277 44.614 154.817 44.746C155.357 44.866 155.891 45.004 156.419 45.16C156.959 45.316 157.445 45.52 157.877 45.772C158.321 46.024 158.675 46.366 158.939 46.798C159.215 47.23 159.353 47.776 159.353 48.436C159.353 49.108 159.167 49.732 158.795 50.308C158.435 50.872 157.877 51.328 157.121 51.676C156.365 52.012 155.411 52.18 154.259 52.18ZM165.075 52.126C164.019 52.126 163.203 51.856 162.627 51.316C162.051 50.764 161.763 49.954 161.763 48.886V40.264H164.013V48.832C164.013 49.288 164.127 49.642 164.355 49.894C164.595 50.146 164.925 50.272 165.345 50.272C165.849 50.272 166.269 50.14 166.605 49.876L167.235 51.478C166.971 51.694 166.647 51.856 166.263 51.964C165.879 52.072 165.483 52.126 165.075 52.126ZM160.179 44.26V42.46H166.587V44.26H160.179ZM173.09 52.126C172.106 52.126 171.23 51.916 170.462 51.496C169.694 51.064 169.088 50.476 168.644 49.732C168.2 48.988 167.978 48.142 167.978 47.194C167.978 46.234 168.2 45.388 168.644 44.656C169.088 43.912 169.694 43.33 170.462 42.91C171.23 42.49 172.106 42.28 173.09 42.28C174.086 42.28 174.968 42.49 175.736 42.91C176.516 43.33 177.122 43.906 177.554 44.638C177.998 45.37 178.22 46.222 178.22 47.194C178.22 48.142 177.998 48.988 177.554 49.732C177.122 50.476 176.516 51.064 175.736 51.496C174.968 51.916 174.086 52.126 173.09 52.126ZM173.09 50.2C173.642 50.2 174.134 50.08 174.566 49.84C174.998 49.6 175.334 49.252 175.574 48.796C175.826 48.34 175.952 47.806 175.952 47.194C175.952 46.57 175.826 46.036 175.574 45.592C175.334 45.136 174.998 44.788 174.566 44.548C174.134 44.308 173.648 44.188 173.108 44.188C172.556 44.188 172.064 44.308 171.632 44.548C171.212 44.788 170.876 45.136 170.624 45.592C170.372 46.036 170.246 46.57 170.246 47.194C170.246 47.806 170.372 48.34 170.624 48.796C170.876 49.252 171.212 49.6 171.632 49.84C172.064 50.08 172.55 50.2 173.09 50.2ZM180.372 52V42.388H182.514V45.034L182.262 44.26C182.55 43.612 183 43.12 183.612 42.784C184.236 42.448 185.01 42.28 185.934 42.28V44.422C185.838 44.398 185.748 44.386 185.664 44.386C185.58 44.374 185.496 44.368 185.412 44.368C184.56 44.368 183.882 44.62 183.378 45.124C182.874 45.616 182.622 46.354 182.622 47.338V52H180.372ZM192.272 52.126C191.204 52.126 190.268 51.916 189.464 51.496C188.672 51.064 188.054 50.476 187.61 49.732C187.178 48.988 186.962 48.142 186.962 47.194C186.962 46.234 187.172 45.388 187.592 44.656C188.024 43.912 188.612 43.33 189.356 42.91C190.112 42.49 190.97 42.28 191.93 42.28C192.866 42.28 193.7 42.484 194.432 42.892C195.164 43.3 195.74 43.876 196.16 44.62C196.58 45.364 196.79 46.24 196.79 47.248C196.79 47.344 196.784 47.452 196.772 47.572C196.772 47.692 196.766 47.806 196.754 47.914H188.744V46.42H195.566L194.684 46.888C194.696 46.336 194.582 45.85 194.342 45.43C194.102 45.01 193.772 44.68 193.352 44.44C192.944 44.2 192.47 44.08 191.93 44.08C191.378 44.08 190.892 44.2 190.472 44.44C190.064 44.68 189.74 45.016 189.5 45.448C189.272 45.868 189.158 46.366 189.158 46.942V47.302C189.158 47.878 189.29 48.388 189.554 48.832C189.818 49.276 190.19 49.618 190.67 49.858C191.15 50.098 191.702 50.218 192.326 50.218C192.866 50.218 193.352 50.134 193.784 49.966C194.216 49.798 194.6 49.534 194.936 49.174L196.142 50.56C195.71 51.064 195.164 51.454 194.504 51.73C193.856 51.994 193.112 52.126 192.272 52.126Z" fill="white"/>
</svg>
