<svg width="66" height="74" viewBox="0 0 66 74" fill="none" xmlns="http://www.w3.org/2000/svg">
<path d="M51.9332 73.9606L50.7295 60.0509C55.5442 56.841 59.6902 52.2936 62.2313 46.5425C69.7209 30.2253 62.6325 10.832 46.316 3.20838C29.9995 -4.28146 10.607 2.80713 2.98368 19.1243C-4.50586 35.4414 2.58245 54.8348 18.899 62.4584C25.7198 65.6683 33.0756 66.2033 39.8964 64.5983L51.9332 73.9606Z" fill="#E9ECEF"/>
<path d="M51.9318 73.9621C51.3968 73.5609 47.5183 70.6185 39.895 64.7336L39.7613 64.5998L39.895 64.4661L40.0288 64.5998C37.7552 65.1348 35.0803 65.5361 32.2718 65.4023C29.4632 65.4023 26.2534 65.0011 23.0436 63.9311C21.4387 63.3961 19.8338 62.8611 18.2289 62.0586C17.4264 61.6574 16.624 61.2562 15.8215 60.8549C15.0191 60.3199 14.2166 59.7849 13.5479 59.3837C10.4719 57.11 7.66327 54.3013 5.38966 50.8239C3.11605 47.3465 1.37743 43.334 0.574974 38.9204C-0.227478 34.5067 -0.227478 29.8256 0.842453 25.1444C1.91239 20.4633 4.186 16.0496 7.26206 12.171C10.3381 8.29231 14.4841 4.94864 19.2988 2.94243L21.1712 2.13994C21.8399 1.87245 22.3749 1.7387 23.0436 1.47121C23.7123 1.33746 24.2473 1.06997 24.916 0.936226L26.7883 0.53498C27.4571 0.401233 28.1258 0.26749 28.6607 0.26749C29.3294 0.133743 29.9981 0.133747 30.5331 0C31.2018 0 31.8705 0 32.4055 0C33.0742 0 33.7429 0 34.2779 0C39.3601 0.267494 44.3085 1.7387 48.4545 4.14615C52.7343 6.41985 56.3453 9.62979 59.0201 13.3747C61.6949 17.1196 63.5673 21.132 64.5035 25.2782C65.4397 29.4244 65.5735 33.4368 65.1722 37.1817C64.6373 40.9266 63.4336 44.404 61.9624 47.4802C60.4913 50.4227 58.6189 53.0976 56.6128 55.1038C54.6066 57.2438 52.6005 58.8487 50.7281 60.0524V59.9187C51.5306 68.8797 51.9318 73.2934 51.9318 73.9621C51.9318 73.2934 51.5306 68.8797 50.5944 60.0524C52.4668 58.715 54.4729 57.11 56.479 55.1038C58.3514 52.9638 60.2238 50.4227 61.6949 47.4802C63.0324 44.404 64.236 41.0604 64.771 37.3154C65.306 33.5705 65.0385 29.5581 64.1023 25.5457C63.1661 21.5333 61.2937 17.5209 58.6189 13.7759C55.944 10.1648 52.333 6.95485 48.187 4.68115C44.041 2.40745 39.2263 0.93623 34.1441 0.668736C33.4754 0.534988 32.9405 0.668736 32.2718 0.668736C31.6031 0.668736 31.0681 0.668736 30.3994 0.668736C29.7307 0.802483 29.1957 0.802478 28.527 0.936226C27.8583 1.06997 27.1896 1.06997 26.6546 1.20372L24.7822 1.60496C24.1135 1.73871 23.5785 2.00619 22.9098 2.13994C22.2411 2.40744 21.7062 2.54118 21.0375 2.80868L19.2988 3.61117C14.6179 5.61737 10.6056 8.96106 7.52954 12.706C4.45348 16.5846 2.31361 20.9983 1.10993 25.5457C0.0400009 30.0931 0.0400009 34.7742 0.842453 39.1879C1.6449 43.6015 3.38355 47.4802 5.65716 50.9576C7.93077 54.4351 10.7393 57.2438 13.6817 59.3837C14.4841 59.9187 15.2866 60.4537 15.9553 60.8549C16.7577 61.2562 17.5602 61.6574 18.3626 62.0586C19.9675 62.8611 21.5724 63.5299 23.1773 63.9311C26.3871 64.8673 29.4632 65.2686 32.2718 65.4023C35.0803 65.4023 37.7552 65.1348 40.0288 64.5998L40.1625 64.7336V64.5998C47.6521 70.4847 51.3968 73.4271 51.9318 73.9621Z" fill="#E9ECEF"/>
<circle cx="3.61622" cy="3.61622" r="3.61622" transform="matrix(-1 0 0 1 49.3142 28.9297)" fill="white"/>
<circle cx="3.60007" cy="3.60007" r="3.60007" transform="matrix(-1 0 0 1 36.4565 28.9297)" fill="white"/>
<circle cx="3.60007" cy="3.60007" r="3.60007" transform="matrix(-1 0 0 1 23.6312 28.9297)" fill="white"/>
</svg>
