<svg width="444" height="553" viewBox="0 0 444 553" fill="none" xmlns="http://www.w3.org/2000/svg">
<path d="M375.458 415.526H443.076L430.912 488.156C430.435 491.376 428.05 493.762 425.187 494.596C425.068 494.596 425.068 494.596 424.949 494.716C424.71 494.716 424.591 494.835 424.353 494.835C423.876 494.954 423.399 494.954 422.922 494.954C422.922 494.954 422.922 494.954 422.922 495.074H422.564H392.392C391.796 495.074 391.319 495.074 390.722 494.954C387.145 494.358 384.283 491.496 383.925 487.799L378.081 437.709L377.843 435.681L375.458 415.884V415.526ZM388.218 461.8H395.135L394.419 440.69H386.429L388.218 461.8ZM385.714 440.81H379.035L381.54 461.919H387.502L385.714 440.81ZM405.51 485.175L405.987 466.809H395.97L396.566 485.175H405.51ZM416.363 466.928H406.703L406.226 485.294H414.931L416.363 466.928ZM415.647 485.175H423.756C424.472 480.285 425.545 473.845 426.619 466.809H417.078L415.647 485.175ZM416.72 461.8L418.39 440.69H407.299L406.822 461.8H416.72ZM406.106 461.8L406.583 440.69H395.135L395.85 461.8H406.106ZM406.703 435.681L407.18 416.123H394.3L394.896 435.681H406.703ZM407.418 435.681H418.867L420.417 416.123H407.895L407.418 435.681ZM419.463 435.681H431.508C431.985 432.938 432.343 430.434 432.701 428.168C434.012 420.297 434.489 417.315 434.728 416.242H421.014L419.463 435.681ZM419.105 440.81L417.436 461.919H427.453C427.811 459.772 428.169 457.626 428.527 455.479C429.361 450.47 430.077 445.58 430.793 440.81H419.105ZM428.05 461.8H434.609L438.186 440.69H431.389C430.435 447.25 429.242 454.525 428.05 461.8ZM427.334 466.928C426.38 473.249 425.307 479.57 424.472 485.294H430.793L433.893 466.928H427.334ZM395.97 485.175L395.373 466.809H388.695L390.245 485.175H395.97ZM394.3 435.681L393.704 416.123H384.402L386.071 435.681H394.3ZM435.324 416.242C435.086 417.673 433.774 425.306 432.224 435.801H439.021L442.241 416.242H435.324ZM384.283 485.175H389.53L387.98 466.809H382.136L384.283 485.175ZM378.439 435.681H385.237L383.567 416.123H376.173L378.439 435.681Z" fill="#E0E0E0"/>
<path d="M343.2 318.186C352.446 323.034 359.55 331.266 364.624 340.287C369.699 349.421 372.969 359.345 376.239 369.268L379.058 420.35C368.345 402.082 359.663 380.544 357.295 359.345C359.663 359.119 362.031 358.894 364.512 358.668C359.663 357.879 355.716 354.496 353.123 350.323C350.529 346.151 349.289 341.415 347.936 336.792C350.868 337.243 353.799 337.694 356.731 338.145C349.966 333.522 344.891 326.305 343.2 318.186Z" fill="#455A64"/>
<path d="M343.2 318.186C352.446 323.034 359.55 331.266 364.624 340.287C369.699 349.421 372.969 359.345 376.239 369.268L379.058 420.35C368.345 402.082 359.663 380.544 357.295 359.345C359.663 359.119 362.031 358.894 364.512 358.668C359.663 357.879 355.716 354.496 353.123 350.323C350.529 346.151 349.289 341.415 347.936 336.792C350.868 337.243 353.799 337.694 356.731 338.145C349.966 333.522 344.891 326.305 343.2 318.186Z" fill="#C97EF6"/>
<g opacity="0.3">
<g opacity="0.3">
<path opacity="0.3" d="M343.2 318.186C352.446 323.034 359.55 331.266 364.624 340.287C369.699 349.421 372.969 359.345 376.239 369.268L379.058 420.35C368.345 402.082 359.663 380.544 357.295 359.345C359.663 359.119 362.031 358.894 364.512 358.668C359.663 357.879 355.716 354.496 353.123 350.323C350.529 346.151 349.289 341.415 347.936 336.792C350.868 337.243 353.799 337.694 356.731 338.145C349.966 333.522 344.891 326.305 343.2 318.186Z" fill="black"/>
</g>
</g>
<path d="M380.749 432.302C380.749 432.302 404.09 404.336 403.865 377.611H394.393C394.393 377.611 404.654 370.845 403.865 367.124C403.076 363.403 402.737 349.081 402.737 349.081L394.055 351.224C394.055 351.224 400.482 347.954 401.384 342.879C402.173 337.805 399.467 314.012 399.467 314.012C399.467 314.012 388.981 325.063 385.711 336.452C382.441 347.728 373.984 361.034 376.464 395.54C379.058 429.934 380.749 432.302 380.749 432.302Z" fill="#C97EF6"/>
<path d="M368.91 434.896C368.91 434.896 343.539 417.981 338.014 396.556L345.569 394.526C345.569 394.526 335.871 391.368 335.646 388.098C335.42 384.941 332.601 373.326 332.601 373.326L340.044 373.213C340.044 373.213 334.18 371.973 332.376 368.139C330.572 364.192 327.527 344.571 327.527 344.571C327.527 344.571 338.352 351.112 343.426 359.569C348.501 367.914 358.198 376.709 363.723 405.013C369.361 433.204 368.91 434.896 368.91 434.896Z" fill="#C97EF6"/>
<path d="M393.153 338.37C393.153 338.37 393.153 338.483 393.04 338.708C393.04 338.934 392.928 339.159 392.815 339.61C392.589 340.4 392.364 341.528 392.026 342.881C391.687 344.347 391.349 346.038 390.898 348.181C390.447 350.21 389.996 352.578 389.545 355.172C388.53 360.359 387.515 366.561 386.388 373.44C385.373 380.318 384.245 387.986 383.343 395.993C382.441 403.999 381.764 411.667 381.201 418.658C380.637 425.65 380.299 431.852 380.073 437.152C379.96 439.745 379.848 442.226 379.848 444.256C379.735 446.398 379.735 448.203 379.735 449.669C379.735 451.135 379.735 452.262 379.735 453.051C379.735 453.39 379.735 453.728 379.735 453.954C379.735 454.179 379.735 454.292 379.735 454.292C379.735 454.292 379.735 454.179 379.735 453.954C379.735 453.728 379.735 453.39 379.735 453.051C379.735 452.262 379.848 451.135 379.848 449.669C379.848 448.203 379.96 446.398 380.073 444.256C380.186 442.113 380.299 439.745 380.411 437.152C380.637 431.852 381.088 425.65 381.652 418.658C382.215 411.667 382.892 404.112 383.907 396.105C384.809 388.099 385.824 380.544 386.951 373.553C387.966 366.674 388.981 360.472 389.996 355.285C390.447 352.691 390.898 350.323 391.349 348.293C391.687 346.264 392.138 344.459 392.364 342.993C392.589 341.527 392.815 340.4 393.04 339.61C393.153 339.272 393.153 338.934 393.153 338.708C393.153 338.483 393.153 338.37 393.153 338.37Z" fill="#263238"/>
<path d="M384.02 449.443C384.02 449.443 405.444 425.199 412.097 410.539L407.135 408.397C410.744 408.961 414.465 407.382 417.284 405.014C420.103 402.646 422.133 399.488 424.162 396.444L417.509 395.316C423.486 393.625 428.785 389.565 431.943 384.152C424.162 385.393 417.058 389.678 411.308 395.091C406.572 399.376 402.625 404.45 398.791 409.637C396.874 412.118 395.296 414.824 393.943 417.643C390.334 424.973 384.02 440.535 384.02 449.443Z" fill="#C97EF6"/>
<path d="M337.675 358.554C337.675 358.554 337.675 358.666 337.788 358.779C337.901 359.005 338.013 359.23 338.126 359.456C338.464 360.132 338.915 361.035 339.366 362.162C340.494 364.53 342.185 367.913 344.102 372.085C348.049 380.543 353.236 392.27 358.31 405.464C363.384 418.657 367.444 430.836 370.263 439.744C371.616 444.142 372.743 447.75 373.42 450.231C373.758 451.472 374.096 452.374 374.322 453.05C374.435 453.389 374.548 453.614 374.548 453.84C374.548 453.952 374.66 454.065 374.66 454.065C374.66 454.065 374.66 453.952 374.66 453.84C374.66 453.614 374.548 453.389 374.435 453.05C374.209 452.374 373.984 451.359 373.645 450.118C372.969 447.638 371.954 444.029 370.601 439.519C367.895 430.61 363.948 418.432 358.761 405.238C353.687 392.045 348.387 380.317 344.441 371.86C342.411 367.688 340.72 364.305 339.592 362.049C339.028 360.922 338.577 360.02 338.239 359.343C338.126 359.118 338.013 358.892 337.901 358.666C337.675 358.666 337.675 358.554 337.675 358.554Z" fill="#263238"/>
<path d="M382.215 459.816C382.215 459.816 382.215 459.703 382.328 459.365C382.441 459.026 382.441 458.575 382.553 458.124C382.666 456.997 383.004 455.418 383.343 453.388C383.681 451.358 384.245 449.103 385.034 446.509C385.711 443.916 386.613 441.097 387.74 438.278C388.868 435.346 389.996 432.752 391.236 430.271C392.363 427.903 393.604 425.761 394.619 423.957C395.634 422.152 396.536 420.799 397.099 419.897C397.325 419.446 397.55 419.108 397.776 418.769C397.889 418.544 398.001 418.318 398.001 418.318C398.001 418.318 397.889 418.431 397.663 418.657C397.438 418.995 397.212 419.333 396.874 419.672C396.197 420.574 395.295 421.927 394.28 423.731C393.266 425.423 392.025 427.565 390.785 429.933C389.544 432.301 388.417 435.007 387.289 437.939C386.162 440.871 385.372 443.69 384.583 446.284C383.906 448.878 383.343 451.246 383.004 453.275C382.666 455.305 382.441 456.884 382.328 458.011C382.328 458.575 382.215 458.914 382.215 459.365C382.215 459.703 382.215 459.816 382.215 459.816Z" fill="#263238"/>
<path d="M354.026 454.066H400.821V463.651H354.026V454.066Z" fill="#455A64"/>
<path d="M396.311 463.651L391.237 495.789H362.934L358.198 463.651H396.311Z" fill="#455A64"/>
<path d="M356.845 463.65C356.845 463.763 365.753 463.876 376.578 463.876C387.516 463.876 396.311 463.763 396.311 463.65C396.311 463.538 387.516 463.425 376.578 463.425C365.64 463.425 356.845 463.538 356.845 463.65Z" fill="#263238"/>
<path d="M191.711 463.275L34.2539 463.137C15.3314 463.137 0 447.805 0 428.882L0.138087 34.2553C0.138087 15.332 15.4695 0 34.392 0L191.85 0.138124C210.772 0.138124 226.103 15.4701 226.103 34.3934L225.965 429.02C225.965 447.943 210.634 463.275 191.711 463.275Z" fill="#212529"/>
<path d="M191.573 13.9512H161.048C156.904 13.9512 153.589 17.4043 153.589 21.6862V27.2113C153.589 31.4932 150.275 34.9463 146.131 34.9463H86.601C82.4574 34.9463 79.1425 31.4932 79.1425 27.2113V21.6862C79.1425 17.4043 75.8276 13.9512 71.684 13.9512H60.9105H34.2533C20.9937 13.9512 10.2203 24.725 10.2203 37.9851L10.0822 423.219C10.0822 436.479 20.8556 447.253 34.1151 447.253L191.158 447.391C204.418 447.391 215.191 436.617 215.191 423.357L215.329 38.1232C215.606 24.725 204.832 14.0893 191.573 13.9512Z" fill="white"/>
<path d="M164.364 26.5195H162.568V29.0058H164.364V26.5195Z" fill="#212529"/>
<path d="M167.264 25.4141H165.469V29.0053H167.264V25.4141Z" fill="#212529"/>
<path d="M170.026 24.5859H168.231V29.006H170.026V24.5859Z" fill="#212529"/>
<path d="M172.927 23.0664H171.131V29.0058H172.927V23.0664Z" fill="#212529"/>
<path d="M198.618 29.1441H189.916C189.502 29.1441 189.225 28.8678 189.225 28.4535V24.0334C189.225 23.619 189.502 23.3428 189.916 23.3428H198.618H198.756V23.4809V24.8622H199.723C199.861 24.8622 199.861 25.0003 199.861 25.0003V27.0722C199.861 27.2103 199.723 27.2103 199.723 27.2103H198.756V28.5916C198.756 29.006 198.618 29.1441 198.618 29.1441ZM198.48 23.7572H189.916C189.778 23.7572 189.64 23.8953 189.64 24.0334V28.4535C189.64 28.5916 189.778 28.7297 189.916 28.7297H198.48V27.3484C198.48 27.2103 198.618 27.2103 198.618 27.2103H199.585V25.4147H198.618C198.48 25.4147 198.48 25.2765 198.48 25.2765V23.7572Z" fill="#212529"/>
<path d="M190.191 28.0395V24.4482H197.65V26.1058V26.382V28.0395H190.191Z" fill="#212529"/>
<path d="M181.214 28.7297C181.214 28.3153 180.937 28.0391 180.523 28.0391C180.109 28.0391 179.832 28.3153 179.832 28.7297C179.832 29.1441 180.109 29.4203 180.523 29.4203C180.937 29.4203 181.214 29.1441 181.214 28.7297Z" fill="#212529"/>
<path d="M178.313 27.21L179.142 28.0388C179.556 27.6244 179.97 27.4863 180.523 27.4863C181.075 27.4863 181.49 27.7626 181.904 28.0388L182.733 27.21C182.18 26.6575 181.351 26.2432 180.523 26.2432C179.694 26.2432 178.865 26.6575 178.313 27.21Z" fill="#212529"/>
<path d="M180.524 24.4482C179.142 24.4482 177.899 25.0007 177.071 25.8295L177.899 26.6583C178.59 25.9676 179.557 25.5533 180.524 25.5533C181.49 25.5533 182.457 25.9676 183.148 26.6583L183.977 25.8295C183.148 25.0007 181.905 24.4482 180.524 24.4482Z" fill="#212529"/>
<path d="M175.689 24.5861L176.517 25.4149C177.484 24.448 179.004 23.7574 180.523 23.7574C182.042 23.7574 183.423 24.448 184.528 25.4149L185.357 24.5861C184.114 23.343 182.457 22.6523 180.523 22.6523C178.727 22.6523 176.932 23.343 175.689 24.5861Z" fill="#212529"/>
<path d="M16.6885 114.087C16.6885 104.794 24.222 97.2607 33.515 97.2607H67.3847C75.5249 97.2607 82.1239 103.86 82.1239 112C82.1239 120.14 75.5249 126.739 67.3847 126.739H20.4277C18.3626 126.739 16.6885 125.065 16.6885 123V114.087Z" fill="#E9ECEF"/>
<path d="M37.4337 117.568V118.825H29.4766V117.568H37.4337ZM48.0198 117.568V118.825H40.0627V117.568H48.0198ZM58.606 117.568V118.825H50.6489V117.568H58.606ZM69.1921 117.568V118.825H61.235V117.568H69.1921Z" fill="#F9F9F9"/>
<path d="M16.6885 151.566C16.6885 142.273 24.222 134.739 33.515 134.739H88.3846C96.5249 134.739 103.124 141.338 103.124 149.478C103.124 157.619 96.5249 164.218 88.3847 164.218H20.4277C18.3626 164.218 16.6885 162.544 16.6885 160.478V151.566Z" fill="#E9ECEF"/>
<path d="M37.4337 155.047V156.303H29.4766V155.047H37.4337ZM48.0198 155.047V156.303H40.0627V155.047H48.0198ZM58.606 155.047V156.303H50.6489V155.047H58.606ZM69.1921 155.047V156.303H61.235V155.047H69.1921ZM79.7782 155.047V156.303H71.8211V155.047H79.7782ZM90.3643 155.047V156.303H82.4072V155.047H90.3643Z" fill="#F9F9F9"/>
<path d="M17.012 228.289C17.012 218.996 24.5455 211.463 33.8385 211.463H108.621C117.914 211.463 125.447 218.996 125.447 228.289V246.115C125.447 255.408 117.914 262.941 108.621 262.941H20.7512C18.6861 262.941 17.012 261.267 17.012 259.202V228.289Z" fill="#E9ECEF"/>
<path d="M37.7572 231.771V233.027H29.8001V231.771H37.7572ZM48.3433 231.771V233.027H40.3862V231.771H48.3433ZM58.9294 231.771V233.027H50.9723V231.771H58.9294ZM69.5156 231.771V233.027H61.5585V231.771H69.5156ZM80.1017 231.771V233.027H72.1446V231.771H80.1017ZM90.6878 231.771V233.027H82.7307V231.771H90.6878ZM101.274 231.771V233.027H93.3169V231.771H101.274ZM111.86 231.771V233.027H103.903V231.771H111.86ZM37.7572 253.771V255.027H29.8001V253.771H37.7572Z" fill="#F9F9F9"/>
<path d="M17.012 274.941C17.012 272.732 18.8028 270.941 21.012 270.941H115.167C123.427 270.941 130.124 277.638 130.124 285.898C130.124 294.159 123.427 300.855 115.167 300.855H35.012C25.0708 300.855 17.012 292.796 17.012 282.855V274.941Z" fill="white"/>
<path d="M17.012 274.681C17.012 272.616 18.6861 270.941 20.7512 270.941H115.167C123.427 270.941 130.124 277.638 130.124 285.898C130.124 294.159 123.427 300.855 115.167 300.855H33.8385C24.5455 300.855 17.012 293.322 17.012 284.029V274.681Z" fill="#E9ECEF"/>
<path d="M102.21 147.071C102.21 138.931 108.809 132.332 116.949 132.332H161.819C171.112 132.332 178.645 139.866 178.645 149.159V158.071C178.645 160.136 176.971 161.811 174.906 161.811H116.949C108.809 161.811 102.21 155.212 102.21 147.071Z" fill="#C97EF6"/>
<path d="M122.955 152.64V153.896H114.998V152.64H122.955ZM133.541 152.64V153.896H125.584V152.64H133.541ZM144.127 152.64V153.896H136.17V152.64H144.127ZM154.714 152.64V153.896H146.756V152.64H154.714ZM165.3 152.64V153.896H157.343V152.64H165.3Z" fill="#C97EF6"/>
<path d="M135.688 322.7C135.688 314.56 142.287 307.961 150.428 307.961H195.297C204.59 307.961 212.124 315.494 212.124 324.787V333.7C212.124 335.765 210.45 337.439 208.385 337.439H150.428C142.287 337.439 135.688 330.84 135.688 322.7Z" fill="#C97EF6"/>
<path d="M156.434 328.269V329.525H148.477V328.269H156.434ZM167.02 328.269V329.525H159.063V328.269H167.02ZM177.606 328.269V329.525H169.649V328.269H177.606ZM188.192 328.269V329.525H180.235V328.269H188.192ZM198.778 328.269V329.525H190.821V328.269H198.778Z" fill="#C97EF6"/>
<path d="M114.688 360.179C114.688 352.038 121.287 345.439 129.428 345.439H208.385C210.45 345.439 212.124 347.114 212.124 349.179V371.179C212.124 373.244 210.45 374.918 208.385 374.918H129.428C121.287 374.918 114.688 368.319 114.688 360.179Z" fill="#C97EF6"/>
<path d="M135.434 365.747V367.003H127.477V365.747H135.434ZM146.02 365.747V367.003H138.063V365.747H146.02ZM156.606 365.747V367.003H148.649V365.747H156.606ZM167.192 365.747V367.003H159.235V365.747H167.192ZM177.778 365.747V367.003H169.821V365.747H177.778ZM188.364 365.747V367.003H180.407V365.747H188.364ZM198.95 365.747V367.003H190.993V365.747H198.95Z" fill="#C97EF6"/>
<path d="M114.688 397.657C114.688 389.517 121.287 382.918 129.428 382.918H208.385C210.45 382.918 212.124 384.592 212.124 386.657V395.57C212.124 404.863 204.59 412.396 195.297 412.396H129.428C121.287 412.396 114.688 405.797 114.688 397.657Z" fill="#C97EF6"/>
<path d="M135.434 403.226V404.482H127.477V403.226H135.434ZM146.02 403.226V404.482H138.063V403.226H146.02ZM156.606 403.226V404.482H148.649V403.226H156.606ZM167.192 403.226V404.482H159.235V403.226H167.192ZM177.778 403.226V404.482H169.821V403.226H177.778ZM188.364 403.226V404.482H180.407V403.226H188.364ZM198.95 403.226V404.482H190.993V403.226H198.95Z" fill="#C97EF6"/>
<path d="M251.017 303.5C252.557 302.345 254.482 301.96 256.15 301.062C257.818 300.292 259.615 298.88 259.743 296.955C260 294.132 256.92 292.079 256.663 289.255C256.407 285.277 261.796 283.095 262.566 279.245C263.208 276.037 260.513 272.957 260.641 269.62C260.77 266.283 263.593 263.845 264.876 260.893C267.956 253.834 262.31 244.851 266.545 238.434C267.7 236.766 269.368 235.482 270.78 234.071C272.191 232.659 273.474 230.734 273.346 228.681L281.303 225.087C283.998 220.981 290.029 220.852 294.521 222.649C299.012 224.446 302.991 227.526 307.739 228.681C310.049 229.194 309.664 225.857 311.974 226.371C315.054 227.012 318.775 230.606 319.674 233.429C320.572 236.638 321.213 240.103 322.368 243.183C323.652 246.648 327.245 248.958 327.63 252.679C328.015 256.915 323.652 260.38 323.652 264.615C323.652 269.235 328.657 273.213 327.117 277.577C326.218 280.015 323.395 281.298 322.368 283.737C320.957 287.073 323.652 290.795 323.523 294.389C323.267 297.982 320.315 300.677 317.492 302.73C306.712 310.944 294.649 317.874 281.816 322.366C276.298 324.291 270.395 325.703 264.491 325.189C258.588 324.676 252.685 321.852 249.605 316.847C247.038 312.484 247.167 306.324 251.017 303.5Z" fill="#212529"/>
<path d="M273.732 226.627C275.143 220.852 279.891 216.104 285.538 214.564C291.185 213.024 297.729 214.692 301.836 218.927C303.504 220.595 304.916 222.777 306.841 224.06C309.151 225.601 309.407 225.087 311.974 226.114C314.541 227.141 319.161 234.199 319.032 236.894L320.316 248.829C320.187 251.653 316.594 253.193 314.027 252.294C311.332 251.396 309.664 248.958 308.252 246.519C306.841 244.081 305.558 241.514 303.248 239.846C299.398 237.151 294.264 238.049 289.773 239.076C285.281 239.974 280.02 240.616 276.427 237.664C273.475 235.097 272.705 230.477 273.732 226.627Z" fill="#212529"/>
<path d="M271.294 243.695C271.807 235.867 276.941 226.37 284.769 227.268L308.895 233.428C311.205 233.685 313.001 235.738 313.001 238.048L310.307 296.313H310.435C310.435 296.313 300.553 317.103 284.64 312.098C281.432 311.071 284.384 303.243 283.742 299.65H283.614C283.614 299.265 283.614 298.88 283.614 298.366C283.1 294.259 283.485 290.409 283.485 290.409C283.485 285.661 283.485 283.736 283.485 283.864C283.485 283.864 273.604 282.196 271.551 269.234C270.396 262.817 270.652 252.294 271.294 243.695Z" fill="#FFBE9D"/>
<path d="M273.218 253.713C273.218 254.612 273.86 255.382 274.758 255.382C275.656 255.382 276.426 254.74 276.426 253.842C276.426 252.943 275.785 252.173 274.886 252.173C273.988 252.045 273.218 252.815 273.218 253.713Z" fill="#212529"/>
<path d="M273.475 249.217C273.731 249.474 274.886 248.447 276.683 248.575C278.48 248.575 279.763 249.474 280.02 249.217C280.148 249.089 279.891 248.704 279.378 248.319C278.865 247.934 277.838 247.549 276.683 247.549C275.528 247.549 274.63 247.934 274.116 248.319C273.603 248.704 273.475 249.089 273.475 249.217Z" fill="#212529"/>
<path d="M290.157 254.219C290.157 255.117 290.798 255.887 291.697 255.887C292.595 255.887 293.365 255.245 293.365 254.347C293.365 253.449 292.723 252.679 291.825 252.679C290.927 252.679 290.157 253.32 290.157 254.219Z" fill="#212529"/>
<path d="M291.056 249.605C291.312 249.862 292.467 248.835 294.264 248.963C296.061 248.963 297.344 249.862 297.601 249.605C297.729 249.477 297.472 249.092 296.959 248.707C296.446 248.322 295.419 247.937 294.264 247.937C293.109 247.937 292.211 248.322 291.697 248.707C291.184 249.092 291.056 249.477 291.056 249.605Z" fill="#212529"/>
<path d="M284.638 262.824C284.638 262.696 283.483 262.567 281.687 262.311C281.173 262.311 280.788 262.182 280.66 261.797C280.532 261.412 280.788 261.027 280.917 260.386C281.302 259.231 281.815 258.076 282.328 256.921C284.253 251.915 285.537 247.937 285.408 247.809C285.152 247.68 283.483 251.659 281.687 256.664C281.173 257.947 280.788 259.102 280.403 260.129C280.275 260.642 279.89 261.284 280.147 261.926C280.275 262.311 280.66 262.567 280.917 262.567C281.173 262.696 281.43 262.696 281.687 262.696C283.483 262.824 284.51 262.952 284.638 262.824Z" fill="#212529"/>
<path d="M283.355 283.999C283.355 283.999 292.082 284.641 300.68 279.379C300.68 279.379 296.445 288.234 283.484 287.079L283.355 283.999Z" fill="#EB996E"/>
<path d="M285.281 267.056C285.922 266.158 287.077 265.773 288.232 265.901C289.002 266.029 289.772 266.414 290.285 267.056C290.799 267.698 290.799 268.596 290.414 269.238C289.9 269.879 288.874 270.008 288.104 269.879C287.206 269.623 286.564 269.109 285.794 268.468C285.666 268.339 285.409 268.211 285.281 267.954C285.152 267.569 285.152 267.313 285.281 267.056Z" fill="#EB996E"/>
<path d="M289.901 263.979C289.645 263.979 289.645 265.904 287.976 267.315C286.308 268.727 284.255 268.47 284.255 268.727C284.255 268.855 284.768 269.112 285.538 269.112C286.436 269.112 287.591 268.855 288.618 268.085C289.645 267.187 290.03 266.16 290.158 265.262C290.158 264.492 290.03 263.979 289.901 263.979Z" fill="#212529"/>
<path d="M290.286 246.392C290.415 246.905 292.211 246.649 294.393 246.905C296.446 247.162 298.243 247.675 298.5 247.29C298.628 247.034 298.371 246.649 297.601 246.135C296.96 245.622 295.805 245.237 294.521 245.109C293.238 244.98 292.083 245.109 291.313 245.494C290.671 245.75 290.286 246.135 290.286 246.392Z" fill="#212529"/>
<path d="M274.245 243.962C274.501 244.347 275.785 243.962 277.325 243.962C278.864 243.833 280.019 244.218 280.404 243.833C280.533 243.577 280.276 243.192 279.763 242.807C279.249 242.422 278.351 242.165 277.325 242.165C276.298 242.165 275.4 242.55 274.886 242.935C274.245 243.32 274.116 243.833 274.245 243.962Z" fill="#212529"/>
<path d="M285.154 223.932L286.308 222.521C293.752 223.419 301.195 225.216 308.125 228.039C310.948 229.194 313.771 230.477 315.696 232.916C318.263 236.124 318.776 240.487 319.033 244.723C320.188 260.508 321.086 276.678 316.21 291.565C315.055 289.64 312.745 288.742 310.435 288.357C308.253 287.972 305.943 287.843 303.89 286.817C301.708 285.662 300.04 283.48 299.527 281.17C298.885 278.732 299.27 276.165 300.297 273.983C301.451 271.545 303.633 269.106 303.12 266.411C302.606 263.588 299.27 261.92 298.5 259.096C297.217 254.219 303.89 249.984 302.606 245.108C302.093 243.311 300.553 242.028 298.885 241.258C297.217 240.487 295.42 239.974 293.752 239.204C287.977 236.381 284.384 229.964 285.154 223.932Z" fill="#212529"/>
<path d="M219.702 322.623L234.845 346.237C234.845 346.237 233.177 349.06 229.455 348.932C225.862 348.804 220.857 339.692 220.215 337.767C219.574 335.97 220.472 334.173 219.83 332.89C219.317 331.607 219.445 328.27 219.445 328.27C219.702 328.526 216.366 324.035 219.702 322.623Z" fill="#FFBE9D"/>
<path d="M239.08 346.236L231.124 315.051C230.867 314.152 230.225 313.254 229.455 312.869L218.034 306.324C217.392 305.939 216.494 306.067 215.981 306.709C215.724 307.094 215.596 307.607 215.724 307.992L224.065 340.846L239.08 346.236Z" fill="#212529"/>
<path d="M243.059 370.492L224.708 336.611L231.637 327.628L257.432 347.263L250.63 365.872L243.059 370.492Z" fill="#8A2BE2"/>
<path d="M224.45 343.926C224.45 343.926 224.194 343.413 224.065 342.514C223.937 341.616 224.065 340.204 224.45 338.664V338.536V338.408C224.194 337.894 224.065 337.253 224.194 336.611C224.45 335.969 224.835 335.456 225.477 335.071L225.734 334.943L225.605 334.686C224.964 333.659 224.322 332.633 223.552 331.606C223.424 331.349 223.167 331.092 223.039 330.836C222.91 330.579 223.039 330.322 223.039 330.066C223.295 329.552 223.809 329.039 224.322 328.654L224.579 328.526L224.322 328.269C223.809 327.627 223.167 326.986 222.525 326.344C221.37 325.189 220.344 324.034 219.445 322.879C219.06 322.237 218.547 321.724 218.29 321.082C218.162 320.826 218.034 320.441 218.034 320.184C218.034 319.927 218.162 319.799 218.29 319.671C218.547 319.542 218.932 319.671 219.317 319.799C219.702 319.927 220.087 320.056 220.344 320.312C220.985 320.697 221.627 321.082 222.269 321.467C223.424 322.237 224.45 322.879 225.22 323.521C225.99 324.034 226.632 324.547 227.145 324.932C227.53 325.189 227.787 325.446 227.787 325.446C227.787 325.446 227.659 325.189 227.145 324.804C226.76 324.419 226.119 323.906 225.349 323.264C224.579 322.622 223.552 321.852 222.397 321.082C221.884 320.697 221.242 320.312 220.472 319.927C220.087 319.799 219.702 319.542 219.317 319.414C218.932 319.286 218.547 319.157 217.905 319.286H218.034C217.52 319.286 217.264 319.927 217.264 320.312C217.264 320.697 217.392 321.082 217.52 321.467C217.777 322.109 218.29 322.751 218.675 323.392C219.574 324.547 220.6 325.831 221.755 326.986C222.397 327.627 223.039 328.269 223.552 328.911V328.526C222.91 329.039 222.397 329.552 222.012 330.194C221.884 330.579 221.755 330.964 221.884 331.349C222.012 331.734 222.269 331.991 222.397 332.248C223.167 333.274 223.809 334.429 224.579 335.328L224.707 334.943C224.065 335.456 223.552 336.098 223.295 336.868C223.039 337.638 223.295 338.408 223.552 338.921V338.793C223.167 340.461 223.167 341.873 223.295 342.899C223.424 343.413 223.552 343.669 223.68 343.926C224.322 343.798 224.45 343.926 224.45 343.926Z" fill="#EB996E"/>
<path d="M215.981 306.71C215.981 306.71 216.237 306.967 216.879 307.352C217.521 307.737 218.419 308.25 219.574 309.02C220.729 309.662 222.14 310.56 223.552 311.33C224.322 311.715 225.092 312.228 225.99 312.742C226.76 313.255 227.659 313.64 228.429 314.282C229.07 314.923 229.455 315.822 229.584 316.72C229.84 317.619 230.097 318.517 230.225 319.415C230.61 321.084 231.124 322.624 231.38 323.907C231.765 325.19 232.022 326.217 232.279 326.987C232.535 327.757 232.664 328.142 232.664 328.014C232.664 328.014 232.664 327.629 232.535 326.859C232.407 326.089 232.15 325.062 231.894 323.779C231.637 322.495 231.252 320.955 230.867 319.287C230.61 318.389 230.482 317.49 230.225 316.592C229.969 315.693 229.712 314.667 228.814 313.897C228.044 313.127 227.145 312.742 226.247 312.228C225.477 311.715 224.579 311.33 223.809 310.945C222.269 310.175 220.985 309.405 219.702 308.635C218.547 307.993 217.649 307.48 216.879 307.223C216.366 306.838 215.981 306.71 215.981 306.71Z" fill="#495057"/>
<path d="M223.553 317.361C223.809 318.003 223.809 318.644 223.681 318.773C223.424 318.901 223.039 318.388 222.783 317.746C222.526 317.104 222.526 316.463 222.654 316.334C222.783 316.206 223.296 316.719 223.553 317.361Z" fill="white"/>
<path d="M280.661 298.495C272.704 301.319 266.159 307.222 262.566 314.922L237.927 367.283L216.752 375.882L235.36 381.272L252.043 369.08L280.661 298.495Z" fill="#8A2BE2"/>
<path d="M235.36 381.272L244.343 388.202L288.874 342.386L314.411 296.313L311.46 287.715L291.825 295.928L284.767 306.324L283.227 293.105L281.944 294.902L279.891 300.42C279.891 300.42 260.513 316.462 256.406 329.296C252.941 339.947 253.968 361.893 251.915 367.925L235.36 381.272Z" fill="#FAFAFA"/>
<path d="M319.16 295.671C319.416 296.57 338.153 304.142 339.051 310.687C339.949 317.232 325.576 368.053 325.576 368.053L302.862 388.202H244.343L262.951 353.423C266.929 345.979 272.062 339.049 277.966 333.017C283.484 327.499 290.157 320.569 293.494 316.462C297.215 311.97 312.872 291.18 312.872 291.18L319.16 295.671Z" fill="#8A2BE2"/>
<path d="M307.353 297.725C307.353 297.596 306.07 298.238 304.016 299.265C301.963 300.291 299.268 301.703 296.188 303.243C295.033 303.885 293.878 304.526 292.723 305.04L293.108 305.296C293.237 302.858 292.98 300.676 292.723 299.136C292.467 297.596 292.082 296.826 292.082 296.826C291.953 296.826 292.21 297.725 292.338 299.136C292.467 300.676 292.723 302.73 292.467 305.168V305.681L292.852 305.425C293.878 304.911 295.162 304.27 296.317 303.628C299.397 302.088 302.091 300.548 304.016 299.521C306.198 298.495 307.481 297.853 307.353 297.725Z" fill="#212529"/>
<path d="M262.31 344.054C262.31 344.054 262.695 343.541 263.208 342.514C263.85 341.487 264.62 340.076 265.646 338.407C267.699 334.942 270.394 330.065 273.603 324.804C276.811 319.542 279.634 314.793 281.816 311.328C282.842 309.66 283.741 308.248 284.382 307.222C285.024 306.195 285.281 305.682 285.281 305.682C285.281 305.682 284.896 306.195 284.254 307.093C283.612 307.992 282.714 309.403 281.559 311.072C279.378 314.408 276.298 319.157 273.218 324.419C270.009 329.68 267.314 334.557 265.39 338.151C264.491 339.947 263.721 341.359 263.208 342.386C262.566 343.412 262.31 344.054 262.31 344.054Z" fill="#212529"/>
<g opacity="0.3">
<g opacity="0.3">
<path opacity="0.3" d="M271.293 379.476C267.956 379.989 264.363 380.631 261.026 379.989C257.69 379.347 254.353 377.166 253.198 373.957C252.813 372.931 252.685 371.776 251.915 371.005C250.631 369.85 248.578 370.492 246.781 370.364C244.857 370.235 243.06 368.824 242.033 367.027C241.007 365.359 240.493 363.305 240.108 361.38C239.852 360.482 239.595 359.455 239.723 358.429C239.852 357.402 240.365 356.504 241.263 356.119C242.547 355.477 244.087 356.375 245.242 357.274C254.866 364.204 263.721 372.289 272.448 380.246" fill="black"/>
</g>
</g>
<path d="M249.476 340.718C249.476 340.718 246.139 333.018 244.343 331.991C242.546 330.965 233.691 325.703 233.691 325.703L234.846 329.938L226.12 323.906C225.093 323.136 218.805 317.489 217.778 319.799C217.008 321.339 222.013 325.575 222.783 326.473C224.452 328.783 223.938 328.526 223.938 328.526C223.938 328.526 222.142 329.681 223.04 331.221C223.938 332.89 225.478 334.815 225.478 334.815C225.478 334.815 223.04 335.713 224.452 338.793C224.452 338.793 223.81 340.461 224.195 342.772C224.58 345.082 228.815 349.573 228.815 349.573L249.989 359.712L258.459 345.21L249.476 340.718Z" fill="#FFBE9D"/>
<path d="M298.755 326.216L285.152 355.22L255.122 342.129C255.122 342.129 242.674 349.445 244.342 357.401L271.42 379.603C276.553 383.838 283.227 385.764 289.771 384.994C296.83 384.095 303.246 380.245 307.096 374.213L326.731 344.311L337.639 326.344C341.104 320.569 341.104 313.254 337.125 307.735C336.099 306.195 334.687 305.04 333.276 304.142C328.527 301.19 313.898 299.907 298.755 326.216Z" fill="#8A2BE2"/>
<path d="M232.023 327.885C231.895 328.013 233.948 329.425 236.386 330.965C238.953 332.505 241.006 333.66 241.135 333.532C241.263 333.403 239.21 331.991 236.771 330.451C234.205 328.911 232.152 327.756 232.023 327.885Z" fill="#EB996E"/>
<path d="M223.553 327.628C223.424 327.756 225.221 329.681 227.531 331.863C229.841 334.173 231.766 335.841 231.894 335.713C232.022 335.584 230.226 333.659 227.916 331.478C225.606 329.296 223.681 327.499 223.553 327.628Z" fill="#EB996E"/>
<path d="M224.708 334.174C224.579 334.302 225.478 335.457 226.504 336.741C227.659 338.024 228.686 339.051 228.814 338.922C228.942 338.794 228.044 337.639 227.018 336.356C225.863 335.072 224.836 334.046 224.708 334.174Z" fill="#EB996E"/>
<path d="M224.322 338.537C224.194 338.665 224.707 339.307 225.221 340.205C225.862 341.104 226.376 341.745 226.504 341.617C226.632 341.489 226.376 340.719 225.734 339.82C225.092 339.05 224.451 338.409 224.322 338.537Z" fill="#EB996E"/>
<path d="M276.04 382.555C276.04 382.555 276.04 382.555 275.912 382.427C275.783 382.299 275.655 382.17 275.527 382.042C275.142 381.657 274.5 381.272 273.858 380.63C272.318 379.475 270.137 377.679 267.313 375.497C261.667 371.134 253.71 364.845 244.086 357.273L244.214 357.402C244.214 355.862 244.471 354.45 245.112 352.91C245.754 351.498 246.652 350.087 247.551 348.803C249.604 346.236 252.299 344.055 255.25 342.13H254.994C259.999 344.311 265.26 346.621 270.522 348.932C275.527 351.113 280.403 353.167 285.023 355.22L285.28 355.348L285.408 355.092C289.386 347.263 293.108 339.82 296.83 333.403C298.626 330.194 300.551 327.243 302.219 324.419C304.016 321.596 305.556 319.029 307.096 316.848C310.304 312.356 313.769 309.532 316.464 308.121C317.106 307.736 317.747 307.479 318.261 307.222C318.774 306.966 319.287 306.709 319.544 306.581C319.929 306.452 320.186 306.324 320.314 306.196C320.442 306.067 320.571 306.067 320.571 306.067C320.571 306.067 318.902 306.581 316.207 307.992C314.924 308.762 313.256 309.661 311.588 311.072C309.919 312.484 308.251 314.409 306.583 316.591C304.914 318.773 303.374 321.339 301.578 324.163C299.781 326.986 297.985 329.938 296.06 333.146C292.338 339.563 288.616 347.006 284.51 354.835L284.895 354.707C280.275 352.653 275.398 350.6 270.393 348.418C265.004 346.108 259.742 343.798 254.865 341.616H254.737L254.609 341.745C251.529 343.67 248.962 345.851 246.781 348.546C245.754 349.83 244.856 351.242 244.214 352.782C243.572 354.322 243.316 355.862 243.316 357.402V357.53L243.444 357.658C253.069 365.102 261.154 371.262 266.8 375.625C269.623 377.807 271.805 379.475 273.345 380.63C274.115 381.144 274.628 381.657 275.142 381.914C275.27 382.042 275.527 382.17 275.655 382.299C276.04 382.427 276.04 382.555 276.04 382.555Z" fill="#212529"/>
<path d="M287.077 364.332C287.205 364.203 286.435 362.15 285.922 359.455C285.409 356.76 285.537 354.578 285.28 354.578C285.152 354.578 284.767 356.888 285.28 359.583C285.794 362.407 286.949 364.332 287.077 364.332Z" fill="#212529"/>
<path d="M121.53 449.417L105.745 469.181C105.745 469.181 80.3358 459.812 77.1276 463.149L114.343 495.104L140.138 465.331L121.53 449.417Z" fill="#8A2BE2"/>
<g opacity="0.6">
<g opacity="0.6">
<g opacity="0.6">
<g opacity="0.6">
<g opacity="0.6">
<path opacity="0.6" d="M118.579 477.397C119.092 478.167 118.964 479.45 118.194 480.092C117.424 480.733 116.141 480.477 115.627 479.707C115.114 478.937 115.242 477.397 116.141 476.883C117.039 476.37 118.451 476.755 118.836 477.653" fill="white"/>
</g>
</g>
</g>
</g>
</g>
<g opacity="0.6">
<g opacity="0.6">
<g opacity="0.6">
<g opacity="0.6">
<path opacity="0.6" d="M114.216 494.977L116.654 491.897L80.0801 462.38C80.0801 462.38 77.7702 461.738 77.0002 463.022L114.216 494.977Z" fill="white"/>
</g>
</g>
</g>
</g>
<path d="M105.233 468.413C105.105 468.542 105.875 469.44 106.26 470.852C106.645 472.135 106.516 473.418 106.645 473.418C106.901 473.547 107.543 472.263 107.03 470.595C106.645 468.927 105.361 468.285 105.233 468.413Z" fill="#212529"/>
<path d="M99.971 466.74C99.7144 466.869 100.356 467.895 100.228 469.179C100.228 470.462 99.7144 471.489 99.8427 471.617C99.9711 471.745 100.998 470.847 100.998 469.179C101.126 467.51 100.099 466.484 99.971 466.74Z" fill="#212529"/>
<path d="M93.8113 469.439C93.9396 469.567 94.9663 468.925 95.3513 467.514C95.7363 466.102 95.223 464.947 94.9663 465.075C94.7096 465.075 94.838 466.102 94.453 467.257C94.1963 468.412 93.5546 469.31 93.8113 469.439Z" fill="#212529"/>
<path d="M109.339 464.302C109.211 464.559 110.366 464.944 111.264 465.97C112.291 466.869 112.804 467.895 112.932 467.895C113.189 467.895 112.932 466.484 111.777 465.457C110.751 464.302 109.339 464.045 109.339 464.302Z" fill="#212529"/>
<g opacity="0.3">
<g opacity="0.3">
<g opacity="0.3">
<g opacity="0.3">
<path opacity="0.3" d="M118.322 453.271L115.499 456.865L133.978 472.393L136.673 469.313L118.322 453.271Z" fill="black"/>
</g>
</g>
</g>
</g>
<path d="M112.676 460.456C112.548 460.584 113.189 461.226 114.601 461.996C115.242 462.381 116.141 462.766 117.039 463.023C117.552 463.151 118.066 463.279 118.579 463.408C118.836 463.408 119.092 463.536 119.477 463.408C119.862 463.408 120.376 463.023 120.376 462.509C120.376 462.124 120.247 461.611 119.991 461.354C119.734 461.098 119.477 460.969 119.221 460.841C118.707 460.584 118.194 460.328 117.681 460.199C116.654 459.943 115.756 459.814 114.986 459.814C113.446 459.814 112.548 460.328 112.548 460.328C112.548 460.456 113.446 460.199 114.986 460.328C115.756 460.328 116.526 460.456 117.424 460.841C117.809 460.969 118.322 461.226 118.836 461.483C119.349 461.739 119.606 461.996 119.606 462.253C119.606 462.381 119.606 462.381 119.349 462.381C119.221 462.381 118.964 462.381 118.707 462.381C118.194 462.253 117.681 462.253 117.296 462.124C116.397 461.868 115.499 461.611 114.857 461.226C113.446 460.841 112.676 460.328 112.676 460.456Z" fill="#212529"/>
<path d="M112.676 460.838C112.676 460.966 113.575 460.581 114.73 459.426C115.243 458.913 115.756 458.143 116.269 457.116C116.526 456.603 116.654 456.09 116.783 455.576C116.911 455.063 117.039 454.293 116.398 453.651C116.013 453.266 115.5 453.395 115.115 453.523C114.73 453.651 114.601 453.908 114.345 454.036C113.96 454.421 113.575 454.806 113.318 455.32C112.805 456.218 112.548 457.116 112.42 457.886C112.291 459.426 112.933 460.325 112.933 460.325C113.061 460.325 112.676 459.426 112.933 458.015C113.061 457.373 113.318 456.475 113.831 455.705C114.088 455.32 114.473 454.935 114.73 454.678C115.115 454.293 115.5 454.165 115.628 454.293C115.756 454.421 115.885 455.063 115.756 455.448C115.628 455.961 115.499 456.475 115.371 456.86C114.986 457.758 114.601 458.4 114.088 459.041C113.318 460.196 112.548 460.71 112.676 460.838Z" fill="#212529"/>
<path d="M138.597 510.248L139.624 536.044C139.624 536.044 113.701 545.669 113.444 550.546L163.621 550.417L163.75 510.12L138.597 510.248Z" fill="#8A2BE2"/>
<g opacity="0.6">
<g opacity="0.6">
<g opacity="0.6">
<g opacity="0.6">
<g opacity="0.6">
<path opacity="0.6" d="M155.024 533.863C156.05 534.12 156.692 535.275 156.435 536.173C156.179 537.2 155.152 537.842 154.125 537.585C153.099 537.328 152.329 536.045 152.585 535.147C152.97 534.248 154.254 533.478 155.152 533.863" fill="white"/>
</g>
</g>
</g>
</g>
</g>
<g opacity="0.6">
<g opacity="0.6">
<g opacity="0.6">
<g opacity="0.6">
<path opacity="0.6" d="M163.495 550.416L163.366 546.31L115.37 547.978C115.37 547.978 113.189 549.005 113.446 550.545L163.495 550.416Z" fill="white"/>
</g>
</g>
</g>
</g>
<path d="M138.726 535.786C138.726 536.043 140.01 536.171 141.165 536.941C142.448 537.711 142.961 538.738 143.218 538.609C143.474 538.609 143.09 537.069 141.55 536.171C140.138 535.273 138.726 535.529 138.726 535.786Z" fill="#212529"/>
<path d="M133.465 537.97C133.465 538.227 134.491 538.612 135.261 539.638C136.16 540.665 136.288 541.82 136.545 541.82C136.801 541.82 136.93 540.408 135.903 539.125C135.005 537.842 133.465 537.713 133.465 537.97Z" fill="#212529"/>
<path d="M130.513 544.259C130.77 544.259 131.027 543.104 130.385 541.692C129.743 540.409 128.588 539.767 128.46 540.024C128.332 540.28 129.102 540.922 129.615 542.077C130.257 543.232 130.257 544.259 130.513 544.259Z" fill="#212529"/>
<path d="M139.24 529.885C139.368 530.141 140.523 529.756 141.806 529.885C143.218 529.885 144.245 530.398 144.373 530.141C144.501 530.013 143.475 529.115 141.806 528.986C140.266 528.986 139.111 529.756 139.24 529.885Z" fill="#212529"/>
<g opacity="0.3">
<g opacity="0.3">
<g opacity="0.3">
<g opacity="0.3">
<path opacity="0.3" d="M138.855 515.385L138.983 520.005L163.623 519.748V515.513L138.855 515.385Z" fill="black"/>
</g>
</g>
</g>
</g>
<path d="M139.11 524.749C139.11 524.877 140.137 525.006 141.677 524.749C142.447 524.621 143.345 524.364 144.244 523.979C144.757 523.722 145.142 523.466 145.655 523.209C145.912 523.081 146.169 522.952 146.425 522.567C146.682 522.311 146.81 521.669 146.554 521.284C146.297 520.899 145.784 520.771 145.527 520.771C145.142 520.771 144.885 520.771 144.629 520.899C144.115 521.027 143.602 521.284 143.089 521.412C142.19 521.797 141.292 522.439 140.779 522.952C139.624 523.979 139.239 525.006 139.367 525.006C139.495 525.134 140.009 524.364 141.164 523.466C141.805 523.081 142.447 522.567 143.345 522.182C143.73 522.054 144.244 521.797 144.757 521.797C145.27 521.669 145.784 521.669 145.912 521.926C145.912 522.054 145.912 522.054 145.912 522.182C145.784 522.311 145.527 522.439 145.399 522.567C145.014 522.824 144.5 523.081 144.115 523.337C143.217 523.722 142.447 524.107 141.677 524.236C140.009 524.492 139.11 524.621 139.11 524.749Z" fill="#212529"/>
<path d="M139.368 525.01C139.497 525.01 139.882 524.111 140.01 522.571C140.01 521.801 140.01 520.774 139.625 519.876C139.497 519.363 139.24 518.849 138.983 518.336C138.727 517.823 138.342 517.181 137.315 517.053C136.802 517.053 136.417 517.438 136.288 517.694C136.16 518.079 136.032 518.336 136.032 518.593C135.903 519.234 135.903 519.748 136.032 520.261C136.16 521.288 136.673 522.186 137.058 522.828C138.085 524.111 139.112 524.368 139.112 524.368C139.24 524.24 138.342 523.726 137.572 522.571C137.187 521.929 136.93 521.159 136.802 520.261C136.802 519.748 136.802 519.363 136.802 518.849C136.93 518.336 137.058 517.823 137.315 517.951C137.572 517.951 137.957 518.336 138.213 518.721C138.47 519.234 138.727 519.619 138.855 520.133C139.112 521.031 139.368 521.929 139.368 522.7C139.497 524.111 139.24 525.01 139.368 525.01Z" fill="#212529"/>
<path d="M164.008 388.074L114.344 454.039L137.572 474.059L161.569 442.745L164.008 388.074Z" fill="#212529"/>
<path d="M269.11 391.283C269.11 391.283 189.289 366.899 181.974 367.284C174.659 367.54 160.799 393.978 160.799 393.978L183.257 393.208C189.032 407.325 199.684 421.826 211.618 436.457L257.432 434.275L269.11 391.283Z" fill="#212529"/>
<path d="M203.79 372.031C203.79 372.16 212.003 374.727 222.141 377.807C232.279 380.887 240.621 383.197 240.621 382.94C240.621 382.812 232.407 380.245 222.269 377.165C212.131 374.213 203.918 371.903 203.79 372.031Z" fill="#212529"/>
<path d="M185.311 392.693H162.853C151.688 392.693 141.679 399.752 137.957 410.275C136.16 415.28 135.39 420.542 135.647 425.804L137.444 517.051H167.601L168.115 487.918L171.965 432.477L198.144 433.632L212.902 432.734L185.311 392.693Z" fill="#212529"/>
<path d="M184.669 392.309C184.669 392.309 184.797 392.95 185.054 394.234C185.311 395.517 185.824 397.185 186.594 399.367C187.364 401.549 188.391 403.987 189.931 406.682C191.342 409.377 193.267 412.072 195.449 414.767C199.812 420.157 204.432 424.521 207.64 427.601C209.18 429.141 210.592 430.424 211.49 431.323C212.389 432.221 212.902 432.606 212.902 432.606C212.902 432.606 212.517 432.093 211.619 431.194C210.72 430.296 209.437 429.013 207.897 427.344C204.689 424.136 200.197 419.772 195.834 414.382C191.471 408.992 188.647 403.474 186.979 399.239C186.209 397.185 185.567 395.389 185.182 394.234C184.926 392.95 184.669 392.309 184.669 392.309Z" fill="#495057"/>
<path d="M157.207 393.336C157.207 393.464 158.747 393.336 161.313 393.079C163.88 392.951 167.345 392.822 171.066 392.951C174.916 393.079 178.381 393.207 180.82 393.464C183.386 393.592 184.926 393.721 184.926 393.721C184.926 393.721 184.541 393.592 183.899 393.464C183.258 393.336 182.231 393.207 180.948 393.079C178.381 392.822 174.916 392.566 171.066 392.437C167.217 392.309 163.752 392.566 161.185 392.822C159.902 392.951 158.875 393.079 158.233 393.207C157.592 393.207 157.207 393.336 157.207 393.336Z" fill="#495057"/>
<path d="M167.729 500.368C167.729 500.368 167.729 500.111 167.857 499.598C167.857 499.084 167.986 498.314 167.986 497.416C168.114 495.491 168.242 492.667 168.371 489.331C168.627 482.529 169.141 473.16 169.782 462.894C170.424 452.627 171.194 443.258 171.707 436.456C171.964 433.12 172.221 430.425 172.349 428.5C172.349 427.601 172.477 426.831 172.477 426.318C172.477 425.805 172.477 425.548 172.477 425.548C172.477 425.548 172.477 425.805 172.349 426.318C172.221 426.831 172.221 427.601 172.092 428.5C171.836 430.425 171.579 433.12 171.322 436.456C170.681 443.258 169.782 452.498 169.141 462.894C168.499 473.289 168.114 482.657 167.986 489.331C167.857 492.667 167.857 495.362 167.857 497.416C167.857 498.314 167.857 499.084 167.857 499.598C167.729 500.111 167.729 500.368 167.729 500.368Z" fill="#212529"/>
<path d="M135.647 422.34C135.519 422.34 135.647 443.259 135.904 469.054C136.16 494.85 136.545 515.768 136.674 515.768C136.802 515.768 136.674 494.85 136.417 469.054C136.16 443.259 135.904 422.34 135.647 422.34Z" fill="#495057"/>
<path d="M160.286 418.875C160.286 419.003 163.366 419.902 166.703 421.955C170.04 424.008 172.221 426.447 172.349 426.318C172.349 426.318 171.964 425.548 171.066 424.65C170.168 423.752 168.756 422.468 167.088 421.442C165.42 420.415 163.623 419.645 162.468 419.26C161.185 419.003 160.286 418.875 160.286 418.875Z" fill="#212529"/>
<g opacity="0.3">
<g opacity="0.3">
<path opacity="0.3" d="M212.902 432.735C206.87 433.89 200.069 431.965 194.936 428.756C189.674 425.548 185.824 420.286 184.413 414.383C183.771 411.816 183.514 408.993 182.873 406.426C182.231 403.859 180.948 401.164 178.766 399.496C176.199 397.571 169.911 396.416 168.115 393.849C168.115 393.464 175.558 394.362 178.124 394.491C180.819 394.619 185.439 395.389 185.311 395.004C185.311 395.004 187.108 401.421 188.006 402.833C193.267 412.073 205.202 425.805 212.902 432.735Z" fill="black"/>
</g>
</g>
<path d="M337.382 497.161L328.912 552.73H320.442L324.549 497.418L337.382 497.161Z" fill="#212529"/>
<path d="M188.006 497.418V552.73H179.151L175.815 497.161L188.006 497.418Z" fill="#212529"/>
<path d="M338.794 325.705C338.794 325.705 350.729 326.218 354.322 331.224C360.739 339.95 357.145 347.65 357.53 350.217C357.915 352.784 337.382 497.29 337.382 497.29H328.913L175.814 498.702L168.499 480.863L172.093 432.609L213.03 432.737C213.03 432.737 229.841 384.611 244.471 381.403C254.353 379.221 277.709 379.991 291.697 380.761C298.755 381.146 305.3 377.681 309.15 371.906L338.794 325.705Z" fill="#495057"/>
<path d="M203.148 491.514C203.148 491.514 204.047 491.643 205.587 491.643C207.255 491.643 209.565 491.771 212.773 491.771C218.933 491.899 228.045 491.899 239.209 491.899C261.667 491.899 292.98 491.643 328.271 491.386H328.527V491.129C329.169 488.049 329.811 484.969 330.452 481.889C331.094 478.681 331.736 475.473 332.377 472.264C340.077 433.122 344.569 397.188 347.007 371.136C348.162 358.174 348.932 347.522 349.445 340.207C349.702 336.613 349.83 333.79 349.959 331.865C349.959 330.966 350.087 330.196 350.087 329.683C350.087 329.17 350.087 328.913 350.087 328.913C350.087 328.913 350.087 329.17 349.959 329.683C349.959 330.196 349.83 330.966 349.83 331.865C349.702 333.79 349.445 336.613 349.317 340.207C348.804 347.522 348.034 358.045 346.75 371.007C344.184 397.059 339.692 432.865 331.992 472.007C331.351 475.216 330.709 478.424 330.067 481.633C329.426 484.841 328.784 487.921 328.142 490.873L328.399 490.616C292.98 490.873 261.795 491.129 239.338 491.258C228.173 491.258 219.19 491.258 212.902 491.386C209.822 491.386 207.383 491.386 205.715 491.386C204.945 491.386 204.303 491.386 203.918 491.258C203.405 491.514 203.148 491.514 203.148 491.514Z" fill="#212529"/>
<path d="M204.817 498.316C204.817 498.316 204.817 498.059 204.817 497.674C204.689 497.161 204.689 496.519 204.56 495.749C204.432 494.851 204.304 493.824 204.175 492.669C204.047 491.514 203.79 490.103 203.662 488.562C203.534 487.022 203.405 485.354 203.277 483.557C203.149 481.761 203.149 479.836 203.149 477.782C203.149 473.804 203.405 469.312 203.919 464.692C204.432 460.072 205.33 455.709 206.229 451.73C207.127 447.752 208.154 444.287 209.052 441.335C209.437 439.923 209.95 438.64 210.335 437.485C210.72 436.33 211.105 435.303 211.362 434.533C211.618 433.763 211.875 433.121 212.003 432.736C212.132 432.351 212.26 432.095 212.26 432.095C212.26 432.095 212.132 432.351 212.003 432.736C211.747 433.25 211.49 433.763 211.233 434.533C210.848 435.303 210.464 436.33 210.079 437.485C209.694 438.64 209.18 439.923 208.667 441.335C207.64 444.287 206.614 447.752 205.715 451.73C204.817 455.709 203.919 460.072 203.405 464.692C202.892 469.312 202.635 473.804 202.635 477.911C202.635 479.964 202.635 481.889 202.892 483.686C203.02 485.482 203.149 487.151 203.277 488.691C203.405 490.231 203.662 491.643 203.79 492.798C203.919 493.953 204.175 494.979 204.304 495.878C204.432 496.648 204.56 497.289 204.689 497.803C204.689 498.188 204.817 498.316 204.817 498.316Z" fill="#212529"/>
<path d="M316.978 394.877C316.978 394.877 316.721 394.62 316.336 394.364C315.823 393.979 315.31 393.594 314.54 392.952C314.155 392.695 313.641 392.31 313.256 391.925C312.743 391.54 312.101 391.284 311.588 390.899C310.305 390.129 309.021 389.23 307.353 388.46C306.583 388.075 305.685 387.69 304.786 387.177C303.888 386.792 302.862 386.407 301.963 386.022C300.937 385.637 299.91 385.252 298.883 384.867C297.857 384.482 296.702 384.225 295.547 383.84C290.927 382.557 285.794 381.274 280.404 380.632C274.885 379.99 269.624 379.605 264.876 379.734C262.437 379.734 260.256 379.862 258.074 379.99C256.021 380.247 253.968 380.375 252.171 380.632C248.578 381.145 245.754 381.659 243.829 382.172C242.931 382.429 242.161 382.685 241.648 382.814C241.135 382.942 240.878 383.07 240.878 383.07C240.878 383.07 241.135 383.07 241.648 382.942C242.161 382.814 242.931 382.685 243.958 382.429C245.883 382.044 248.834 381.53 252.299 381.017C254.096 380.76 256.021 380.632 258.203 380.504C260.256 380.504 262.566 380.247 265.004 380.375C269.752 380.375 275.014 380.632 280.404 381.402C285.794 382.044 290.927 383.199 295.547 384.482C296.702 384.867 297.728 385.124 298.883 385.509C299.91 385.894 300.937 386.279 301.963 386.664C302.99 387.049 303.888 387.305 304.786 387.819C305.685 388.204 306.583 388.589 307.353 388.974C309.021 389.744 310.433 390.514 311.588 391.284C312.23 391.669 312.743 391.925 313.256 392.31C313.77 392.695 314.155 392.952 314.668 393.337C315.438 393.85 316.08 394.364 316.593 394.621C316.721 394.749 316.978 394.877 316.978 394.877Z" fill="#212529"/>
<path d="M225.992 402.706C225.992 402.706 225.992 402.834 226.12 403.091C226.248 403.347 226.248 403.732 226.505 404.117C226.89 405.016 227.532 406.299 228.815 407.711C229.97 409.122 231.767 410.662 234.077 411.817C235.232 412.459 236.515 412.972 237.926 413.486C239.338 413.871 240.878 414.256 242.546 414.384C245.883 414.769 249.476 414.512 253.326 413.742C257.176 413.101 261.154 411.946 265.389 410.919C269.624 409.892 274.116 408.994 278.864 409.122C281.174 409.122 283.612 409.507 285.922 410.149C288.232 410.791 290.414 411.946 292.467 413.486C296.445 416.438 299.525 420.416 301.963 424.394C304.53 428.373 306.455 432.48 308.637 436.33C310.69 440.18 313 443.645 315.566 446.596C318.133 449.548 320.956 451.858 324.036 453.27C327.116 454.682 330.068 455.323 332.763 455.323C335.458 455.323 337.639 454.81 339.308 454.04C340.206 453.655 340.848 453.27 341.489 452.885C342.003 452.5 342.516 452.115 342.901 451.73C343.158 451.345 343.414 451.088 343.671 450.96C343.799 450.832 343.927 450.703 343.927 450.703C343.927 450.703 343.799 450.832 343.671 450.96C343.414 451.088 343.158 451.345 342.901 451.73C342.516 451.987 342.003 452.372 341.489 452.757C340.848 453.142 340.206 453.527 339.308 453.912C337.639 454.553 335.458 455.067 332.763 455.067C330.196 455.067 327.245 454.297 324.293 453.013C321.341 451.602 318.518 449.292 316.08 446.34C313.513 443.388 311.332 439.923 309.278 436.073C307.225 432.223 305.172 428.116 302.605 424.138C300.038 420.159 297.087 416.053 292.852 413.101C290.799 411.561 288.489 410.406 286.179 409.764C283.869 408.994 281.431 408.737 278.992 408.609C274.244 408.481 269.624 409.379 265.389 410.406C261.154 411.432 257.176 412.587 253.326 413.229C249.476 413.999 245.883 414.256 242.675 413.871C241.006 413.742 239.466 413.357 238.055 412.972C236.643 412.587 235.36 411.946 234.205 411.432C231.895 410.277 230.098 408.737 228.943 407.454C226.505 404.759 226.12 402.577 225.992 402.706Z" fill="white"/>
<path d="M170.039 473.033C170.039 473.033 170.167 473.033 170.552 473.162C170.937 473.29 171.322 473.29 171.964 473.418C172.606 473.547 173.376 473.803 174.146 474.06C174.659 474.188 175.044 474.445 175.557 474.702C176.071 474.958 176.584 475.087 177.097 475.472C179.279 476.627 181.589 478.423 184.155 480.733C186.722 483.043 189.417 485.867 192.754 488.69C194.422 490.102 196.218 491.385 198.4 492.54C199.427 493.182 200.582 493.567 201.737 493.952C202.378 494.08 202.892 494.337 203.533 494.465C204.175 494.594 204.817 494.722 205.458 494.85C208.025 495.235 210.72 494.979 213.415 494.465C216.11 493.952 218.676 492.797 221.243 491.514C226.376 488.947 231.253 485.225 235.873 480.99C240.493 476.755 245.241 472.392 250.759 468.798C253.454 467.001 256.406 465.461 259.485 464.435C262.565 463.408 265.645 463.023 268.725 463.151C271.805 463.28 274.757 464.178 277.58 465.205C280.275 466.36 282.842 467.771 285.28 469.312C290.156 472.263 294.52 475.472 299.011 478.038C303.503 480.477 307.994 482.145 312.229 483.172C320.699 485.225 327.886 484.969 332.634 484.455C337.51 483.814 340.077 482.915 340.077 482.915C340.077 482.915 339.949 482.915 339.564 483.043C339.179 483.172 338.794 483.172 338.152 483.3C336.869 483.557 335.072 483.942 332.634 484.199C327.886 484.712 320.699 484.969 312.358 482.787C308.123 481.76 303.759 480.092 299.268 477.653C294.776 475.215 290.413 472.007 285.537 468.927C283.098 467.386 280.532 465.975 277.708 464.82C274.885 463.665 271.934 462.895 268.725 462.638C265.517 462.51 262.309 462.895 259.229 463.921C256.149 464.948 253.197 466.488 250.374 468.285C244.856 472.007 240.108 476.37 235.488 480.605C230.868 484.84 226.119 488.434 220.986 491.129C218.42 492.412 215.853 493.439 213.286 494.08C210.72 494.722 208.025 494.85 205.587 494.465C204.945 494.337 204.303 494.337 203.79 494.209C203.148 494.08 202.635 493.952 201.993 493.695C200.838 493.31 199.683 492.925 198.657 492.284C196.603 491.257 194.678 489.845 193.01 488.562C189.674 485.867 186.979 483.043 184.284 480.733C181.717 478.423 179.279 476.627 177.226 475.472C176.712 475.087 176.199 474.958 175.686 474.702C175.172 474.445 174.787 474.188 174.274 474.06C173.376 473.803 172.606 473.547 171.964 473.418C171.322 473.29 170.937 473.29 170.552 473.162C170.296 473.033 170.039 473.033 170.039 473.033Z" fill="white"/>
<path d="M323.137 352.911C323.137 352.911 323.137 353.424 323.394 354.323C323.65 355.221 324.164 356.505 324.805 357.916C326.345 360.868 329.297 364.59 333.788 366.9C338.28 369.21 343.028 369.595 346.237 369.081C347.905 368.825 349.188 368.568 350.086 368.183C350.985 367.926 351.37 367.67 351.37 367.67C351.37 367.541 349.445 368.311 346.237 368.696C343.028 369.081 338.408 368.696 334.045 366.386C329.682 364.076 326.73 360.483 325.19 357.788C323.65 354.836 323.265 352.911 323.137 352.911Z" fill="white"/>
</svg>
