<svg width="344" height="311" viewBox="0 0 344 311" fill="none" xmlns="http://www.w3.org/2000/svg">
<path d="M301.633 209.303H351.393L342.441 262.751C342.09 265.12 340.335 266.876 338.229 267.49C338.141 267.49 338.141 267.49 338.053 267.578C337.878 267.578 337.79 267.666 337.614 267.666C337.263 267.753 336.912 267.753 336.561 267.753C336.561 267.753 336.561 267.753 336.561 267.841H336.298H314.095C313.656 267.841 313.305 267.841 312.866 267.753C310.233 267.315 308.127 265.208 307.864 262.488L303.563 225.627L303.388 224.135L301.633 209.566V209.303ZM311.023 243.355H316.113L315.586 227.821H309.707L311.023 243.355ZM309.18 227.909H304.265L306.108 243.443H310.496L309.18 227.909ZM323.748 260.557L324.099 247.041H316.727L317.166 260.557H323.748ZM331.734 247.129H324.626L324.275 260.644H330.681L331.734 247.129ZM331.208 260.557H337.175C337.702 256.958 338.492 252.219 339.282 247.041H332.261L331.208 260.557ZM331.998 243.355L333.226 227.821H325.065L324.713 243.355H331.998ZM324.187 243.355L324.538 227.821H316.113L316.64 243.355H324.187ZM324.626 224.135L324.977 209.742H315.499L315.937 224.135H324.626ZM325.152 224.135H333.577L334.718 209.742H325.503L325.152 224.135ZM334.016 224.135H342.88C343.231 222.116 343.494 220.273 343.757 218.606C344.723 212.813 345.074 210.619 345.249 209.829H335.157L334.016 224.135ZM333.753 227.909L332.524 243.443H339.896C340.159 241.863 340.423 240.283 340.686 238.704C341.3 235.017 341.827 231.419 342.353 227.909H333.753ZM340.335 243.355H345.162L347.794 227.821H342.792C342.09 232.648 341.212 238.001 340.335 243.355ZM339.808 247.129C339.106 251.78 338.316 256.432 337.702 260.644H342.353L344.635 247.129H339.808ZM316.727 260.557L316.289 247.041H311.374L312.515 260.557H316.727ZM315.499 224.135L315.06 209.742H308.215L309.443 224.135H315.499ZM345.688 209.829C345.513 210.882 344.547 216.499 343.406 224.223H348.409L350.778 209.829H345.688ZM308.127 260.557H311.988L310.847 247.041H306.547L308.127 260.557ZM303.827 224.135H308.829L307.6 209.742H302.159L303.827 224.135Z" fill="#E0E0E0"/>
<path d="M277.894 137.671C284.699 141.239 289.926 147.297 293.66 153.936C297.394 160.657 299.801 167.96 302.207 175.262L304.282 212.853C296.399 199.41 290.009 183.56 288.267 167.96C290.009 167.794 291.752 167.628 293.577 167.462C290.009 166.881 287.105 164.391 285.196 161.321C283.288 158.251 282.375 154.765 281.379 151.363C283.537 151.695 285.694 152.027 287.852 152.359C282.873 148.957 279.139 143.646 277.894 137.671Z" fill="#455A64"/>
<path d="M277.894 137.671C284.699 141.239 289.926 147.297 293.66 153.936C297.394 160.657 299.801 167.96 302.207 175.262L304.282 212.853C296.399 199.41 290.009 183.56 288.267 167.96C290.009 167.794 291.752 167.628 293.577 167.462C290.009 166.881 287.105 164.391 285.196 161.321C283.288 158.251 282.375 154.765 281.379 151.363C283.537 151.695 285.694 152.027 287.852 152.359C282.873 148.957 279.139 143.646 277.894 137.671Z" fill="#C97EF6"/>
<g opacity="0.3">
<g opacity="0.3">
<path opacity="0.3" d="M277.894 137.671C284.699 141.239 289.926 147.297 293.66 153.936C297.394 160.657 299.801 167.96 302.207 175.262L304.282 212.853C296.399 199.41 290.009 183.56 288.267 167.96C290.009 167.794 291.752 167.628 293.577 167.462C290.009 166.881 287.105 164.391 285.196 161.321C283.288 158.251 282.375 154.765 281.379 151.363C283.537 151.695 285.694 152.027 287.852 152.359C282.873 148.957 279.139 143.646 277.894 137.671Z" fill="black"/>
</g>
</g>
<path d="M305.527 221.648C305.527 221.648 322.703 201.068 322.537 181.401H315.567C315.567 181.401 323.118 176.422 322.537 173.684C321.957 170.945 321.708 160.406 321.708 160.406L315.318 161.983C315.318 161.983 320.048 159.576 320.712 155.842C321.293 152.108 319.301 134.599 319.301 134.599C319.301 134.599 311.584 142.731 309.178 151.112C306.771 159.41 300.548 169.202 302.373 194.595C304.282 219.905 305.527 221.648 305.527 221.648Z" fill="#C97EF6"/>
<path d="M296.814 223.556C296.814 223.556 278.144 211.109 274.078 195.342L279.638 193.848C279.638 193.848 272.502 191.525 272.336 189.118C272.17 186.795 270.095 178.248 270.095 178.248L275.572 178.165C275.572 178.165 271.257 177.252 269.929 174.43C268.601 171.526 266.361 157.087 266.361 157.087C266.361 157.087 274.327 161.9 278.061 168.124C281.795 174.264 288.931 180.737 292.997 201.566C297.146 222.311 296.814 223.556 296.814 223.556Z" fill="#C97EF6"/>
<path d="M314.654 152.523C314.654 152.523 314.654 152.606 314.571 152.772C314.571 152.938 314.488 153.104 314.405 153.436C314.239 154.017 314.073 154.847 313.825 155.843C313.576 156.922 313.327 158.166 312.995 159.743C312.663 161.237 312.331 162.979 311.999 164.888C311.252 168.705 310.505 173.269 309.676 178.331C308.929 183.393 308.099 189.036 307.435 194.928C306.771 200.819 306.273 206.462 305.858 211.607C305.444 216.752 305.195 221.316 305.029 225.216C304.946 227.125 304.863 228.951 304.863 230.444C304.78 232.021 304.78 233.349 304.78 234.427C304.78 235.506 304.78 236.336 304.78 236.917C304.78 237.166 304.78 237.415 304.78 237.581C304.78 237.747 304.78 237.83 304.78 237.83C304.78 237.83 304.78 237.747 304.78 237.581C304.78 237.415 304.78 237.166 304.78 236.917C304.78 236.336 304.863 235.506 304.863 234.427C304.863 233.349 304.946 232.021 305.029 230.444C305.112 228.868 305.195 227.125 305.278 225.216C305.444 221.316 305.775 216.752 306.19 211.607C306.605 206.462 307.103 200.902 307.85 195.011C308.514 189.119 309.261 183.559 310.09 178.414C310.837 173.352 311.584 168.788 312.331 164.971C312.663 163.062 312.995 161.32 313.327 159.826C313.576 158.332 313.907 157.004 314.073 155.926C314.239 154.847 314.405 154.017 314.571 153.436C314.654 153.187 314.654 152.938 314.654 152.772C314.654 152.606 314.654 152.523 314.654 152.523Z" fill="#263238"/>
<path d="M307.933 234.262C307.933 234.262 323.7 216.421 328.595 205.633L324.944 204.056C327.6 204.471 330.338 203.309 332.412 201.567C334.487 199.824 335.98 197.501 337.474 195.26L332.578 194.43C336.976 193.185 340.876 190.198 343.2 186.215C337.474 187.128 332.246 190.281 328.014 194.264C324.529 197.418 321.625 201.152 318.804 204.969C317.393 206.795 316.231 208.786 315.236 210.861C312.58 216.255 307.933 227.706 307.933 234.262Z" fill="#C97EF6"/>
<path d="M273.829 167.377C273.829 167.377 273.829 167.46 273.912 167.543C273.995 167.709 274.078 167.875 274.161 168.041C274.41 168.539 274.741 169.203 275.073 170.032C275.903 171.775 277.148 174.265 278.558 177.335C281.463 183.559 285.28 192.189 289.014 201.898C292.748 211.607 295.735 220.569 297.81 227.125C298.805 230.361 299.635 233.016 300.133 234.842C300.382 235.755 300.631 236.419 300.797 236.917C300.88 237.165 300.963 237.331 300.963 237.497C300.963 237.58 301.046 237.663 301.046 237.663C301.046 237.663 301.046 237.58 301.046 237.497C301.046 237.331 300.963 237.165 300.88 236.917C300.714 236.419 300.548 235.672 300.299 234.759C299.801 232.933 299.054 230.278 298.059 226.959C296.067 220.403 293.163 211.441 289.346 201.732C285.612 192.023 281.712 183.393 278.807 177.169C277.314 174.099 276.069 171.609 275.239 169.949C274.824 169.12 274.492 168.456 274.244 167.958C274.161 167.792 274.078 167.626 273.995 167.46C273.829 167.46 273.829 167.377 273.829 167.377Z" fill="#263238"/>
<path d="M306.606 241.895C306.606 241.895 306.606 241.812 306.689 241.563C306.771 241.314 306.771 240.982 306.854 240.65C306.937 239.821 307.186 238.659 307.435 237.165C307.684 235.671 308.099 234.012 308.68 232.103C309.178 230.195 309.842 228.12 310.672 226.045C311.501 223.888 312.331 221.979 313.244 220.154C314.074 218.411 314.986 216.834 315.733 215.507C316.48 214.179 317.144 213.183 317.559 212.519C317.725 212.187 317.891 211.938 318.057 211.689C318.14 211.523 318.223 211.357 318.223 211.357C318.223 211.357 318.14 211.44 317.974 211.606C317.808 211.855 317.642 212.104 317.393 212.353C316.895 213.017 316.231 214.013 315.484 215.341C314.738 216.585 313.825 218.162 312.912 219.905C311.999 221.647 311.169 223.639 310.34 225.796C309.51 227.954 308.929 230.029 308.348 231.937C307.85 233.846 307.435 235.588 307.186 237.082C306.937 238.576 306.771 239.738 306.689 240.567C306.689 240.982 306.606 241.231 306.606 241.563C306.606 241.812 306.606 241.895 306.606 241.895Z" fill="#263238"/>
<path d="M285.861 237.665H320.297V244.719H285.861V237.665Z" fill="#455A64"/>
<path d="M316.979 244.718L313.244 268.368H292.417L288.931 244.718H316.979Z" fill="#455A64"/>
<path d="M287.935 244.718C287.935 244.801 294.491 244.884 302.457 244.884C310.506 244.884 316.978 244.801 316.978 244.718C316.978 244.635 310.506 244.552 302.457 244.552C294.408 244.552 287.935 244.635 287.935 244.718Z" fill="#263238"/>
<path d="M118.617 286.642L21.1934 286.556C9.48547 286.556 -0.000488281 277.07 -0.000488281 265.361L0.08495 21.1947C0.08495 9.48634 9.57093 0 21.2788 0L118.702 0.0854613C130.41 0.0854613 139.896 9.57181 139.896 21.2802L139.811 265.447C139.811 277.155 130.325 286.642 118.617 286.642Z" fill="#212529"/>
<path d="M118.532 8.62891H99.6456C97.0818 8.62891 95.0308 10.7655 95.0308 13.4148V16.8333C95.0308 19.4827 92.9798 21.6192 90.416 21.6192H53.5831C51.0194 21.6192 48.9683 19.4827 48.9683 16.8333V13.4148C48.9683 10.7655 46.9173 8.62891 44.3536 8.62891H37.6877H21.1941C12.99 8.62891 6.32423 15.295 6.32423 23.4994L6.23877 261.855C6.23877 270.059 12.9046 276.725 21.1087 276.725L118.276 276.81C126.48 276.81 133.146 270.144 133.146 261.94L133.231 23.5849C133.402 15.295 126.736 8.71437 118.532 8.62891Z" fill="white"/>
<path d="M101.695 16.4043H100.584V17.9426H101.695V16.4043Z" fill="#212529"/>
<path d="M103.49 15.7207H102.379V17.9427H103.49V15.7207Z" fill="#212529"/>
<path d="M105.2 15.207H104.089V17.9418H105.2V15.207Z" fill="#212529"/>
<path d="M106.995 14.2686H105.884V17.9434H106.995V14.2686Z" fill="#212529"/>
<path d="M122.89 18.0289H117.506C117.25 18.0289 117.079 17.858 117.079 17.6016V14.8668C117.079 14.6104 117.25 14.4395 117.506 14.4395H122.89H122.976V14.5249V15.3795H123.574C123.659 15.3795 123.659 15.465 123.659 15.465V16.7469C123.659 16.8324 123.574 16.8324 123.574 16.8324H122.976V17.687C122.976 17.9434 122.89 18.0289 122.89 18.0289ZM122.805 14.6958H117.506C117.421 14.6958 117.335 14.7813 117.335 14.8668V17.6016C117.335 17.687 117.421 17.7725 117.506 17.7725H122.805V16.9179C122.805 16.8324 122.89 16.8324 122.89 16.8324H123.489V15.7214H122.89C122.805 15.7214 122.805 15.6359 122.805 15.6359V14.6958Z" fill="#212529"/>
<path d="M117.677 17.3461V15.124H122.292V16.1496V16.3205V17.3461H117.677Z" fill="#212529"/>
<path d="M112.122 17.774C112.122 17.5176 111.951 17.3467 111.695 17.3467C111.438 17.3467 111.268 17.5176 111.268 17.774C111.268 18.0304 111.438 18.2013 111.695 18.2013C111.951 18.2013 112.122 18.0304 112.122 17.774Z" fill="#212529"/>
<path d="M110.328 16.8316L110.841 17.3444C111.097 17.088 111.354 17.0026 111.695 17.0026C112.037 17.0026 112.294 17.1735 112.55 17.3444L113.063 16.8316C112.721 16.4898 112.208 16.2334 111.695 16.2334C111.183 16.2334 110.67 16.4898 110.328 16.8316Z" fill="#212529"/>
<path d="M111.696 15.125C110.841 15.125 110.072 15.4668 109.56 15.9796L110.072 16.4924C110.5 16.0651 111.098 15.8087 111.696 15.8087C112.294 15.8087 112.892 16.0651 113.32 16.4924L113.833 15.9796C113.32 15.4668 112.551 15.125 111.696 15.125Z" fill="#212529"/>
<path d="M108.705 15.2111L109.217 15.7239C109.816 15.1257 110.756 14.6983 111.696 14.6983C112.636 14.6983 113.49 15.1257 114.174 15.7239L114.687 15.2111C113.918 14.442 112.892 14.0146 111.696 14.0146C110.585 14.0146 109.474 14.442 108.705 15.2111Z" fill="#212529"/>
<path d="M13 144.827C13 135.534 20.5335 128 29.8266 128H100C106.075 128 111 132.925 111 139C111 145.075 106.075 150 100 150H16.7392C14.6741 150 13 148.326 13 146.261V144.827Z" fill="#E9ECEF"/>
<path d="M28.5276 144.568V145.825H20.5705V144.568H28.5276ZM39.1137 144.568V145.825H31.1566V144.568H39.1137ZM49.6998 144.568V145.825H41.7427V144.568H49.6998ZM60.286 144.568V145.825H52.3289V144.568H60.286ZM70.8721 144.568V145.825H62.915V144.568H70.8721ZM81.4582 144.568V145.825H73.5011V144.568H81.4582ZM92.0443 144.568V145.825H84.0872V144.568H92.0443ZM102.63 144.568V145.825H94.6734V144.568H102.63Z" fill="#F9F9F9"/>
<path d="M13 158C13 158 13 158 13 158C13.0001 158 13.0001 158 13.0001 158V183C13.0001 183 13.0001 183 13 183C13 183 13 183 13 183V158Z" fill="white"/>
<path d="M13 161.739C13 159.674 14.6741 158 16.7392 158H99.5C106.404 158 112 163.596 112 170.5C112 177.404 106.404 183 99.5 183H29.8266C20.5335 183 13 175.466 13 166.173V161.739Z" fill="#E9ECEF"/>
<path d="M13 54.8266C13 45.5335 20.5335 38 29.8266 38H57C63.0751 38 68 42.9249 68 49C68 55.0751 63.0751 60 57 60H16.7392C14.6741 60 13 58.3259 13 56.2608V54.8266Z" fill="#E9ECEF"/>
<path d="M28.5276 54.5684V55.8247H20.5705V54.5684H28.5276ZM39.1137 54.5684V55.8247H31.1566V54.5684H39.1137ZM49.6998 54.5684V55.8247H41.7427V54.5684H49.6998ZM60.286 54.5684V55.8247H52.3289V54.5684H60.286Z" fill="#F9F9F9"/>
<path d="M13 84.8266C13 75.5335 20.5335 68 29.8266 68H78C84.0751 68 89 72.9249 89 79C89 85.0751 84.0751 90 78 90H16.7392C14.6741 90 13 88.3259 13 86.2608V84.8266Z" fill="#E9ECEF"/>
<path d="M28.5276 84.5684V85.8247H20.5705V84.5684H28.5276ZM39.1137 84.5684V85.8247H31.1566V84.5684H39.1137ZM49.6998 84.5684V85.8247H41.7427V84.5684H49.6998ZM60.286 84.5684V85.8247H52.3289V84.5684H60.286ZM70.8721 84.5684V85.8247H62.915V84.5684H70.8721ZM81.4582 84.5684V85.8247H73.5011V84.5684H81.4582Z" fill="#F9F9F9"/>
<path d="M61 109C61 102.925 65.9249 98 72 98H110.173C119.466 98 127 105.534 127 114.827V116.261C127 118.326 125.326 120 123.261 120H72C65.9249 120 61 115.075 61 109Z" fill="#C97EF6"/>
<path d="M76.5276 114.568V115.825H68.5705V114.568H76.5276ZM87.1137 114.568V115.825H79.1566V114.568H87.1137ZM97.6998 114.568V115.825H89.7427V114.568H97.6998ZM108.286 114.568V115.825H100.329V114.568H108.286ZM118.872 114.568V115.825H110.915V114.568H118.872Z" fill="#C97EF6"/>
<path d="M41 229.479C41 223.403 45.9249 218.479 52 218.479H124.261C126.326 218.479 128 220.153 128 222.218V236.739C128 238.804 126.326 240.479 124.261 240.479H52C45.9249 240.479 41 235.554 41 229.479Z" fill="#C97EF6"/>
<path d="M56.5276 235.047V236.303H48.5705V235.047H56.5276ZM67.1137 235.047V236.303H59.1566V235.047H67.1137ZM77.6998 235.047V236.303H69.7427V235.047H77.6998ZM88.286 235.047V236.303H80.3289V235.047H88.286ZM98.8721 235.047V236.303H90.915V235.047H98.8721ZM109.458 235.047V236.303H101.501V235.047H109.458ZM120.044 235.047V236.303H112.087V235.047H120.044Z" fill="#C97EF6"/>
<path d="M42 259C42 252.925 46.9249 248 53 248H125.261C127.326 248 129 249.674 129 251.739V253.173C129 262.466 121.466 270 112.173 270H53C46.9249 270 42 265.075 42 259Z" fill="#C97EF6"/>
<path d="M57.5276 264.568V265.825H49.5705V264.568H57.5276ZM68.1137 264.568V265.825H60.1566V264.568H68.1137ZM78.6998 264.568V265.825H70.7427V264.568H78.6998ZM89.286 264.568V265.825H81.3289V264.568H89.286ZM99.8721 264.568V265.825H91.915V264.568H99.8721ZM110.458 264.568V265.825H102.501V264.568H110.458ZM121.044 264.568V265.825H113.087V264.568H121.044Z" fill="#C97EF6"/>
<path d="M61 200C61 193.925 65.9249 189 72 189H110.173C119.466 189 127 196.534 127 205.827V207.261C127 209.326 125.326 211 123.261 211H72C65.9249 211 61 206.075 61 200Z" fill="#C97EF6"/>
<path d="M76.5276 205.568V206.825H68.5705V205.568H76.5276ZM87.1137 205.568V206.825H79.1566V205.568H87.1137ZM97.6998 205.568V206.825H89.7427V205.568H97.6998ZM108.286 205.568V206.825H100.329V205.568H108.286ZM118.872 205.568V206.825H110.915V205.568H118.872Z" fill="#C97EF6"/>
<path d="M210.058 126.863C211.191 126.013 212.607 125.73 213.835 125.069C215.063 124.502 216.385 123.463 216.479 122.046C216.668 119.969 214.402 118.458 214.213 116.38C214.024 113.452 217.99 111.847 218.557 109.013C219.029 106.652 217.046 104.386 217.14 101.93C217.235 99.4749 219.312 97.6805 220.257 95.5083C222.523 90.314 218.368 83.7031 221.484 78.981C222.334 77.7533 223.562 76.8089 224.601 75.77C225.64 74.7311 226.584 73.3145 226.49 71.8034L232.345 69.1591C234.328 66.1369 238.767 66.0425 242.072 67.3647C245.377 68.6869 248.305 70.9535 251.799 71.8034C253.499 72.1812 253.216 69.7257 254.915 70.1035C257.182 70.5757 259.921 73.2201 260.582 75.2978C261.243 77.6588 261.715 80.2087 262.565 82.4753C263.509 85.0253 266.154 86.7252 266.437 89.464C266.72 92.5806 263.509 95.1305 263.509 98.2471C263.509 101.647 267.192 104.575 266.059 107.786C265.398 109.58 263.32 110.525 262.565 112.319C261.526 114.774 263.509 117.513 263.415 120.158C263.226 122.802 261.054 124.785 258.976 126.296C251.044 132.341 242.166 137.44 232.723 140.746C228.662 142.162 224.318 143.201 219.973 142.824C215.629 142.446 211.285 140.368 209.019 136.685C207.13 133.474 207.224 128.941 210.058 126.863Z" fill="#212529"/>
<path d="M226.773 70.2923C227.812 66.0424 231.306 62.5481 235.461 61.4148C239.616 60.2815 244.433 61.5092 247.455 64.6258C248.682 65.8535 249.721 67.459 251.138 68.4035C252.838 69.5367 253.026 69.159 254.915 69.9145C256.804 70.67 260.204 75.8643 260.109 77.8476L261.054 86.6307C260.959 88.7084 258.315 89.8417 256.426 89.1806C254.443 88.5195 253.215 86.7251 252.177 84.9307C251.138 83.1363 250.193 81.2475 248.493 80.0198C245.66 78.0365 241.883 78.6976 238.578 79.4531C235.272 80.1142 231.4 80.5864 228.756 78.4143C226.584 76.5254 226.017 73.1255 226.773 70.2923Z" fill="#212529"/>
<path d="M224.979 82.8538C225.356 77.0929 229.134 70.1042 234.895 70.7653L252.649 75.2985C254.349 75.4874 255.671 76.9984 255.671 78.6984L253.688 121.575H253.782C253.782 121.575 246.51 136.874 234.8 133.191C232.439 132.436 234.611 126.675 234.139 124.03H234.045C234.045 123.747 234.045 123.464 234.045 123.086C233.667 120.064 233.95 117.231 233.95 117.231C233.95 113.736 233.95 112.32 233.95 112.414C233.95 112.414 226.678 111.186 225.167 101.648C224.318 96.9256 224.506 89.1814 224.979 82.8538Z" fill="#FFBE9D"/>
<path d="M226.396 90.2217C226.396 90.8828 226.868 91.4495 227.529 91.4495C228.19 91.4495 228.757 90.9773 228.757 90.3162C228.757 89.6551 228.285 89.0885 227.624 89.0885C226.963 88.994 226.396 89.5607 226.396 90.2217Z" fill="#212529"/>
<path d="M226.587 86.9093C226.776 87.0982 227.626 86.3427 228.948 86.4371C230.27 86.4371 231.214 87.0982 231.403 86.9093C231.498 86.8149 231.309 86.5316 230.931 86.2483C230.553 85.9649 229.798 85.6816 228.948 85.6816C228.098 85.6816 227.437 85.9649 227.059 86.2483C226.681 86.5316 226.587 86.8149 226.587 86.9093Z" fill="#212529"/>
<path d="M238.86 90.5962C238.86 91.2573 239.332 91.8239 239.993 91.8239C240.654 91.8239 241.221 91.3517 241.221 90.6906C241.221 90.0295 240.749 89.4629 240.087 89.4629C239.426 89.4629 238.86 89.9351 238.86 90.5962Z" fill="#212529"/>
<path d="M239.522 87.1984C239.711 87.3873 240.561 86.6318 241.883 86.7262C243.205 86.7262 244.15 87.3873 244.339 87.1984C244.433 87.104 244.244 86.8207 243.867 86.5374C243.489 86.254 242.733 85.9707 241.883 85.9707C241.033 85.9707 240.372 86.254 239.995 86.5374C239.617 86.8207 239.522 87.104 239.522 87.1984Z" fill="#212529"/>
<path d="M234.8 96.9269C234.8 96.8325 233.95 96.738 232.628 96.5491C232.25 96.5491 231.967 96.4547 231.872 96.1714C231.778 95.888 231.967 95.6047 232.061 95.1325C232.345 94.2825 232.722 93.4326 233.1 92.5826C234.517 88.8994 235.461 85.9717 235.367 85.8772C235.178 85.7828 233.95 88.7105 232.628 92.3937C232.25 93.3381 231.967 94.1881 231.683 94.9436C231.589 95.3214 231.306 95.7936 231.495 96.2658C231.589 96.5491 231.872 96.738 232.061 96.738C232.25 96.8325 232.439 96.8325 232.628 96.8325C233.95 96.9269 234.705 97.0213 234.8 96.9269Z" fill="#212529"/>
<path d="M233.857 112.512C233.857 112.512 240.279 112.984 246.606 109.112C246.606 109.112 243.49 115.629 233.951 114.779L233.857 112.512Z" fill="#EB996E"/>
<path d="M235.272 100.041C235.745 99.3795 236.595 99.0961 237.445 99.1906C238.011 99.285 238.578 99.5683 238.956 100.041C239.333 100.513 239.333 101.174 239.05 101.646C238.672 102.118 237.917 102.213 237.35 102.118C236.689 101.929 236.217 101.552 235.65 101.079C235.556 100.985 235.367 100.891 235.272 100.702C235.178 100.418 235.178 100.229 235.272 100.041Z" fill="#EB996E"/>
<path d="M238.674 97.7793C238.486 97.7793 238.486 99.1959 237.258 100.235C236.03 101.274 234.519 101.085 234.519 101.274C234.519 101.368 234.897 101.557 235.463 101.557C236.125 101.557 236.975 101.368 237.73 100.801C238.486 100.14 238.769 99.3848 238.863 98.7237C238.863 98.1571 238.769 97.7793 238.674 97.7793Z" fill="#212529"/>
<path d="M238.958 84.8314C239.052 85.2092 240.374 85.0203 241.98 85.2092C243.491 85.398 244.813 85.7758 245.002 85.4925C245.096 85.3036 244.907 85.0203 244.341 84.6425C243.868 84.2647 243.019 83.9814 242.074 83.887C241.13 83.7925 240.28 83.887 239.713 84.1703C239.241 84.3592 238.958 84.6425 238.958 84.8314Z" fill="#212529"/>
<path d="M227.152 83.0439C227.341 83.3272 228.285 83.0439 229.418 83.0439C230.552 82.9494 231.402 83.2328 231.685 82.9494C231.779 82.7606 231.59 82.4772 231.213 82.1939C230.835 81.9106 230.174 81.7217 229.418 81.7217C228.663 81.7217 228.002 82.005 227.624 82.2883C227.152 82.5717 227.057 82.9494 227.152 83.0439Z" fill="#212529"/>
<path d="M235.178 68.3094L236.028 67.2705C241.506 67.9316 246.983 69.2538 252.083 71.3315C254.16 72.1815 256.238 73.1259 257.655 74.9203C259.543 77.2813 259.921 80.4923 260.11 83.6089C260.96 95.2252 261.621 107.125 258.032 118.08C257.182 116.663 255.482 116.002 253.783 115.719C252.177 115.436 250.477 115.341 248.966 114.586C247.361 113.736 246.133 112.13 245.755 110.43C245.283 108.636 245.566 106.747 246.322 105.142C247.172 103.347 248.777 101.553 248.4 99.5695C248.022 97.4918 245.566 96.2641 245 94.1864C244.055 90.5976 248.966 87.481 248.022 83.8922C247.644 82.57 246.511 81.6256 245.283 81.059C244.055 80.4923 242.733 80.1146 241.506 79.5479C237.256 77.4702 234.612 72.7481 235.178 68.3094Z" fill="#212529"/>
<path d="M187.013 140.937L198.156 158.314C198.156 158.314 196.929 160.391 194.19 160.297C191.546 160.203 187.863 153.497 187.39 152.081C186.918 150.758 187.579 149.436 187.107 148.492C186.729 147.547 186.824 145.092 186.824 145.092C187.013 145.281 184.557 141.975 187.013 140.937Z" fill="#FFBE9D"/>
<path d="M201.273 158.313L195.418 135.364C195.229 134.703 194.757 134.041 194.19 133.758L185.785 128.942C185.313 128.658 184.652 128.753 184.274 129.225C184.085 129.508 183.991 129.886 184.085 130.169L190.224 154.346L201.273 158.313Z" fill="#212529"/>
<path d="M204.201 176.163L190.697 151.23L195.796 144.619L214.778 159.069L209.773 172.763L204.201 176.163Z" fill="#FF4800"/>
<path d="M190.508 156.613C190.508 156.613 190.319 156.236 190.224 155.574C190.13 154.913 190.224 153.875 190.508 152.741V152.647V152.552C190.319 152.175 190.224 151.702 190.319 151.23C190.508 150.758 190.791 150.38 191.263 150.097L191.452 150.002L191.357 149.814C190.885 149.058 190.413 148.302 189.846 147.547C189.752 147.358 189.563 147.169 189.469 146.98C189.374 146.791 189.469 146.603 189.469 146.414C189.658 146.036 190.035 145.658 190.413 145.375L190.602 145.28L190.413 145.091C190.035 144.619 189.563 144.147 189.091 143.675C188.241 142.825 187.486 141.975 186.824 141.125C186.541 140.653 186.163 140.275 185.975 139.803C185.88 139.614 185.786 139.33 185.786 139.142C185.786 138.953 185.88 138.858 185.975 138.764C186.163 138.669 186.447 138.764 186.73 138.858C187.013 138.953 187.297 139.047 187.486 139.236C187.958 139.519 188.43 139.803 188.902 140.086C189.752 140.653 190.508 141.125 191.074 141.597C191.641 141.975 192.113 142.353 192.491 142.636C192.774 142.825 192.963 143.014 192.963 143.014C192.963 143.014 192.868 142.825 192.491 142.542C192.207 142.258 191.735 141.88 191.169 141.408C190.602 140.936 189.846 140.369 188.997 139.803C188.619 139.519 188.147 139.236 187.58 138.953C187.297 138.858 187.013 138.669 186.73 138.575C186.447 138.481 186.163 138.386 185.691 138.481H185.786C185.408 138.481 185.219 138.953 185.219 139.236C185.219 139.519 185.313 139.803 185.408 140.086C185.597 140.558 185.975 141.03 186.258 141.503C186.919 142.353 187.674 143.297 188.524 144.147C188.997 144.619 189.469 145.091 189.846 145.564V145.28C189.374 145.658 188.997 146.036 188.713 146.508C188.619 146.791 188.524 147.075 188.619 147.358C188.713 147.641 188.902 147.83 188.997 148.019C189.563 148.775 190.035 149.625 190.602 150.286L190.696 150.002C190.224 150.38 189.846 150.852 189.658 151.419C189.469 151.986 189.658 152.552 189.846 152.93V152.836C189.563 154.063 189.563 155.102 189.658 155.858C189.752 156.236 189.846 156.424 189.941 156.613C190.413 156.519 190.508 156.613 190.508 156.613Z" fill="#EB996E"/>
<path d="M184.274 129.226C184.274 129.226 184.463 129.414 184.935 129.698C185.408 129.981 186.069 130.359 186.919 130.926C187.769 131.398 188.807 132.059 189.846 132.625C190.413 132.909 190.979 133.287 191.641 133.664C192.207 134.042 192.868 134.325 193.435 134.798C193.907 135.27 194.19 135.931 194.285 136.592C194.474 137.253 194.663 137.914 194.757 138.575C195.04 139.803 195.418 140.936 195.607 141.881C195.89 142.825 196.079 143.581 196.268 144.147C196.457 144.714 196.551 144.997 196.551 144.903C196.551 144.903 196.551 144.62 196.457 144.053C196.362 143.486 196.174 142.731 195.985 141.786C195.796 140.842 195.512 139.709 195.229 138.481C195.04 137.82 194.946 137.159 194.757 136.498C194.568 135.836 194.379 135.081 193.718 134.514C193.152 133.948 192.49 133.664 191.829 133.287C191.263 132.909 190.602 132.625 190.035 132.342C188.902 131.776 187.957 131.209 187.013 130.642C186.163 130.17 185.502 129.792 184.935 129.603C184.558 129.32 184.274 129.226 184.274 129.226Z" fill="#495057"/>
<path d="M189.847 137.064C190.036 137.536 190.036 138.008 189.941 138.103C189.753 138.197 189.469 137.82 189.28 137.347C189.091 136.875 189.091 136.403 189.186 136.309C189.28 136.214 189.658 136.592 189.847 137.064Z" fill="white"/>
<path d="M231.872 123.18C226.016 125.257 221.2 129.602 218.556 135.268L200.424 173.8L184.842 180.128L198.535 184.095L210.812 175.123L231.872 123.18Z" fill="#FF4800"/>
<path d="M198.535 184.095L205.146 189.195L237.916 155.479L256.709 121.575L254.537 115.247L240.088 121.291L234.894 128.941L233.761 119.214L232.816 120.536L231.305 124.597C231.305 124.597 217.045 136.402 214.023 145.846C211.473 153.685 212.229 169.834 210.718 174.273L198.535 184.095Z" fill="#FAFAFA"/>
<path d="M260.203 121.102C260.392 121.763 274.18 127.335 274.841 132.152C275.502 136.969 264.925 174.367 264.925 174.367L248.21 189.195H205.146L218.84 163.601C221.767 158.123 225.545 153.024 229.889 148.585C233.95 144.524 238.861 139.424 241.316 136.402C244.055 133.096 255.576 117.797 255.576 117.797L260.203 121.102Z" fill="#FF4800"/>
<path d="M251.515 122.613C251.515 122.519 250.571 122.991 249.06 123.747C247.549 124.502 245.565 125.541 243.299 126.674C242.449 127.146 241.599 127.619 240.749 127.996L241.032 128.185C241.127 126.391 240.938 124.785 240.749 123.652C240.56 122.519 240.277 121.952 240.277 121.952C240.182 121.952 240.371 122.613 240.466 123.652C240.56 124.785 240.749 126.296 240.56 128.091V128.469L240.844 128.28C241.599 127.902 242.543 127.43 243.393 126.958C245.66 125.824 247.643 124.691 249.06 123.935C250.665 123.18 251.609 122.708 251.515 122.613Z" fill="#212529"/>
<path d="M218.368 156.707C218.368 156.707 218.651 156.329 219.029 155.573C219.501 154.818 220.067 153.779 220.823 152.551C222.334 150.001 224.317 146.413 226.678 142.541C229.039 138.668 231.117 135.174 232.722 132.624C233.478 131.396 234.139 130.358 234.611 129.602C235.083 128.847 235.272 128.469 235.272 128.469C235.272 128.469 234.989 128.847 234.516 129.508C234.044 130.169 233.383 131.208 232.533 132.435C230.928 134.891 228.661 138.385 226.395 142.257C224.034 146.129 222.051 149.718 220.634 152.362C219.973 153.685 219.406 154.724 219.029 155.479C218.556 156.235 218.368 156.707 218.368 156.707Z" fill="#212529"/>
<g opacity="0.3">
<g opacity="0.3">
<path opacity="0.3" d="M224.978 182.774C222.522 183.152 219.878 183.624 217.423 183.152C214.967 182.68 212.512 181.074 211.662 178.713C211.379 177.957 211.284 177.107 210.718 176.541C209.773 175.691 208.262 176.163 206.94 176.069C205.523 175.974 204.201 174.935 203.446 173.613C202.69 172.385 202.313 170.874 202.029 169.458C201.84 168.797 201.652 168.041 201.746 167.286C201.84 166.53 202.218 165.869 202.879 165.586C203.824 165.113 204.957 165.775 205.807 166.436C212.89 171.535 219.406 177.485 225.828 183.341" fill="black"/>
</g>
</g>
<path d="M208.924 154.252C208.924 154.252 206.468 148.585 205.146 147.83C203.824 147.074 197.308 143.202 197.308 143.202L198.158 146.319L191.736 141.88C190.98 141.313 186.353 137.158 185.597 138.858C185.031 139.991 188.714 143.108 189.28 143.769C190.508 145.469 190.13 145.28 190.13 145.28C190.13 145.28 188.808 146.13 189.469 147.263C190.13 148.491 191.264 149.908 191.264 149.908C191.264 149.908 189.469 150.569 190.508 152.835C190.508 152.835 190.036 154.063 190.319 155.763C190.603 157.463 193.719 160.768 193.719 160.768L209.301 168.229L215.534 157.557L208.924 154.252Z" fill="#FFBE9D"/>
<path d="M245.187 143.58L235.177 164.924L213.078 155.291C213.078 155.291 203.918 160.674 205.146 166.529L225.072 182.867C228.849 185.984 233.76 187.401 238.577 186.834C243.771 186.173 248.493 183.34 251.326 178.901L265.775 156.896L273.802 143.674C276.352 139.424 276.352 134.041 273.424 129.98C272.669 128.847 271.63 127.997 270.591 127.336C267.097 125.164 256.331 124.219 245.187 143.58Z" fill="#FF4800"/>
<path d="M196.08 144.808C195.985 144.902 197.496 145.941 199.291 147.075C201.179 148.208 202.69 149.058 202.785 148.963C202.879 148.869 201.368 147.83 199.574 146.697C197.685 145.563 196.174 144.714 196.08 144.808Z" fill="#EB996E"/>
<path d="M189.847 144.618C189.752 144.712 191.074 146.129 192.774 147.735C194.474 149.435 195.891 150.662 195.985 150.568C196.079 150.473 194.757 149.057 193.057 147.451C191.358 145.846 189.941 144.524 189.847 144.618Z" fill="#EB996E"/>
<path d="M190.697 149.437C190.602 149.531 191.263 150.381 192.019 151.326C192.869 152.27 193.624 153.025 193.719 152.931C193.813 152.837 193.152 151.987 192.396 151.042C191.546 150.098 190.791 149.342 190.697 149.437Z" fill="#EB996E"/>
<path d="M190.413 152.647C190.319 152.741 190.696 153.213 191.074 153.875C191.546 154.536 191.924 155.008 192.018 154.913C192.113 154.819 191.924 154.252 191.452 153.591C190.98 153.025 190.507 152.552 190.413 152.647Z" fill="#EB996E"/>
<path d="M228.471 185.039C228.471 185.039 228.471 185.039 228.377 184.945C228.282 184.85 228.188 184.756 228.094 184.661C227.81 184.378 227.338 184.095 226.866 183.622C225.733 182.773 224.127 181.45 222.05 179.845C217.894 176.634 212.039 172.006 204.956 166.434L205.051 166.529C205.051 165.395 205.24 164.356 205.712 163.223C206.184 162.184 206.845 161.145 207.506 160.201C209.017 158.312 211 156.707 213.172 155.29H212.983C216.667 156.896 220.539 158.595 224.41 160.295C228.094 161.901 231.682 163.412 235.082 164.923L235.271 165.018L235.365 164.829C238.293 159.068 241.032 153.59 243.77 148.868C245.092 146.507 246.509 144.335 247.737 142.257C249.059 140.179 250.192 138.291 251.325 136.685C253.686 133.38 256.236 131.302 258.219 130.263C258.691 129.98 259.164 129.791 259.541 129.602C259.919 129.413 260.297 129.224 260.486 129.13C260.769 129.035 260.958 128.941 261.052 128.846C261.147 128.752 261.241 128.752 261.241 128.752C261.241 128.752 260.014 129.13 258.03 130.169C257.086 130.735 255.858 131.396 254.631 132.435C253.403 133.474 252.175 134.891 250.947 136.496C249.72 138.102 248.587 139.991 247.264 142.068C245.942 144.146 244.62 146.318 243.204 148.679C240.465 153.401 237.726 158.879 234.704 164.64L234.987 164.545C231.588 163.034 227.999 161.523 224.316 159.918C220.35 158.218 216.478 156.518 212.889 154.912H212.795L212.7 155.007C210.434 156.423 208.545 158.029 206.939 160.012C206.184 160.957 205.523 161.995 205.051 163.129C204.579 164.262 204.39 165.395 204.39 166.529V166.623L204.484 166.717C211.567 172.195 217.516 176.728 221.672 179.939C223.749 181.545 225.355 182.773 226.488 183.622C227.055 184 227.432 184.378 227.81 184.567C227.905 184.661 228.094 184.756 228.188 184.85C228.471 184.945 228.471 185.039 228.471 185.039Z" fill="#212529"/>
<path d="M236.594 171.629C236.688 171.534 236.121 170.023 235.744 168.04C235.366 166.057 235.46 164.451 235.271 164.451C235.177 164.451 234.894 166.151 235.271 168.134C235.649 170.212 236.499 171.629 236.594 171.629Z" fill="#212529"/>
<path d="M114.769 234.241L103.154 248.785C103.154 248.785 84.4548 241.891 82.0939 244.346L109.481 267.862L128.463 245.952L114.769 234.241Z" fill="#FF4800"/>
<g opacity="0.6">
<g opacity="0.6">
<g opacity="0.6">
<g opacity="0.6">
<g opacity="0.6">
<path opacity="0.6" d="M112.597 254.832C112.975 255.399 112.88 256.343 112.314 256.815C111.747 257.288 110.803 257.099 110.425 256.532C110.047 255.965 110.142 254.832 110.803 254.454C111.464 254.077 112.503 254.36 112.786 255.021" fill="white"/>
</g>
</g>
</g>
</g>
</g>
<g opacity="0.6">
<g opacity="0.6">
<g opacity="0.6">
<g opacity="0.6">
<path opacity="0.6" d="M109.387 267.771L111.182 265.505L84.2669 243.783C84.2669 243.783 82.567 243.311 82.0004 244.255L109.387 267.771Z" fill="white"/>
</g>
</g>
</g>
</g>
<path d="M102.777 248.22C102.683 248.314 103.249 248.975 103.533 250.014C103.816 250.959 103.722 251.903 103.816 251.903C104.005 251.997 104.477 251.053 104.099 249.825C103.816 248.597 102.872 248.125 102.777 248.22Z" fill="#212529"/>
<path d="M98.9028 246.992C98.7139 247.086 99.1862 247.842 99.0917 248.786C99.0917 249.731 98.714 250.486 98.8084 250.581C98.9028 250.675 99.6584 250.014 99.6584 248.786C99.7528 247.558 98.9973 246.803 98.9028 246.992Z" fill="#212529"/>
<path d="M94.3708 248.975C94.4652 249.069 95.2208 248.597 95.5041 247.558C95.7874 246.52 95.4096 245.67 95.2207 245.764C95.0319 245.764 95.1263 246.52 94.843 247.37C94.6541 248.219 94.1819 248.881 94.3708 248.975Z" fill="#212529"/>
<path d="M105.798 245.196C105.703 245.385 106.553 245.668 107.214 246.424C107.97 247.085 108.347 247.84 108.442 247.84C108.631 247.84 108.442 246.801 107.592 246.046C106.836 245.196 105.798 245.007 105.798 245.196Z" fill="#212529"/>
<g opacity="0.3">
<g opacity="0.3">
<g opacity="0.3">
<g opacity="0.3">
<path opacity="0.3" d="M112.408 237.08L110.331 239.724L123.93 251.152L125.913 248.885L112.408 237.08Z" fill="black"/>
</g>
</g>
</g>
</g>
<path d="M108.253 242.367C108.158 242.461 108.63 242.933 109.669 243.5C110.141 243.783 110.803 244.067 111.464 244.256C111.841 244.35 112.219 244.444 112.597 244.539C112.786 244.539 112.975 244.633 113.258 244.539C113.541 244.539 113.919 244.256 113.919 243.878C113.919 243.594 113.824 243.217 113.636 243.028C113.447 242.839 113.258 242.744 113.069 242.65C112.691 242.461 112.314 242.272 111.936 242.178C111.18 241.989 110.519 241.895 109.953 241.895C108.819 241.895 108.158 242.272 108.158 242.272C108.158 242.367 108.819 242.178 109.953 242.272C110.519 242.272 111.086 242.367 111.747 242.65C112.03 242.744 112.408 242.933 112.786 243.122C113.163 243.311 113.352 243.5 113.352 243.689C113.352 243.783 113.352 243.783 113.163 243.783C113.069 243.783 112.88 243.783 112.691 243.783C112.313 243.689 111.936 243.689 111.652 243.594C110.991 243.406 110.33 243.217 109.858 242.933C108.819 242.65 108.253 242.272 108.253 242.367Z" fill="#212529"/>
<path d="M108.253 242.648C108.253 242.742 108.914 242.459 109.764 241.609C110.142 241.231 110.519 240.664 110.897 239.909C111.086 239.531 111.181 239.153 111.275 238.775C111.369 238.398 111.464 237.831 110.992 237.359C110.708 237.075 110.331 237.17 110.047 237.264C109.764 237.359 109.67 237.548 109.481 237.642C109.197 237.925 108.914 238.209 108.725 238.587C108.347 239.248 108.159 239.909 108.064 240.475C107.97 241.609 108.442 242.27 108.442 242.27C108.536 242.27 108.253 241.609 108.442 240.57C108.536 240.098 108.725 239.437 109.103 238.87C109.292 238.587 109.575 238.303 109.764 238.114C110.047 237.831 110.331 237.737 110.425 237.831C110.519 237.925 110.614 238.398 110.519 238.681C110.425 239.059 110.331 239.437 110.236 239.72C109.953 240.381 109.67 240.853 109.292 241.325C108.725 242.175 108.159 242.553 108.253 242.648Z" fill="#212529"/>
<path d="M127.328 279.008L128.084 297.991C128.084 297.991 109.007 305.074 108.818 308.663L145.743 308.569L145.838 278.914L127.328 279.008Z" fill="#FF4800"/>
<g opacity="0.6">
<g opacity="0.6">
<g opacity="0.6">
<g opacity="0.6">
<g opacity="0.6">
<path opacity="0.6" d="M139.417 296.386C140.172 296.575 140.644 297.425 140.455 298.086C140.267 298.842 139.511 299.314 138.756 299.125C138 298.936 137.433 297.992 137.622 297.331C137.906 296.67 138.85 296.103 139.511 296.386" fill="white"/>
</g>
</g>
</g>
</g>
</g>
<g opacity="0.6">
<g opacity="0.6">
<g opacity="0.6">
<g opacity="0.6">
<path opacity="0.6" d="M145.65 308.567L145.556 305.545L110.236 306.773C110.236 306.773 108.631 307.528 108.82 308.661L145.65 308.567Z" fill="white"/>
</g>
</g>
</g>
</g>
<path d="M127.423 297.801C127.423 297.99 128.368 298.084 129.218 298.651C130.162 299.218 130.54 299.973 130.729 299.879C130.918 299.879 130.634 298.746 129.501 298.084C128.462 297.423 127.423 297.612 127.423 297.801Z" fill="#212529"/>
<path d="M123.552 299.411C123.552 299.6 124.307 299.883 124.874 300.639C125.535 301.394 125.629 302.244 125.818 302.244C126.007 302.244 126.101 301.205 125.346 300.261C124.685 299.317 123.552 299.222 123.552 299.411Z" fill="#212529"/>
<path d="M121.379 304.037C121.568 304.037 121.757 303.187 121.285 302.148C120.813 301.203 119.963 300.731 119.868 300.92C119.774 301.109 120.34 301.581 120.718 302.431C121.19 303.281 121.19 304.037 121.379 304.037Z" fill="#212529"/>
<path d="M127.801 293.457C127.895 293.646 128.745 293.363 129.69 293.457C130.729 293.457 131.484 293.835 131.578 293.646C131.673 293.551 130.917 292.89 129.69 292.796C128.556 292.796 127.707 293.363 127.801 293.457Z" fill="#212529"/>
<g opacity="0.3">
<g opacity="0.3">
<g opacity="0.3">
<g opacity="0.3">
<path opacity="0.3" d="M127.518 282.788L127.613 286.188L145.745 285.999V282.883L127.518 282.788Z" fill="black"/>
</g>
</g>
</g>
</g>
<path d="M127.707 289.678C127.707 289.772 128.463 289.867 129.596 289.678C130.163 289.583 130.824 289.394 131.485 289.111C131.862 288.922 132.146 288.733 132.524 288.544C132.712 288.45 132.901 288.355 133.09 288.072C133.279 287.883 133.374 287.411 133.185 287.128C132.996 286.844 132.618 286.75 132.429 286.75C132.146 286.75 131.957 286.75 131.768 286.844C131.39 286.939 131.013 287.128 130.635 287.222C129.974 287.506 129.313 287.978 128.935 288.356C128.085 289.111 127.802 289.867 127.896 289.867C127.991 289.961 128.368 289.394 129.218 288.733C129.69 288.45 130.163 288.072 130.824 287.789C131.107 287.694 131.485 287.506 131.863 287.506C132.24 287.411 132.618 287.411 132.712 287.6C132.712 287.694 132.712 287.694 132.712 287.789C132.618 287.883 132.429 287.978 132.335 288.072C132.051 288.261 131.674 288.45 131.39 288.639C130.729 288.922 130.163 289.205 129.596 289.3C128.368 289.489 127.707 289.583 127.707 289.678Z" fill="#212529"/>
<path d="M127.896 289.871C127.99 289.871 128.274 289.21 128.368 288.077C128.368 287.51 128.368 286.754 128.085 286.093C127.99 285.716 127.802 285.338 127.613 284.96C127.424 284.582 127.14 284.11 126.385 284.016C126.007 284.016 125.724 284.299 125.629 284.488C125.535 284.771 125.441 284.96 125.441 285.149C125.346 285.621 125.346 285.999 125.441 286.377C125.535 287.132 125.913 287.793 126.196 288.266C126.952 289.21 127.707 289.399 127.707 289.399C127.802 289.304 127.14 288.927 126.574 288.077C126.291 287.604 126.102 287.038 126.007 286.377C126.007 285.999 126.007 285.716 126.007 285.338C126.102 284.96 126.196 284.582 126.385 284.677C126.574 284.677 126.857 284.96 127.046 285.243C127.235 285.621 127.424 285.904 127.518 286.282C127.707 286.943 127.896 287.604 127.896 288.171C127.99 289.21 127.802 289.871 127.896 289.871Z" fill="#212529"/>
<path d="M146.028 189.102L109.48 237.645L126.574 252.377L144.233 229.334L146.028 189.102Z" fill="#212529"/>
<path d="M223.372 191.463C223.372 191.463 164.632 173.519 159.249 173.802C153.866 173.991 143.667 193.446 143.667 193.446L160.193 192.879C164.443 203.268 172.281 213.94 181.064 224.706L214.778 223.101L223.372 191.463Z" fill="#212529"/>
<path d="M175.303 177.297C175.303 177.391 181.347 179.28 188.807 181.547C196.268 183.813 202.406 185.513 202.406 185.324C202.406 185.23 196.362 183.341 188.902 181.074C181.441 178.902 175.397 177.202 175.303 177.297Z" fill="#212529"/>
<path d="M161.704 192.501H145.178C136.961 192.501 129.595 197.695 126.857 205.439C125.535 209.123 124.968 212.995 125.157 216.867L126.479 284.015H148.672L149.05 262.577L151.883 221.778L171.148 222.628L182.008 221.967L161.704 192.501Z" fill="#212529"/>
<path d="M161.232 192.218C161.232 192.218 161.327 192.69 161.516 193.634C161.705 194.579 162.082 195.807 162.649 197.412C163.216 199.018 163.971 200.812 165.104 202.795C166.143 204.779 167.56 206.762 169.165 208.745C172.376 212.712 175.776 215.923 178.137 218.189C179.27 219.323 180.309 220.267 180.97 220.928C181.631 221.589 182.009 221.872 182.009 221.872C182.009 221.872 181.725 221.495 181.064 220.834C180.403 220.173 179.459 219.228 178.326 218C175.965 215.639 172.659 212.428 169.449 208.462C166.238 204.495 164.16 200.434 162.932 197.318C162.366 195.807 161.894 194.484 161.61 193.634C161.421 192.69 161.232 192.218 161.232 192.218Z" fill="#495057"/>
<path d="M141.023 192.972C141.023 193.067 142.156 192.972 144.045 192.783C145.934 192.689 148.483 192.595 151.222 192.689C154.055 192.783 156.605 192.878 158.399 193.067C160.288 193.161 161.421 193.256 161.421 193.256C161.421 193.256 161.138 193.161 160.666 193.067C160.194 192.972 159.438 192.878 158.494 192.783C156.605 192.595 154.055 192.406 151.222 192.311C148.389 192.217 145.839 192.406 143.95 192.595C143.006 192.689 142.251 192.783 141.778 192.878C141.306 192.878 141.023 192.972 141.023 192.972Z" fill="#495057"/>
<path d="M148.766 271.737C148.766 271.737 148.766 271.548 148.86 271.171C148.86 270.793 148.955 270.226 148.955 269.565C149.049 268.148 149.144 266.071 149.238 263.615C149.427 258.61 149.805 251.716 150.277 244.16C150.749 236.605 151.316 229.711 151.694 224.705C151.882 222.25 152.071 220.267 152.166 218.85C152.166 218.189 152.26 217.622 152.26 217.244C152.26 216.867 152.26 216.678 152.26 216.678C152.26 216.678 152.26 216.867 152.166 217.244C152.071 217.622 152.071 218.189 151.977 218.85C151.788 220.267 151.599 222.25 151.41 224.705C150.938 229.711 150.277 236.51 149.805 244.16C149.333 251.81 149.049 258.704 148.955 263.615C148.86 266.071 148.86 268.054 148.86 269.565C148.86 270.226 148.86 270.793 148.86 271.171C148.766 271.548 148.766 271.737 148.766 271.737Z" fill="#212529"/>
<path d="M125.157 214.316C125.063 214.316 125.157 229.71 125.346 248.693C125.535 267.676 125.818 283.07 125.913 283.07C126.007 283.07 125.913 267.676 125.724 248.693C125.535 229.71 125.346 214.316 125.157 214.316Z" fill="#495057"/>
<path d="M143.289 211.767C143.289 211.861 145.555 212.522 148.011 214.033C150.466 215.544 152.072 217.339 152.166 217.244C152.166 217.244 151.883 216.678 151.222 216.016C150.561 215.355 149.522 214.411 148.294 213.655C147.066 212.9 145.744 212.333 144.894 212.05C143.95 211.861 143.289 211.767 143.289 211.767Z" fill="#212529"/>
<g opacity="0.3">
<g opacity="0.3">
<path opacity="0.3" d="M182.009 221.968C177.57 222.818 172.565 221.401 168.788 219.04C164.916 216.679 162.082 212.807 161.044 208.463C160.571 206.574 160.383 204.496 159.91 202.608C159.438 200.719 158.494 198.735 156.888 197.508C155 196.091 150.372 195.241 149.05 193.352C149.05 193.069 154.527 193.73 156.416 193.825C158.399 193.919 161.799 194.486 161.705 194.202C161.705 194.202 163.027 198.924 163.688 199.963C167.56 206.763 176.343 216.868 182.009 221.968Z" fill="black"/>
</g>
</g>
<path d="M273.613 269.377L267.38 310.27H261.147L264.169 269.566L273.613 269.377Z" fill="#212529"/>
<path d="M163.688 269.566V310.27H157.172L154.716 269.377L163.688 269.566Z" fill="#212529"/>
<path d="M274.652 143.204C274.652 143.204 283.435 143.582 286.079 147.265C290.801 153.687 288.157 159.354 288.44 161.242C288.723 163.131 273.613 269.473 273.613 269.473H267.38L154.716 270.511L149.333 257.384L151.977 221.874L182.103 221.968C182.103 221.968 194.474 186.553 205.24 184.192C212.512 182.586 229.7 183.153 239.994 183.72C245.188 184.003 250.004 181.453 252.837 177.203L274.652 143.204Z" fill="#495057"/>
<path d="M174.831 265.222C174.831 265.222 175.492 265.316 176.625 265.316C177.853 265.316 179.553 265.411 181.914 265.411C186.447 265.505 193.152 265.505 201.368 265.505C217.895 265.505 240.938 265.316 266.908 265.128H267.097V264.939C267.569 262.672 268.041 260.405 268.513 258.139C268.986 255.778 269.458 253.417 269.93 251.056C275.596 222.251 278.902 195.807 280.696 176.636C281.546 167.097 282.112 159.258 282.49 153.875C282.679 151.231 282.774 149.153 282.868 147.737C282.868 147.076 282.962 146.509 282.962 146.131C282.962 145.753 282.962 145.564 282.962 145.564C282.962 145.564 282.962 145.753 282.868 146.131C282.868 146.509 282.774 147.076 282.774 147.737C282.679 149.153 282.49 151.231 282.396 153.875C282.018 159.258 281.451 167.003 280.507 176.541C278.618 195.713 275.313 222.062 269.647 250.867C269.174 253.228 268.702 255.589 268.23 257.95C267.758 260.311 267.286 262.578 266.814 264.75L267.002 264.561C240.938 264.75 217.989 264.939 201.463 265.033C193.246 265.033 186.636 265.033 182.008 265.128C179.742 265.128 177.948 265.128 176.72 265.128C176.153 265.128 175.681 265.128 175.398 265.033C175.02 265.222 174.831 265.222 174.831 265.222Z" fill="#212529"/>
<path d="M176.059 270.228C176.059 270.228 176.059 270.039 176.059 269.756C175.965 269.378 175.965 268.906 175.87 268.339C175.776 267.678 175.681 266.923 175.587 266.073C175.493 265.223 175.304 264.184 175.209 263.05C175.115 261.917 175.02 260.689 174.926 259.367C174.832 258.045 174.832 256.628 174.832 255.117C174.832 252.19 175.02 248.884 175.398 245.484C175.776 242.084 176.437 238.873 177.098 235.946C177.759 233.018 178.515 230.468 179.176 228.296C179.459 227.257 179.837 226.313 180.12 225.463C180.403 224.613 180.687 223.857 180.876 223.29C181.064 222.724 181.253 222.252 181.348 221.968C181.442 221.685 181.537 221.496 181.537 221.496C181.537 221.496 181.442 221.685 181.348 221.968C181.159 222.346 180.97 222.724 180.781 223.29C180.498 223.857 180.214 224.613 179.931 225.463C179.648 226.313 179.27 227.257 178.892 228.296C178.137 230.468 177.381 233.018 176.72 235.946C176.059 238.873 175.398 242.084 175.02 245.484C174.643 248.884 174.454 252.19 174.454 255.212C174.454 256.723 174.454 258.139 174.643 259.462C174.737 260.784 174.832 262.012 174.926 263.145C175.02 264.278 175.209 265.317 175.304 266.167C175.398 267.017 175.587 267.773 175.681 268.434C175.776 269 175.87 269.472 175.965 269.85C175.965 270.134 176.059 270.228 176.059 270.228Z" fill="#212529"/>
<path d="M258.598 194.107C258.598 194.107 258.409 193.919 258.125 193.73C257.748 193.446 257.37 193.163 256.803 192.691C256.52 192.502 256.142 192.219 255.859 191.935C255.481 191.652 255.009 191.463 254.631 191.18C253.687 190.613 252.743 189.952 251.515 189.385C250.948 189.102 250.287 188.819 249.626 188.441C248.965 188.158 248.209 187.874 247.548 187.591C246.793 187.308 246.037 187.024 245.282 186.741C244.526 186.458 243.676 186.269 242.827 185.986C239.427 185.041 235.649 184.097 231.683 183.624C227.622 183.152 223.75 182.869 220.256 182.963C218.462 182.963 216.856 183.058 215.251 183.152C213.74 183.341 212.229 183.436 210.907 183.624C208.262 184.002 206.185 184.38 204.768 184.758C204.107 184.947 203.54 185.136 203.163 185.23C202.785 185.324 202.596 185.419 202.596 185.419C202.596 185.419 202.785 185.419 203.163 185.324C203.54 185.23 204.107 185.136 204.863 184.947C206.279 184.663 208.451 184.286 211.001 183.908C212.323 183.719 213.74 183.625 215.345 183.53C216.856 183.53 218.556 183.341 220.35 183.436C223.845 183.436 227.716 183.624 231.683 184.191C235.649 184.663 239.427 185.513 242.827 186.458C243.676 186.741 244.432 186.93 245.282 187.213C246.037 187.497 246.793 187.78 247.548 188.063C248.304 188.347 248.965 188.535 249.626 188.913C250.287 189.197 250.948 189.48 251.515 189.763C252.743 190.33 253.781 190.896 254.631 191.463C255.103 191.746 255.481 191.935 255.859 192.219C256.237 192.502 256.52 192.691 256.898 192.974C257.464 193.352 257.937 193.73 258.314 193.919C258.409 194.013 258.598 194.107 258.598 194.107Z" fill="#212529"/>
<path d="M191.641 199.868C191.641 199.868 191.641 199.963 191.736 200.152C191.83 200.34 191.83 200.624 192.019 200.907C192.302 201.568 192.775 202.513 193.719 203.551C194.569 204.59 195.891 205.724 197.591 206.574C198.441 207.046 199.385 207.424 200.424 207.801C201.463 208.085 202.596 208.368 203.824 208.462C206.279 208.746 208.923 208.557 211.757 207.99C214.59 207.518 217.517 206.668 220.634 205.912C223.75 205.157 227.056 204.496 230.55 204.59C232.25 204.59 234.044 204.874 235.744 205.346C237.444 205.818 239.049 206.668 240.56 207.801C243.488 209.973 245.754 212.901 247.549 215.829C249.437 218.757 250.854 221.779 252.459 224.612C253.97 227.445 255.67 229.995 257.559 232.167C259.448 234.339 261.525 236.039 263.792 237.078C266.058 238.117 268.23 238.589 270.214 238.589C272.197 238.589 273.802 238.212 275.03 237.645C275.691 237.362 276.163 237.078 276.635 236.795C277.013 236.512 277.391 236.228 277.674 235.945C277.863 235.662 278.052 235.473 278.241 235.378C278.335 235.284 278.43 235.189 278.43 235.189C278.43 235.189 278.335 235.284 278.241 235.378C278.052 235.473 277.863 235.662 277.674 235.945C277.391 236.134 277.013 236.417 276.635 236.701C276.163 236.984 275.691 237.267 275.03 237.55C273.802 238.023 272.197 238.4 270.214 238.4C268.325 238.4 266.153 237.834 263.981 236.889C261.809 235.851 259.731 234.151 257.937 231.978C256.048 229.806 254.442 227.256 252.931 224.423C251.42 221.59 249.909 218.568 248.021 215.64C246.132 212.712 243.96 209.69 240.843 207.518C239.332 206.385 237.633 205.535 235.933 205.063C234.233 204.496 232.438 204.307 230.644 204.213C227.15 204.118 223.75 204.779 220.634 205.535C217.517 206.29 214.59 207.14 211.757 207.612C208.923 208.179 206.279 208.368 203.918 208.085C202.691 207.99 201.557 207.707 200.518 207.424C199.48 207.14 198.535 206.668 197.685 206.29C195.985 205.44 194.663 204.307 193.813 203.363C192.019 201.379 191.736 199.774 191.641 199.868Z" fill="white"/>
<path d="M150.466 251.621C150.466 251.621 150.561 251.621 150.844 251.716C151.127 251.81 151.41 251.81 151.883 251.905C152.355 251.999 152.921 252.188 153.488 252.377C153.866 252.471 154.149 252.66 154.527 252.849C154.905 253.038 155.282 253.132 155.66 253.416C157.266 254.266 158.965 255.588 160.854 257.288C162.743 258.988 164.726 261.066 167.182 263.143C168.409 264.182 169.731 265.127 171.337 265.977C172.092 266.449 172.942 266.732 173.792 267.015C174.264 267.11 174.642 267.299 175.114 267.393C175.587 267.488 176.059 267.582 176.531 267.676C178.42 267.96 180.403 267.771 182.386 267.393C184.369 267.015 186.258 266.165 188.147 265.221C191.924 263.332 195.513 260.593 198.913 257.477C202.312 254.36 205.807 251.149 209.867 248.505C211.851 247.183 214.023 246.049 216.289 245.294C218.556 244.538 220.822 244.255 223.089 244.349C225.355 244.444 227.527 245.105 229.605 245.86C231.588 246.71 233.477 247.749 235.271 248.883C238.86 251.055 242.071 253.416 245.376 255.305C248.681 257.099 251.987 258.327 255.103 259.082C261.336 260.593 266.625 260.404 270.119 260.027C273.707 259.555 275.596 258.893 275.596 258.893C275.596 258.893 275.502 258.893 275.218 258.988C274.935 259.082 274.652 259.082 274.18 259.177C273.235 259.366 271.913 259.649 270.119 259.838C266.625 260.216 261.336 260.404 255.198 258.799C252.081 258.043 248.87 256.816 245.565 255.021C242.26 253.227 239.049 250.866 235.46 248.599C233.666 247.466 231.777 246.427 229.699 245.577C227.622 244.727 225.45 244.161 223.089 243.972C220.728 243.877 218.367 244.161 216.1 244.916C213.834 245.672 211.662 246.805 209.584 248.127C205.523 250.866 202.029 254.077 198.629 257.193C195.23 260.31 191.735 262.954 187.958 264.938C186.069 265.882 184.18 266.638 182.292 267.11C180.403 267.582 178.42 267.677 176.625 267.393C176.153 267.299 175.681 267.299 175.303 267.204C174.831 267.11 174.453 267.015 173.981 266.827C173.131 266.543 172.281 266.26 171.526 265.788C170.015 265.032 168.598 263.993 167.37 263.049C164.915 261.066 162.932 258.988 160.949 257.288C159.06 255.588 157.266 254.266 155.755 253.416C155.377 253.132 154.999 253.038 154.621 252.849C154.244 252.66 153.96 252.471 153.583 252.377C152.921 252.188 152.355 251.999 151.883 251.905C151.41 251.81 151.127 251.81 150.844 251.716C150.655 251.621 150.466 251.621 150.466 251.621Z" fill="white"/>
<path d="M263.13 163.225C263.13 163.225 263.13 163.602 263.319 164.263C263.508 164.925 263.886 165.869 264.358 166.908C265.491 169.08 267.663 171.819 270.969 173.519C274.274 175.219 277.768 175.502 280.129 175.124C281.357 174.935 282.301 174.746 282.962 174.463C283.623 174.274 283.907 174.085 283.907 174.085C283.907 173.991 282.49 174.558 280.129 174.841C277.768 175.124 274.369 174.841 271.158 173.141C267.947 171.441 265.775 168.797 264.641 166.813C263.508 164.641 263.225 163.225 263.13 163.225Z" fill="white"/>
</svg>
