<svg width="32" height="32" viewBox="0 0 32 32" fill="none" xmlns="http://www.w3.org/2000/svg">
<rect width="32" height="32" rx="6" fill="black"/>
<path d="M16.0007 7C13.5564 7 13.2496 7.01069 12.2896 7.05438C11.3315 7.09825 10.6775 7.24994 10.1052 7.4725C9.51328 7.70238 9.01115 8.00988 8.51089 8.51031C8.01026 9.01056 7.70276 9.51269 7.47213 10.1044C7.249 10.6769 7.09713 11.3311 7.054 12.2888C7.01125 13.2488 7 13.5558 7 16C7 18.4443 7.01088 18.7501 7.05438 19.7101C7.09844 20.6682 7.25013 21.3222 7.47251 21.8944C7.70257 22.4864 8.01007 22.9885 8.51052 23.4888C9.01058 23.9894 9.51271 24.2976 10.1043 24.5275C10.6769 24.7501 11.3311 24.9018 12.2891 24.9456C13.2491 24.9893 13.5556 25 15.9997 25C18.4442 25 18.75 24.9893 19.71 24.9456C20.6681 24.9018 21.3229 24.7501 21.8955 24.5275C22.4873 24.2976 22.9887 23.9894 23.4887 23.4888C23.9894 22.9885 24.2969 22.4864 24.5275 21.8946C24.7487 21.3222 24.9006 20.668 24.9456 19.7103C24.9888 18.7503 25 18.4443 25 16C25 13.5558 24.9888 13.249 24.9456 12.289C24.9006 11.3309 24.7487 10.6769 24.5275 10.1046C24.2969 9.51269 23.9894 9.01056 23.4887 8.51031C22.9881 8.00969 22.4875 7.70219 21.895 7.4725C21.3212 7.24994 20.6668 7.09825 19.7087 7.05438C18.7487 7.01069 18.4431 7 15.998 7H16.0007ZM15.1933 8.62187C15.4329 8.6215 15.7003 8.62187 16.0007 8.62187C18.4037 8.62187 18.6885 8.6305 19.6374 8.67363C20.515 8.71375 20.9912 8.86038 21.3085 8.98356C21.7285 9.14669 22.0279 9.34169 22.3427 9.65669C22.6577 9.97169 22.8527 10.2717 23.0162 10.6917C23.1394 11.0086 23.2862 11.4848 23.3262 12.3623C23.3693 13.3111 23.3787 13.5961 23.3787 15.9979C23.3787 18.3998 23.3693 18.6848 23.3262 19.6336C23.286 20.5111 23.1394 20.9873 23.0162 21.3042C22.8531 21.7242 22.6577 22.0233 22.3427 22.3381C22.0277 22.6531 21.7287 22.8481 21.3085 23.0112C20.9916 23.1349 20.515 23.2812 19.6374 23.3213C18.6887 23.3644 18.4037 23.3738 16.0007 23.3738C13.5974 23.3738 13.3126 23.3644 12.3639 23.3213C11.4864 23.2808 11.0101 23.1342 10.6927 23.011C10.2727 22.8479 9.97266 22.6529 9.65765 22.3379C9.34265 22.0229 9.14765 21.7236 8.98415 21.3034C8.86096 20.9866 8.71414 20.5103 8.67421 19.6328C8.63108 18.6841 8.62245 18.3991 8.62245 15.9957C8.62245 13.5923 8.63108 13.3088 8.67421 12.3601C8.71433 11.4826 8.86096 11.0063 8.98415 10.6891C9.14727 10.2691 9.34265 9.96906 9.65765 9.65406C9.97266 9.33906 10.2727 9.14406 10.6927 8.98056C11.0099 8.85681 11.4864 8.71056 12.3639 8.67025C13.1941 8.63275 13.5159 8.6215 15.1933 8.61963V8.62187Z" fill="url(#paint0_radial_263_204)"/>
<path d="M20.7855 10.0941C20.5719 10.0941 20.363 10.1575 20.1854 10.2762C20.0078 10.3949 19.8694 10.5636 19.7876 10.7609C19.7059 10.9583 19.6845 11.1755 19.7262 11.385C19.7679 11.5945 19.8708 11.7869 20.0219 11.938C20.173 12.089 20.3655 12.1918 20.575 12.2334C20.7845 12.2751 21.0017 12.2536 21.199 12.1718C21.3964 12.09 21.565 11.9515 21.6837 11.7739C21.8023 11.5962 21.8656 11.3874 21.8655 11.1738C21.8655 10.5775 21.3817 10.0938 20.7855 10.0938V10.0941Z" fill="url(#paint1_radial_263_204)"/>
<path fill-rule="evenodd" clip-rule="evenodd" d="M15.9813 11.356C13.4288 11.356 11.3594 13.4255 11.3594 15.9779C11.3594 18.5303 13.4288 20.5988 15.9813 20.5988C18.5338 20.5988 20.6027 18.5303 20.6027 15.9779C20.6027 13.4255 18.5338 11.356 15.9813 11.356ZM16 18.9531C17.631 18.9531 18.9531 17.631 18.9531 16C18.9531 14.3691 17.631 13.0469 16 13.0469C14.369 13.0469 13.0469 14.3691 13.0469 16C13.0469 17.631 14.369 18.9531 16 18.9531Z" fill="url(#paint2_radial_263_204)"/>
<path d="M16.0007 7C13.5564 7 13.2496 7.01069 12.2896 7.05438C11.3315 7.09825 10.6775 7.24994 10.1052 7.4725C9.51328 7.70238 9.01115 8.00988 8.51089 8.51031C8.01026 9.01056 7.70276 9.51269 7.47213 10.1044C7.249 10.6769 7.09713 11.3311 7.054 12.2888C7.01125 13.2488 7 13.5558 7 16C7 18.4443 7.01088 18.7501 7.05438 19.7101C7.09844 20.6682 7.25013 21.3222 7.47251 21.8944C7.70257 22.4864 8.01007 22.9885 8.51052 23.4888C9.01058 23.9894 9.51271 24.2976 10.1043 24.5275C10.6769 24.7501 11.3311 24.9018 12.2891 24.9456C13.2491 24.9893 13.5556 25 15.9997 25C18.4442 25 18.75 24.9893 19.71 24.9456C20.6681 24.9018 21.3229 24.7501 21.8955 24.5275C22.4873 24.2976 22.9887 23.9894 23.4887 23.4888C23.9894 22.9885 24.2969 22.4864 24.5275 21.8946C24.7487 21.3222 24.9006 20.668 24.9456 19.7103C24.9888 18.7503 25 18.4443 25 16C25 13.5558 24.9888 13.249 24.9456 12.289C24.9006 11.3309 24.7487 10.6769 24.5275 10.1046C24.2969 9.51269 23.9894 9.01056 23.4887 8.51031C22.9881 8.00969 22.4875 7.70219 21.895 7.4725C21.3212 7.24994 20.6668 7.09825 19.7087 7.05438C18.7487 7.01069 18.4431 7 15.998 7H16.0007ZM15.1933 8.62187C15.4329 8.6215 15.7003 8.62187 16.0007 8.62187C18.4037 8.62187 18.6885 8.6305 19.6374 8.67363C20.515 8.71375 20.9912 8.86038 21.3085 8.98356C21.7285 9.14669 22.0279 9.34169 22.3427 9.65669C22.6577 9.97169 22.8527 10.2717 23.0162 10.6917C23.1394 11.0086 23.2862 11.4848 23.3262 12.3623C23.3693 13.3111 23.3787 13.5961 23.3787 15.9979C23.3787 18.3998 23.3693 18.6848 23.3262 19.6336C23.286 20.5111 23.1394 20.9873 23.0162 21.3042C22.8531 21.7242 22.6577 22.0233 22.3427 22.3381C22.0277 22.6531 21.7287 22.8481 21.3085 23.0112C20.9916 23.1349 20.515 23.2812 19.6374 23.3213C18.6887 23.3644 18.4037 23.3738 16.0007 23.3738C13.5974 23.3738 13.3126 23.3644 12.3639 23.3213C11.4864 23.2808 11.0101 23.1342 10.6927 23.011C10.2727 22.8479 9.97266 22.6529 9.65765 22.3379C9.34265 22.0229 9.14765 21.7236 8.98415 21.3034C8.86096 20.9866 8.71414 20.5103 8.67421 19.6328C8.63108 18.6841 8.62245 18.3991 8.62245 15.9957C8.62245 13.5923 8.63108 13.3088 8.67421 12.3601C8.71433 11.4826 8.86096 11.0063 8.98415 10.6891C9.14727 10.2691 9.34265 9.96906 9.65765 9.65406C9.97266 9.33906 10.2727 9.14406 10.6927 8.98056C11.0099 8.85681 11.4864 8.71056 12.3639 8.67025C13.1941 8.63275 13.5159 8.6215 15.1933 8.61963V8.62187Z" fill="url(#paint3_radial_263_204)"/>
<path d="M20.7855 10.0941C20.5719 10.0941 20.363 10.1575 20.1854 10.2762C20.0078 10.3949 19.8694 10.5636 19.7876 10.7609C19.7059 10.9583 19.6845 11.1755 19.7262 11.385C19.7679 11.5945 19.8708 11.7869 20.0219 11.938C20.173 12.089 20.3655 12.1918 20.575 12.2334C20.7845 12.2751 21.0017 12.2536 21.199 12.1718C21.3964 12.09 21.565 11.9515 21.6837 11.7739C21.8023 11.5962 21.8656 11.3874 21.8655 11.1738C21.8655 10.5775 21.3817 10.0938 20.7855 10.0938V10.0941Z" fill="url(#paint4_radial_263_204)"/>
<path fill-rule="evenodd" clip-rule="evenodd" d="M15.9813 11.356C13.4288 11.356 11.3594 13.4255 11.3594 15.9779C11.3594 18.5303 13.4288 20.5988 15.9813 20.5988C18.5338 20.5988 20.6027 18.5303 20.6027 15.9779C20.6027 13.4255 18.5338 11.356 15.9813 11.356ZM16 18.9531C17.631 18.9531 18.9531 17.631 18.9531 16C18.9531 14.3691 17.631 13.0469 16 13.0469C14.369 13.0469 13.0469 14.3691 13.0469 16C13.0469 17.631 14.369 18.9531 16 18.9531Z" fill="url(#paint5_radial_263_204)"/>
<defs>
<radialGradient id="paint0_radial_263_204" cx="0" cy="0" r="1" gradientUnits="userSpaceOnUse" gradientTransform="translate(11.7813 26.3864) rotate(-90) scale(17.8393 16.592)">
<stop stop-color="#FFDD55"/>
<stop offset="0.1" stop-color="#FFDD55"/>
<stop offset="0.5" stop-color="#FF543E"/>
<stop offset="1" stop-color="#C837AB"/>
</radialGradient>
<radialGradient id="paint1_radial_263_204" cx="0" cy="0" r="1" gradientUnits="userSpaceOnUse" gradientTransform="translate(11.7813 26.3864) rotate(-90) scale(17.8393 16.592)">
<stop stop-color="#FFDD55"/>
<stop offset="0.1" stop-color="#FFDD55"/>
<stop offset="0.5" stop-color="#FF543E"/>
<stop offset="1" stop-color="#C837AB"/>
</radialGradient>
<radialGradient id="paint2_radial_263_204" cx="0" cy="0" r="1" gradientUnits="userSpaceOnUse" gradientTransform="translate(11.7813 26.3864) rotate(-90) scale(17.8393 16.592)">
<stop stop-color="#FFDD55"/>
<stop offset="0.1" stop-color="#FFDD55"/>
<stop offset="0.5" stop-color="#FF543E"/>
<stop offset="1" stop-color="#C837AB"/>
</radialGradient>
<radialGradient id="paint3_radial_263_204" cx="0" cy="0" r="1" gradientUnits="userSpaceOnUse" gradientTransform="translate(3.9849 8.29669) rotate(78.6806) scale(7.97425 32.8702)">
<stop stop-color="#3771C8"/>
<stop offset="0.128" stop-color="#3771C8"/>
<stop offset="1" stop-color="#6600FF" stop-opacity="0"/>
</radialGradient>
<radialGradient id="paint4_radial_263_204" cx="0" cy="0" r="1" gradientUnits="userSpaceOnUse" gradientTransform="translate(3.9849 8.29669) rotate(78.6806) scale(7.97425 32.8702)">
<stop stop-color="#3771C8"/>
<stop offset="0.128" stop-color="#3771C8"/>
<stop offset="1" stop-color="#6600FF" stop-opacity="0"/>
</radialGradient>
<radialGradient id="paint5_radial_263_204" cx="0" cy="0" r="1" gradientUnits="userSpaceOnUse" gradientTransform="translate(3.9849 8.29669) rotate(78.6806) scale(7.97425 32.8702)">
<stop stop-color="#3771C8"/>
<stop offset="0.128" stop-color="#3771C8"/>
<stop offset="1" stop-color="#6600FF" stop-opacity="0"/>
</radialGradient>
</defs>
</svg>
