<svg width="32" height="32" viewBox="0 0 32 32" fill="none" xmlns="http://www.w3.org/2000/svg">
<rect width="32" height="32" rx="6" fill="black"/>
<path d="M22.9904 8.99121H9.00977V23.0096H22.9904V8.99121Z" fill="#F1F5F7"/>
<path d="M16 17.4743L22.9901 23.0094V12.082L16 17.4743Z" fill="#DCE6EA"/>
<path d="M23.5728 8.99121H22.9903L16.0002 14.5262L9.00969 8.99121H8.42723C7.46266 8.99121 6.67969 9.77613 6.67969 10.7435V21.2572C6.67969 22.2244 7.46266 23.0095 8.42723 23.0095H9.00969V12.0822L16.0002 17.4734L22.9903 12.0809V23.0095H23.5728C24.5376 23.0095 25.3205 22.2243 25.3205 21.2572V10.7435C25.3206 9.77617 24.5377 8.99121 23.5728 8.99121Z" fill="#F84437"/>
</svg>
