<svg width="40" height="40" viewBox="0 0 40 40" fill="none" xmlns="http://www.w3.org/2000/svg">
<circle cx="20" cy="20" r="20" transform="rotate(-180 20 20)" fill="#E9ECEF"/>
<path d="M10.25 20C10.25 19.4825 10.67 19.0625 11.1875 19.0625L26.5903 19.0625L21.0163 13.3415C20.9266 13.2542 20.8553 13.1498 20.8066 13.0345C20.7579 12.9191 20.7328 12.7952 20.7327 12.67C20.7327 12.5448 20.7578 12.4209 20.8064 12.3055C20.8551 12.1901 20.9263 12.0857 21.016 11.9983C21.1057 11.9109 21.212 11.8424 21.3285 11.7968C21.4451 11.7512 21.5697 11.7293 21.6948 11.7326C21.82 11.7359 21.9432 11.7642 22.0573 11.8159C22.1713 11.8676 22.2738 11.9416 22.3588 12.0335L29.4815 19.3438C29.654 19.5187 29.7507 19.7544 29.7507 20C29.7507 20.2457 29.654 20.4814 29.4815 20.6563L22.3588 27.9665C22.2738 28.0585 22.1713 28.1325 22.0573 28.1842C21.9432 28.2359 21.82 28.2642 21.6948 28.2675C21.5697 28.2707 21.4451 28.2489 21.3285 28.2033C21.212 28.1577 21.1057 28.0891 21.016 28.0018C20.9263 27.9144 20.8551 27.81 20.8064 27.6946C20.7578 27.5792 20.7327 27.4553 20.7327 27.3301C20.7328 27.2049 20.7579 27.081 20.8066 26.9656C20.8553 26.8503 20.9266 26.7459 21.0163 26.6585L26.5903 20.9375L11.1875 20.9375C10.67 20.9375 10.25 20.5175 10.25 20Z" fill="black"/>
</svg>
