<svg width="40" height="40" viewBox="0 0 40 40" fill="none" xmlns="http://www.w3.org/2000/svg">
<circle cx="20" cy="20" r="20" fill="#E9ECEF"/>
<path d="M29.75 20C29.75 20.5175 29.33 20.9375 28.8125 20.9375H13.4097L18.9837 26.6585C19.0734 26.7458 19.1447 26.8502 19.1934 26.9655C19.2421 27.0809 19.2672 27.2048 19.2673 27.33C19.2673 27.4552 19.2422 27.5791 19.1936 27.6945C19.1449 27.8099 19.0737 27.9143 18.984 28.0017C18.8943 28.0891 18.788 28.1576 18.6715 28.2032C18.5549 28.2488 18.4303 28.2707 18.3052 28.2674C18.18 28.2641 18.0568 28.2358 17.9427 28.1841C17.8287 28.1324 17.7262 28.0584 17.6412 27.9665L10.5185 20.6562C10.346 20.4813 10.2493 20.2456 10.2493 20C10.2493 19.7543 10.346 19.5186 10.5185 19.3437L17.6412 12.0335C17.7262 11.9415 17.8287 11.8675 17.9427 11.8158C18.0568 11.7641 18.18 11.7358 18.3052 11.7325C18.4303 11.7293 18.5549 11.7511 18.6715 11.7967C18.788 11.8423 18.8943 11.9109 18.984 11.9982C19.0737 12.0856 19.1449 12.19 19.1936 12.3054C19.2422 12.4208 19.2673 12.5447 19.2673 12.6699C19.2672 12.7951 19.2421 12.919 19.1934 13.0344C19.1447 13.1497 19.0734 13.2541 18.9837 13.3415L13.4097 19.0625H28.8125C29.33 19.0625 29.75 19.4825 29.75 20Z" fill="black"/>
</svg>
