<svg width="32" height="32" viewBox="0 0 32 32" fill="none" xmlns="http://www.w3.org/2000/svg">
<rect width="32" height="32" rx="6" fill="black"/>
<path fill-rule="evenodd" clip-rule="evenodd" d="M14.3183 14.0874V13.3854C14.0747 13.3509 13.829 13.3329 13.5829 13.3318C10.5734 13.3318 8.125 15.7806 8.125 18.7901C8.125 20.6362 9.04763 22.2704 10.4551 23.2586C9.51268 22.2507 8.98875 20.9222 8.98951 19.5425C8.98951 16.5758 11.3682 14.1567 14.3183 14.0874Z" fill="#00F2EA"/>
<path fill-rule="evenodd" clip-rule="evenodd" d="M14.447 22.035C15.7897 22.035 16.8851 20.9669 16.935 19.6357L16.9395 7.75237H19.1104C19.0641 7.50426 19.0407 7.25241 19.0404 7H16.0754L16.0705 18.8838C16.021 20.2145 14.9252 21.2823 13.5829 21.2823C13.1799 21.2824 12.783 21.1842 12.4265 20.9962C12.6567 21.3172 12.96 21.579 13.3113 21.7596C13.6626 21.9403 14.0519 22.0347 14.447 22.035ZM23.1658 11.7859V11.1254C22.368 11.1262 21.5873 10.8941 20.9194 10.4576C21.505 11.1318 22.2933 11.5978 23.1663 11.7859" fill="#00F2EA"/>
<path fill-rule="evenodd" clip-rule="evenodd" d="M20.9193 10.4571C20.2648 9.70822 19.9043 8.74727 19.9047 7.75269H19.1103C19.2132 8.30241 19.4265 8.82554 19.7374 9.2904C20.0484 9.75526 20.4504 10.1522 20.9193 10.4571ZM13.5827 16.2971C12.9219 16.2979 12.2884 16.5608 11.8211 17.028C11.3538 17.4953 11.091 18.1288 11.0902 18.7896C11.0907 19.2442 11.2153 19.6901 11.4507 20.0789C11.6862 20.4678 12.0234 20.7849 12.4259 20.9961C12.1194 20.5734 11.9544 20.0646 11.9543 19.5425C11.955 18.8816 12.2178 18.2479 12.685 17.7806C13.1523 17.3132 13.7859 17.0503 14.4468 17.0495C14.7037 17.0495 14.9498 17.092 15.1823 17.165V14.1377C14.9386 14.1032 14.6929 14.0853 14.4468 14.0841C14.4035 14.0841 14.3611 14.0866 14.3182 14.0874V16.4126C14.0803 16.3369 13.8323 16.298 13.5827 16.2971Z" fill="#FF004F"/>
<path fill-rule="evenodd" clip-rule="evenodd" d="M23.1659 11.7858V14.0903C21.6282 14.0903 20.2039 13.5985 19.0405 12.7637V18.7897C19.0405 21.7991 16.5925 24.2476 13.583 24.2476C12.42 24.2476 11.3416 23.8807 10.4552 23.2582C10.9648 23.8077 11.5824 24.2461 12.2693 24.5458C12.9562 24.8455 13.6976 25.0001 14.4471 24.9999C17.4566 24.9999 19.905 22.5515 19.905 19.5425V13.5165C21.1068 14.3807 22.5501 14.8448 24.0304 14.8431V11.8774C23.7336 11.8774 23.445 11.8452 23.1659 11.7854" fill="#FF004F"/>
<path fill-rule="evenodd" clip-rule="evenodd" d="M19.0405 18.7896V12.7637C20.2423 13.628 21.6856 14.0921 23.166 14.0903V11.7858C22.2931 11.5976 21.5049 11.1314 20.9196 10.4571C20.4507 10.1522 20.0487 9.75526 19.7377 9.2904C19.4268 8.82554 19.2134 8.30241 19.1106 7.75269H16.9396L16.9351 19.636C16.8852 20.9668 15.7898 22.035 14.4471 22.035C14.052 22.0346 13.6627 21.9401 13.3114 21.7595C12.9601 21.5788 12.6568 21.3171 12.4266 20.9961C12.024 20.785 11.6867 20.4679 11.4512 20.079C11.2157 19.6901 11.091 19.2443 11.0905 18.7896C11.0913 18.1288 11.3541 17.4953 11.8214 17.028C12.2886 16.5608 12.9222 16.2979 13.583 16.2971C13.8394 16.2971 14.0856 16.3392 14.3185 16.4126V14.0874C11.3683 14.1567 8.98962 16.5758 8.98962 19.5425C8.98962 20.9771 9.547 22.2831 10.4552 23.2585C11.3708 23.9031 12.4633 24.2485 13.583 24.2475C16.5925 24.2475 19.0405 21.7991 19.0405 18.7896Z" fill="white"/>
</svg>
