<svg width="158" height="60" viewBox="0 0 158 60" fill="none" xmlns="http://www.w3.org/2000/svg">
<g filter="url(#filter0_biiii_170_324)">
<path d="M57.5311 17.5444L33.4033 17.7477C32.2274 17.7576 31.1067 17.2495 30.3391 16.3586L26.7483 12.1905C26.15 11.4655 25.1929 11.1456 24.2529 11.1456L5.56753 11.146C2.48126 11.1768 -0.00355321 13.7096 3.81416e-06 16.821V54.2388C-0.000150839 57.3477 2.48374 59.8769 5.56753 59.9076H57.5311C60.6149 59.8769 63.0987 57.3477 63.0986 54.2388V23.2132C63.0987 20.1043 60.6149 17.5753 57.5311 17.5444Z" fill="white"/>
</g>
<path d="M6.19694 23.3379C4.71002 18.6477 7.26043 13.6252 11.8934 12.1199L40.8072 2.72568C45.4402 1.22039 50.4014 3.80231 51.8883 8.49255L57.1471 25.0805C58.634 29.7707 56.0836 34.7932 51.4506 36.2985L22.5368 45.6927C17.9038 47.198 12.9426 44.6161 11.4557 39.9258L6.19694 23.3379Z" fill="url(#paint0_linear_170_324)"/>
<g filter="url(#filter1_biiii_170_324)">
<path d="M58.3529 17.5444L33.8367 17.748C32.6708 17.7577 31.5586 17.2582 30.7914 16.3802L27.1304 12.1905C26.5224 11.4641 25.5573 11.1456 24.61 11.1456L5.64706 11.146C2.51671 11.1768 -0.00360397 13.7096 3.86865e-06 16.821V54.2388C-0.000152994 57.3477 2.51922 59.8769 5.64706 59.9076H58.3529C61.4808 59.8769 64.0002 57.3477 64 54.2388V23.2132C64.0002 20.1043 61.4808 17.5753 58.3529 17.5444Z" fill="white" fill-opacity="0.56"/>
</g>
<path d="M46.8282 27.4356C46.6341 27.3826 46.3453 27.4251 46.6048 27.0111C46.8658 26.5964 47.2896 25.888 46.895 25.5137C46.6376 25.2681 46.213 25.4737 45.9013 25.1972C45.5916 24.9193 45.7064 24.2187 44.9249 23.8437C44.1434 23.4717 43.4656 24.5492 43.4406 24.7187C43.4128 24.8895 43.6075 25.3228 44.0933 25.4961C44.577 25.6687 44.5638 25.7544 44.7697 26.1968C44.9771 26.6388 45.1532 27.0234 45.4698 27.177C45.7872 27.3314 45.8554 27.7963 46.2395 27.591C46.6264 27.3861 46.7176 27.7261 46.9619 28.0096C47.2068 28.2917 47.3279 27.9924 47.3209 27.7896C47.3126 27.5882 47.0509 27.4977 46.8282 27.4356Z" fill="#8A2BE2"/>
<path d="M45.1901 27.4999C45.1685 27.4848 45.1483 27.4683 45.1233 27.4567C44.8066 27.303 44.6306 26.9185 44.4232 26.4765C44.2172 26.034 44.2311 25.9481 43.7475 25.7755C43.4461 25.6681 43.2576 25.4608 43.1636 25.2783L41.1497 28.0623L42.9291 29.6506L45.1901 27.4999Z" fill="#8A2BE2"/>
<path d="M25.6848 30.408C18.1993 34.2873 15.9598 41.7234 16.8701 46.5616C17.2518 48.5887 18.9686 50.7233 20.9965 49.8062C22.7157 49.0301 23.7429 46.8535 25.8476 46.1623C27.1531 45.7329 28.5645 46.8507 29.7305 48.6449C31.631 51.5695 35.7883 55.1152 42.3103 51.7106C48.2576 48.6063 48.4301 39.1037 43.9903 33.6993C40.1391 29.0134 32.6699 26.7876 25.6848 30.408ZM25.4729 35.8854C24.5101 35.8854 23.73 35.0981 23.73 34.127C23.73 33.1562 24.5101 32.3703 25.4729 32.3703C26.436 32.3703 27.2168 33.1562 27.2168 34.127C27.2168 35.0981 26.436 35.8854 25.4729 35.8854ZM32.4403 34.6167C31.2002 34.6167 30.1953 33.6035 30.1953 32.3531C30.1953 31.103 31.2002 30.0894 32.4403 30.0894C33.6811 30.0894 34.6846 31.103 34.6846 32.3531C34.6846 33.6035 33.6811 34.6167 32.4403 34.6167ZM38.6498 50.3135C36.4195 50.3135 34.6122 48.4898 34.6122 46.2416C34.6122 43.9927 36.4195 42.1704 38.6498 42.1704C40.8795 42.1704 42.6861 43.9927 42.6861 46.2416C42.6861 48.4898 40.8795 50.3135 38.6498 50.3135ZM39.8496 39.3072C38.2107 39.3072 36.8809 37.9673 36.8809 36.3131C36.8809 34.6592 38.2107 33.3193 39.8496 33.3193C41.4899 33.3193 42.8197 34.6592 42.8197 36.3131C42.8198 37.9673 41.4899 39.3072 39.8496 39.3072Z" fill="#8A2BE2"/>
<path d="M42.4767 30.1564L40.707 28.5769L39.9583 29.4467C40.6729 29.808 41.3556 30.2245 42 30.6904L42.4767 30.1564Z" fill="#8A2BE2"/>
<path d="M26.1088 46.9693C25.1391 47.2871 24.4136 48.0112 23.6463 48.7775C23.1982 49.2252 22.7379 49.6813 22.2187 50.0602L19.7914 52.8803C19.3756 53.3623 19.2851 53.9812 19.5889 54.2521L19.7736 54.4155C20.0777 54.6864 20.6738 54.5194 21.0986 54.0458L27.2317 47.1917C26.9436 47.0191 26.6676 46.9194 26.4195 46.9194C26.3127 46.9194 26.2108 46.9363 26.1088 46.9693Z" fill="#8A2BE2"/>
<path d="M138.474 37.9898C138.474 39.0944 137.579 39.9898 136.474 39.9898L130.34 39.9901C128.131 39.9901 126.34 38.1993 126.34 35.9901V22C126.34 20.8954 127.236 20 128.34 20H129.283C130.388 20 131.283 20.8954 131.283 22V31.5476C131.283 33.7567 133.074 35.5476 135.283 35.5476H136.474C137.578 35.5476 138.474 36.443 138.474 37.5476V37.9898Z" fill="#8A2BE2"/>
<path d="M153.903 37.9996C153.903 39.1042 153.007 39.9996 151.903 39.9996L145.769 39.9999C143.56 39.9999 141.769 38.2091 141.769 35.9999V22C141.769 20.8954 142.664 20 143.769 20H144.712C145.817 20 146.712 20.8954 146.712 22V31.5574C146.712 33.7665 148.503 35.5574 150.712 35.5574H151.903C153.007 35.5574 153.903 36.4528 153.903 37.5574V37.9996Z" fill="#8A2BE2"/>
<path d="M122.604 37.3039C123.081 38.6087 122.115 39.9902 120.726 39.9902H119.91C119.052 39.9902 118.29 39.4436 118.015 38.6314L117.196 36.2088C117.168 36.1276 117.092 36.0729 117.006 36.0729H110.188C110.102 36.0729 110.026 36.1276 109.998 36.2088L109.178 38.6314C108.903 39.4436 108.141 39.9902 107.284 39.9902H106.597C105.208 39.9902 104.242 38.6087 104.718 37.3039L110.424 21.6875C110.68 20.9847 111.045 20.2472 111.782 20.1199C112.191 20.0493 112.771 20 113.597 20C114.821 20 115.53 20.1084 115.941 20.2339C116.388 20.3708 116.588 20.8371 116.749 21.2769L122.604 37.3039ZM115.813 32.5201C115.881 32.5201 115.93 32.4528 115.908 32.388L113.786 26.1293C113.725 25.9482 113.469 25.9482 113.407 26.1293L111.286 32.388C111.264 32.4528 111.312 32.5201 111.381 32.5201H115.813Z" fill="#8A2BE2"/>
<path d="M101.721 20C103.053 20 104.013 21.2783 103.641 22.5579L99.0443 38.3846C98.9397 38.7446 98.7861 39.0979 98.4841 39.3199C98.0737 39.6216 97.3104 39.9869 96.0204 39.9869C94.3506 39.9869 93.7145 39.3747 93.5054 39.081C93.4364 38.984 93.3996 38.87 93.3669 38.7555L89.9791 26.8826L86.7612 38.4635C86.6756 38.7716 86.5555 39.0763 86.3109 39.2822C85.9448 39.5901 85.2236 39.9869 83.9378 39.9869C82.6471 39.9869 81.8946 39.5871 81.5061 39.2786C81.249 39.0746 81.1093 38.7698 81.0056 38.4584L80.1741 35.9606L76.6554 22.506C76.3239 21.2386 77.2802 20 78.5903 20H79.3449C80.3092 20 81.1362 20.6867 81.3153 21.6342C81.997 25.2395 83.6053 33.5629 83.9373 33.6289C85.172 33.8743 86.9418 21.022 87.6364 20.438C88.3309 19.854 91.6262 19.854 92.5664 20.438C93.5066 21.022 95.169 34.5185 96.0199 33.6289C96.6821 32.9365 98.3458 25.0669 99.0511 21.611C99.2423 20.6745 100.064 20 101.02 20H101.721Z" fill="#8A2BE2"/>
<rect x="151.321" y="20" width="6.67864" height="6.75234" rx="3.33932" fill="#8A2BE2"/>
<defs>
<filter id="filter0_biiii_170_324" x="-7.4" y="3.74551" width="77.8986" height="63.562" filterUnits="userSpaceOnUse" color-interpolation-filters="sRGB">
<feFlood flood-opacity="0" result="BackgroundImageFix"/>
<feGaussianBlur in="BackgroundImageFix" stdDeviation="3.7"/>
<feComposite in2="SourceAlpha" operator="in" result="effect1_backgroundBlur_170_324"/>
<feBlend mode="normal" in="SourceGraphic" in2="effect1_backgroundBlur_170_324" result="shape"/>
<feColorMatrix in="SourceAlpha" type="matrix" values="0 0 0 0 0 0 0 0 0 0 0 0 0 0 0 0 0 0 127 0" result="hardAlpha"/>
<feOffset dy="1"/>
<feGaussianBlur stdDeviation="2"/>
<feComposite in2="hardAlpha" operator="arithmetic" k2="-1" k3="1"/>
<feColorMatrix type="matrix" values="0 0 0 0 1 0 0 0 0 1 0 0 0 0 1 0 0 0 0.3 0"/>
<feBlend mode="normal" in2="shape" result="effect2_innerShadow_170_324"/>
<feColorMatrix in="SourceAlpha" type="matrix" values="0 0 0 0 0 0 0 0 0 0 0 0 0 0 0 0 0 0 127 0" result="hardAlpha"/>
<feOffset dy="-1"/>
<feGaussianBlur stdDeviation="2"/>
<feComposite in2="hardAlpha" operator="arithmetic" k2="-1" k3="1"/>
<feColorMatrix type="matrix" values="0 0 0 0 1 0 0 0 0 1 0 0 0 0 1 0 0 0 0.5 0"/>
<feBlend mode="normal" in2="effect2_innerShadow_170_324" result="effect3_innerShadow_170_324"/>
<feColorMatrix in="SourceAlpha" type="matrix" values="0 0 0 0 0 0 0 0 0 0 0 0 0 0 0 0 0 0 127 0" result="hardAlpha"/>
<feOffset dy="1"/>
<feGaussianBlur stdDeviation="22"/>
<feComposite in2="hardAlpha" operator="arithmetic" k2="-1" k3="1"/>
<feColorMatrix type="matrix" values="0 0 0 0 1 0 0 0 0 1 0 0 0 0 1 0 0 0 0.45 0"/>
<feBlend mode="normal" in2="effect3_innerShadow_170_324" result="effect4_innerShadow_170_324"/>
<feColorMatrix in="SourceAlpha" type="matrix" values="0 0 0 0 0 0 0 0 0 0 0 0 0 0 0 0 0 0 127 0" result="hardAlpha"/>
<feOffset dx="1" dy="1"/>
<feGaussianBlur stdDeviation="1"/>
<feComposite in2="hardAlpha" operator="arithmetic" k2="-1" k3="1"/>
<feColorMatrix type="matrix" values="0 0 0 0 1 0 0 0 0 1 0 0 0 0 1 0 0 0 1 0"/>
<feBlend mode="normal" in2="effect4_innerShadow_170_324" result="effect5_innerShadow_170_324"/>
</filter>
<filter id="filter1_biiii_170_324" x="-7.4" y="3.74551" width="78.8" height="63.562" filterUnits="userSpaceOnUse" color-interpolation-filters="sRGB">
<feFlood flood-opacity="0" result="BackgroundImageFix"/>
<feGaussianBlur in="BackgroundImageFix" stdDeviation="3.7"/>
<feComposite in2="SourceAlpha" operator="in" result="effect1_backgroundBlur_170_324"/>
<feBlend mode="normal" in="SourceGraphic" in2="effect1_backgroundBlur_170_324" result="shape"/>
<feColorMatrix in="SourceAlpha" type="matrix" values="0 0 0 0 0 0 0 0 0 0 0 0 0 0 0 0 0 0 127 0" result="hardAlpha"/>
<feOffset dy="1"/>
<feGaussianBlur stdDeviation="2"/>
<feComposite in2="hardAlpha" operator="arithmetic" k2="-1" k3="1"/>
<feColorMatrix type="matrix" values="0 0 0 0 1 0 0 0 0 1 0 0 0 0 1 0 0 0 0.3 0"/>
<feBlend mode="normal" in2="shape" result="effect2_innerShadow_170_324"/>
<feColorMatrix in="SourceAlpha" type="matrix" values="0 0 0 0 0 0 0 0 0 0 0 0 0 0 0 0 0 0 127 0" result="hardAlpha"/>
<feOffset dy="-1"/>
<feGaussianBlur stdDeviation="2"/>
<feComposite in2="hardAlpha" operator="arithmetic" k2="-1" k3="1"/>
<feColorMatrix type="matrix" values="0 0 0 0 1 0 0 0 0 1 0 0 0 0 1 0 0 0 0.5 0"/>
<feBlend mode="normal" in2="effect2_innerShadow_170_324" result="effect3_innerShadow_170_324"/>
<feColorMatrix in="SourceAlpha" type="matrix" values="0 0 0 0 0 0 0 0 0 0 0 0 0 0 0 0 0 0 127 0" result="hardAlpha"/>
<feOffset dy="1"/>
<feGaussianBlur stdDeviation="22"/>
<feComposite in2="hardAlpha" operator="arithmetic" k2="-1" k3="1"/>
<feColorMatrix type="matrix" values="0 0 0 0 1 0 0 0 0 1 0 0 0 0 1 0 0 0 0.45 0"/>
<feBlend mode="normal" in2="effect3_innerShadow_170_324" result="effect4_innerShadow_170_324"/>
<feColorMatrix in="SourceAlpha" type="matrix" values="0 0 0 0 0 0 0 0 0 0 0 0 0 0 0 0 0 0 127 0" result="hardAlpha"/>
<feOffset dx="1" dy="1"/>
<feGaussianBlur stdDeviation="1"/>
<feComposite in2="hardAlpha" operator="arithmetic" k2="-1" k3="1"/>
<feColorMatrix type="matrix" values="0 0 0 0 1 0 0 0 0 1 0 0 0 0 1 0 0 0 1 0"/>
<feBlend mode="normal" in2="effect4_innerShadow_170_324" result="effect5_innerShadow_170_324"/>
</filter>
<linearGradient id="paint0_linear_170_324" x1="0.548835" y1="35.0782" x2="-0.232952" y2="7.80346" gradientUnits="userSpaceOnUse">
<stop stop-color="#CE7EF6"/>
<stop offset="1" stop-color="#8A2BE2"/>
</linearGradient>
</defs>
</svg>
